%TF.GenerationSoftware,KiCad,Pcbnew,7.0.1*%
%TF.CreationDate,2023-05-27T02:15:05+02:00*%
%TF.ProjectId,main,6d61696e-2e6b-4696-9361-645f70636258,v1.0.1*%
%TF.SameCoordinates,Original*%
%TF.FileFunction,Copper,L4,Bot*%
%TF.FilePolarity,Positive*%
%FSLAX46Y46*%
G04 Gerber Fmt 4.6, Leading zero omitted, Abs format (unit mm)*
G04 Created by KiCad (PCBNEW 7.0.1) date 2023-05-27 02:15:05*
%MOMM*%
%LPD*%
G01*
G04 APERTURE LIST*
G04 Aperture macros list*
%AMRoundRect*
0 Rectangle with rounded corners*
0 $1 Rounding radius*
0 $2 $3 $4 $5 $6 $7 $8 $9 X,Y pos of 4 corners*
0 Add a 4 corners polygon primitive as box body*
4,1,4,$2,$3,$4,$5,$6,$7,$8,$9,$2,$3,0*
0 Add four circle primitives for the rounded corners*
1,1,$1+$1,$2,$3*
1,1,$1+$1,$4,$5*
1,1,$1+$1,$6,$7*
1,1,$1+$1,$8,$9*
0 Add four rect primitives between the rounded corners*
20,1,$1+$1,$2,$3,$4,$5,0*
20,1,$1+$1,$4,$5,$6,$7,0*
20,1,$1+$1,$6,$7,$8,$9,0*
20,1,$1+$1,$8,$9,$2,$3,0*%
G04 Aperture macros list end*
%TA.AperFunction,ComponentPad*%
%ADD10O,1.600000X1.200000*%
%TD*%
%TA.AperFunction,ComponentPad*%
%ADD11C,1.350000*%
%TD*%
%TA.AperFunction,ComponentPad*%
%ADD12R,1.905000X2.000000*%
%TD*%
%TA.AperFunction,ComponentPad*%
%ADD13O,1.905000X2.000000*%
%TD*%
%TA.AperFunction,ComponentPad*%
%ADD14C,4.000000*%
%TD*%
%TA.AperFunction,ComponentPad*%
%ADD15R,1.600000X1.600000*%
%TD*%
%TA.AperFunction,ComponentPad*%
%ADD16C,1.600000*%
%TD*%
%TA.AperFunction,ComponentPad*%
%ADD17R,2.000000X2.000000*%
%TD*%
%TA.AperFunction,ComponentPad*%
%ADD18C,2.000000*%
%TD*%
%TA.AperFunction,ComponentPad*%
%ADD19RoundRect,0.249999X0.525001X-0.525001X0.525001X0.525001X-0.525001X0.525001X-0.525001X-0.525001X0*%
%TD*%
%TA.AperFunction,ComponentPad*%
%ADD20C,1.550000*%
%TD*%
%TA.AperFunction,SMDPad,CuDef*%
%ADD21C,0.250000*%
%TD*%
%TA.AperFunction,SMDPad,CuDef*%
%ADD22C,0.500000*%
%TD*%
%TA.AperFunction,SMDPad,CuDef*%
%ADD23RoundRect,0.225000X0.250000X-0.225000X0.250000X0.225000X-0.250000X0.225000X-0.250000X-0.225000X0*%
%TD*%
%TA.AperFunction,SMDPad,CuDef*%
%ADD24R,2.850000X1.200000*%
%TD*%
%TA.AperFunction,SMDPad,CuDef*%
%ADD25RoundRect,0.200000X0.200000X0.275000X-0.200000X0.275000X-0.200000X-0.275000X0.200000X-0.275000X0*%
%TD*%
%TA.AperFunction,SMDPad,CuDef*%
%ADD26RoundRect,0.225000X-0.225000X-0.250000X0.225000X-0.250000X0.225000X0.250000X-0.225000X0.250000X0*%
%TD*%
%TA.AperFunction,SMDPad,CuDef*%
%ADD27RoundRect,0.250000X0.650000X-0.325000X0.650000X0.325000X-0.650000X0.325000X-0.650000X-0.325000X0*%
%TD*%
%TA.AperFunction,SMDPad,CuDef*%
%ADD28RoundRect,0.200000X-0.200000X-0.275000X0.200000X-0.275000X0.200000X0.275000X-0.200000X0.275000X0*%
%TD*%
%TA.AperFunction,SMDPad,CuDef*%
%ADD29RoundRect,0.250000X-0.650000X0.325000X-0.650000X-0.325000X0.650000X-0.325000X0.650000X0.325000X0*%
%TD*%
%TA.AperFunction,SMDPad,CuDef*%
%ADD30RoundRect,0.225000X0.225000X0.250000X-0.225000X0.250000X-0.225000X-0.250000X0.225000X-0.250000X0*%
%TD*%
%TA.AperFunction,SMDPad,CuDef*%
%ADD31RoundRect,0.225000X0.335876X0.017678X0.017678X0.335876X-0.335876X-0.017678X-0.017678X-0.335876X0*%
%TD*%
%TA.AperFunction,SMDPad,CuDef*%
%ADD32RoundRect,0.250000X0.475000X-0.250000X0.475000X0.250000X-0.475000X0.250000X-0.475000X-0.250000X0*%
%TD*%
%TA.AperFunction,SMDPad,CuDef*%
%ADD33RoundRect,0.150000X-0.825000X-0.150000X0.825000X-0.150000X0.825000X0.150000X-0.825000X0.150000X0*%
%TD*%
%TA.AperFunction,ViaPad*%
%ADD34C,0.600000*%
%TD*%
%TA.AperFunction,Conductor*%
%ADD35C,0.250000*%
%TD*%
%TA.AperFunction,Conductor*%
%ADD36C,0.500000*%
%TD*%
G04 APERTURE END LIST*
%TA.AperFunction,EtchedComponent*%
%TO.C,NT15*%
G36*
X103500000Y-103925000D02*
G01*
X103000000Y-103925000D01*
X103000000Y-103675000D01*
X103500000Y-103675000D01*
X103500000Y-103925000D01*
G37*
%TD.AperFunction*%
%TA.AperFunction,EtchedComponent*%
%TO.C,NT11*%
G36*
X103500000Y-72425000D02*
G01*
X103000000Y-72425000D01*
X103000000Y-72175000D01*
X103500000Y-72175000D01*
X103500000Y-72425000D01*
G37*
%TD.AperFunction*%
%TA.AperFunction,EtchedComponent*%
%TO.C,NT22*%
G36*
X132750000Y-142250000D02*
G01*
X131250000Y-142250000D01*
X131250000Y-140750000D01*
X132750000Y-140750000D01*
X132750000Y-142250000D01*
G37*
%TD.AperFunction*%
%TA.AperFunction,EtchedComponent*%
%TO.C,NT3*%
G36*
X143500000Y-103925000D02*
G01*
X143000000Y-103925000D01*
X143000000Y-103675000D01*
X143500000Y-103675000D01*
X143500000Y-103925000D01*
G37*
%TD.AperFunction*%
%TA.AperFunction,EtchedComponent*%
%TO.C,NT21*%
G36*
X132750000Y-110750000D02*
G01*
X131250000Y-110750000D01*
X131250000Y-109250000D01*
X132750000Y-109250000D01*
X132750000Y-110750000D01*
G37*
%TD.AperFunction*%
%TA.AperFunction,EtchedComponent*%
%TO.C,NT25*%
G36*
X132750000Y-79250000D02*
G01*
X131250000Y-79250000D01*
X131250000Y-77750000D01*
X132750000Y-77750000D01*
X132750000Y-79250000D01*
G37*
%TD.AperFunction*%
%TA.AperFunction,EtchedComponent*%
%TO.C,NT19*%
G36*
X143500000Y-72425000D02*
G01*
X143000000Y-72425000D01*
X143000000Y-72175000D01*
X143500000Y-72175000D01*
X143500000Y-72425000D01*
G37*
%TD.AperFunction*%
%TA.AperFunction,EtchedComponent*%
%TO.C,NT7*%
G36*
X143500000Y-135425000D02*
G01*
X143000000Y-135425000D01*
X143000000Y-135175000D01*
X143500000Y-135175000D01*
X143500000Y-135425000D01*
G37*
%TD.AperFunction*%
%TA.AperFunction,EtchedComponent*%
%TO.C,NT24*%
G36*
X92750000Y-110750000D02*
G01*
X91250000Y-110750000D01*
X91250000Y-109250000D01*
X92750000Y-109250000D01*
X92750000Y-110750000D01*
G37*
%TD.AperFunction*%
%TA.AperFunction,EtchedComponent*%
%TO.C,NT23*%
G36*
X92750000Y-79250000D02*
G01*
X91250000Y-79250000D01*
X91250000Y-77750000D01*
X92750000Y-77750000D01*
X92750000Y-79250000D01*
G37*
%TD.AperFunction*%
%TD*%
D10*
%TO.P,U10,1*%
%TO.N,Net-(R36-Pad2)*%
X100500000Y-117500000D03*
D11*
%TO.P,U10,2*%
%TO.N,/sheet61977749/GND_zener*%
X101914214Y-118914214D03*
%TO.P,U10,3*%
%TO.N,/Reference Block 1/V_heater_pos*%
X103328428Y-117500000D03*
%TO.P,U10,4*%
%TO.N,/sheet61977749/GND_heater*%
X101914214Y-116085786D03*
%TD*%
D10*
%TO.P,U13,1*%
%TO.N,Net-(R46-Pad2)*%
X120500000Y-102500000D03*
D11*
%TO.P,U13,2*%
%TO.N,/sheet61977B89/GND_zener*%
X121914214Y-103914214D03*
%TO.P,U13,3*%
%TO.N,/Reference Block 1/V_heater_pos*%
X123328428Y-102500000D03*
%TO.P,U13,4*%
%TO.N,/sheet61977B89/GND_heater*%
X121914214Y-101085786D03*
%TD*%
D10*
%TO.P,U9,1*%
%TO.N,Net-(R31-Pad2)*%
X100500000Y-102500000D03*
D11*
%TO.P,U9,2*%
%TO.N,/sheet61977749/GND_zener*%
X101914214Y-103914214D03*
%TO.P,U9,3*%
%TO.N,/Reference Block 1/V_heater_pos*%
X103328428Y-102500000D03*
%TO.P,U9,4*%
%TO.N,/sheet61977749/GND_heater*%
X101914214Y-101085786D03*
%TD*%
D10*
%TO.P,U5,1*%
%TO.N,Net-(R16-Pad2)*%
X140500000Y-86000000D03*
D11*
%TO.P,U5,2*%
%TO.N,/Reference Block 1/GND_zener*%
X141914214Y-87414214D03*
%TO.P,U5,3*%
%TO.N,/Reference Block 1/V_heater_pos*%
X143328428Y-86000000D03*
%TO.P,U5,4*%
%TO.N,/Reference Block 1/GND_heater*%
X141914214Y-84585786D03*
%TD*%
D10*
%TO.P,U23,1*%
%TO.N,Net-(R86-Pad2)*%
X80500000Y-71000000D03*
D11*
%TO.P,U23,2*%
%TO.N,/sheet6197BEAD/GND_zener*%
X81914214Y-72414214D03*
%TO.P,U23,3*%
%TO.N,/Reference Block 1/V_heater_pos*%
X83328428Y-71000000D03*
%TO.P,U23,4*%
%TO.N,/sheet6197BEAD/GND_heater*%
X81914214Y-69585786D03*
%TD*%
D10*
%TO.P,U4,1*%
%TO.N,Net-(R11-Pad2)*%
X140500000Y-71000000D03*
D11*
%TO.P,U4,2*%
%TO.N,/Reference Block 1/GND_zener*%
X141914214Y-72414214D03*
%TO.P,U4,3*%
%TO.N,/Reference Block 1/V_heater_pos*%
X143328428Y-71000000D03*
%TO.P,U4,4*%
%TO.N,/Reference Block 1/GND_heater*%
X141914214Y-69585786D03*
%TD*%
D10*
%TO.P,U24,1*%
%TO.N,Net-(R91-Pad2)*%
X100500000Y-71000000D03*
D11*
%TO.P,U24,2*%
%TO.N,/sheet6197BEAD/GND_zener*%
X101914214Y-72414214D03*
%TO.P,U24,3*%
%TO.N,/Reference Block 1/V_heater_pos*%
X103328428Y-71000000D03*
%TO.P,U24,4*%
%TO.N,/sheet6197BEAD/GND_heater*%
X101914214Y-69585786D03*
%TD*%
D10*
%TO.P,U20,1*%
%TO.N,Net-(R76-Pad2)*%
X140500000Y-149000000D03*
D11*
%TO.P,U20,2*%
%TO.N,/sheet6197811F/GND_zener*%
X141914214Y-150414214D03*
%TO.P,U20,3*%
%TO.N,/Reference Block 1/V_heater_pos*%
X143328428Y-149000000D03*
%TO.P,U20,4*%
%TO.N,/sheet6197811F/GND_heater*%
X141914214Y-147585786D03*
%TD*%
D10*
%TO.P,U14,1*%
%TO.N,Net-(R51-Pad2)*%
X140500000Y-102500000D03*
D11*
%TO.P,U14,2*%
%TO.N,/sheet61977B89/GND_zener*%
X141914214Y-103914214D03*
%TO.P,U14,3*%
%TO.N,/Reference Block 1/V_heater_pos*%
X143328428Y-102500000D03*
%TO.P,U14,4*%
%TO.N,/sheet61977B89/GND_heater*%
X141914214Y-101085786D03*
%TD*%
D10*
%TO.P,U18,1*%
%TO.N,Net-(R66-Pad2)*%
X120500000Y-134000000D03*
D11*
%TO.P,U18,2*%
%TO.N,/sheet6197811F/GND_zener*%
X121914214Y-135414214D03*
%TO.P,U18,3*%
%TO.N,/Reference Block 1/V_heater_pos*%
X123328428Y-134000000D03*
%TO.P,U18,4*%
%TO.N,/sheet6197811F/GND_heater*%
X121914214Y-132585786D03*
%TD*%
D10*
%TO.P,U3,1*%
%TO.N,Net-(R6-Pad2)*%
X120500000Y-71000000D03*
D11*
%TO.P,U3,2*%
%TO.N,/Reference Block 1/GND_zener*%
X121914214Y-72414214D03*
%TO.P,U3,3*%
%TO.N,/Reference Block 1/V_heater_pos*%
X123328428Y-71000000D03*
%TO.P,U3,4*%
%TO.N,/Reference Block 1/GND_heater*%
X121914214Y-69585786D03*
%TD*%
D10*
%TO.P,U19,1*%
%TO.N,Net-(R71-Pad2)*%
X140500000Y-134000000D03*
D11*
%TO.P,U19,2*%
%TO.N,/sheet6197811F/GND_zener*%
X141914214Y-135414214D03*
%TO.P,U19,3*%
%TO.N,/Reference Block 1/V_heater_pos*%
X143328428Y-134000000D03*
%TO.P,U19,4*%
%TO.N,/sheet6197811F/GND_heater*%
X141914214Y-132585786D03*
%TD*%
D10*
%TO.P,U8,1*%
%TO.N,Net-(R26-Pad2)*%
X80500000Y-102500000D03*
D11*
%TO.P,U8,2*%
%TO.N,/sheet61977749/GND_zener*%
X81914214Y-103914214D03*
%TO.P,U8,3*%
%TO.N,/Reference Block 1/V_heater_pos*%
X83328428Y-102500000D03*
%TO.P,U8,4*%
%TO.N,/sheet61977749/GND_heater*%
X81914214Y-101085786D03*
%TD*%
D10*
%TO.P,U7,1*%
%TO.N,Net-(R21-Pad2)*%
X80500000Y-117500000D03*
D11*
%TO.P,U7,2*%
%TO.N,/sheet61977749/GND_zener*%
X81914214Y-118914214D03*
%TO.P,U7,3*%
%TO.N,/Reference Block 1/V_heater_pos*%
X83328428Y-117500000D03*
%TO.P,U7,4*%
%TO.N,/sheet61977749/GND_heater*%
X81914214Y-116085786D03*
%TD*%
D12*
%TO.P,U26,1,ADJ*%
%TO.N,Net-(U26-ADJ)*%
X76400000Y-156000000D03*
D13*
%TO.P,U26,2,VO*%
%TO.N,/Reference Block 1/V_pos*%
X73860000Y-156000000D03*
%TO.P,U26,3,VI*%
%TO.N,Net-(#FLG0101-pwr)*%
X71320000Y-156000000D03*
%TD*%
D10*
%TO.P,U22,1*%
%TO.N,Net-(R81-Pad2)*%
X80500000Y-86000000D03*
D11*
%TO.P,U22,2*%
%TO.N,/sheet6197BEAD/GND_zener*%
X81914214Y-87414214D03*
%TO.P,U22,3*%
%TO.N,/Reference Block 1/V_heater_pos*%
X83328428Y-86000000D03*
%TO.P,U22,4*%
%TO.N,/sheet6197BEAD/GND_heater*%
X81914214Y-84585786D03*
%TD*%
D10*
%TO.P,U15,1*%
%TO.N,Net-(R56-Pad2)*%
X140500000Y-117500000D03*
D11*
%TO.P,U15,2*%
%TO.N,/sheet61977B89/GND_zener*%
X141914214Y-118914214D03*
%TO.P,U15,3*%
%TO.N,/Reference Block 1/V_heater_pos*%
X143328428Y-117500000D03*
%TO.P,U15,4*%
%TO.N,/sheet61977B89/GND_heater*%
X141914214Y-116085786D03*
%TD*%
D10*
%TO.P,U12,1*%
%TO.N,Net-(R41-Pad2)*%
X120500000Y-117500000D03*
D11*
%TO.P,U12,2*%
%TO.N,/sheet61977B89/GND_zener*%
X121914214Y-118914214D03*
%TO.P,U12,3*%
%TO.N,/Reference Block 1/V_heater_pos*%
X123328428Y-117500000D03*
%TO.P,U12,4*%
%TO.N,/sheet61977B89/GND_heater*%
X121914214Y-116085786D03*
%TD*%
D14*
%TO.P,J2,0,PAD*%
%TO.N,GND*%
X184140000Y-140555000D03*
X184140000Y-79445000D03*
D15*
%TO.P,J2,1*%
%TO.N,/D1+*%
X181300000Y-87900000D03*
D16*
%TO.P,J2,2*%
%TO.N,/D1-*%
X181300000Y-90670000D03*
%TO.P,J2,3*%
%TO.N,/D4+*%
X181300000Y-93440000D03*
%TO.P,J2,4*%
%TO.N,/D4-*%
X181300000Y-96180000D03*
%TO.P,J2,5*%
%TO.N,/D7+*%
X181300000Y-98950000D03*
%TO.P,J2,6*%
%TO.N,/D7-*%
X181300000Y-101720000D03*
%TO.P,J2,7*%
%TO.N,/D10+*%
X181300000Y-104460000D03*
%TO.P,J2,8*%
%TO.N,/D10-*%
X181300000Y-107230000D03*
%TO.P,J2,9*%
%TO.N,/D13+*%
X181300000Y-110000000D03*
%TO.P,J2,10*%
%TO.N,/D13-*%
X181300000Y-112740000D03*
%TO.P,J2,11*%
%TO.N,/D16+*%
X181300000Y-115490000D03*
%TO.P,J2,12*%
%TO.N,/D16-*%
X181300000Y-118280000D03*
%TO.P,J2,13*%
%TO.N,/D19+*%
X181300000Y-121050000D03*
%TO.P,J2,14*%
%TO.N,/D19-*%
X181300000Y-123820000D03*
%TO.P,J2,15*%
%TO.N,Net-(J2-Pad15)*%
X181300000Y-126560000D03*
%TO.P,J2,16*%
%TO.N,Net-(J2-Pad16)*%
X181300000Y-129330000D03*
%TO.P,J2,17*%
%TO.N,unconnected-(J2-Pad17)*%
X181300000Y-132100000D03*
%TO.P,J2,18*%
%TO.N,/D2+*%
X184140000Y-89300000D03*
%TO.P,J2,19*%
%TO.N,/D2-*%
X184140000Y-92040000D03*
%TO.P,J2,20*%
%TO.N,/D5+*%
X184140000Y-94810000D03*
%TO.P,J2,21*%
%TO.N,/D5-*%
X184140000Y-97580000D03*
%TO.P,J2,22*%
%TO.N,/D8+*%
X184140000Y-100320000D03*
%TO.P,J2,23*%
%TO.N,/D8-*%
X184140000Y-103090000D03*
%TO.P,J2,24*%
%TO.N,/D11+*%
X184140000Y-105860000D03*
%TO.P,J2,25*%
%TO.N,/D11-*%
X184140000Y-108600000D03*
%TO.P,J2,26*%
%TO.N,/D14+*%
X184140000Y-111400000D03*
%TO.P,J2,27*%
%TO.N,/D14-*%
X184140000Y-114110000D03*
%TO.P,J2,28*%
%TO.N,/D17+*%
X184140000Y-116910000D03*
%TO.P,J2,29*%
%TO.N,/D17-*%
X184140000Y-119680000D03*
%TO.P,J2,30*%
%TO.N,/D20+*%
X184140000Y-122420000D03*
%TO.P,J2,31*%
%TO.N,/D20-*%
X184140000Y-125190000D03*
%TO.P,J2,32*%
%TO.N,Net-(J2-Pad32)*%
X184140000Y-127960000D03*
%TO.P,J2,33*%
%TO.N,Net-(J2-Pad33)*%
X184140000Y-130700000D03*
%TO.P,J2,34*%
%TO.N,/D3+*%
X186980000Y-87900000D03*
%TO.P,J2,35*%
%TO.N,/D3-*%
X186980000Y-90670000D03*
%TO.P,J2,36*%
%TO.N,/D6+*%
X186980000Y-93440000D03*
%TO.P,J2,37*%
%TO.N,/D6-*%
X186980000Y-96180000D03*
%TO.P,J2,38*%
%TO.N,/D9+*%
X186980000Y-98950000D03*
%TO.P,J2,39*%
%TO.N,/D9-*%
X186980000Y-101720000D03*
%TO.P,J2,40*%
%TO.N,/D12+*%
X186980000Y-104460000D03*
%TO.P,J2,41*%
%TO.N,/D12-*%
X186980000Y-107230000D03*
%TO.P,J2,42*%
%TO.N,/D15+*%
X186980000Y-110000000D03*
%TO.P,J2,43*%
%TO.N,/D15-*%
X186980000Y-112740000D03*
%TO.P,J2,44*%
%TO.N,/D18+*%
X186980000Y-115490000D03*
%TO.P,J2,45*%
%TO.N,/D18-*%
X186980000Y-118280000D03*
%TO.P,J2,46*%
%TO.N,unconnected-(J2-Pad46)*%
X186980000Y-121050000D03*
%TO.P,J2,47*%
%TO.N,unconnected-(J2-Pad47)*%
X186980000Y-123820000D03*
%TO.P,J2,48*%
%TO.N,unconnected-(J2-Pad48)*%
X186980000Y-126560000D03*
%TO.P,J2,49*%
%TO.N,unconnected-(J2-Pad49)*%
X186980000Y-129330000D03*
%TO.P,J2,50*%
%TO.N,unconnected-(J2-Pad50)*%
X186980000Y-132100000D03*
%TD*%
D10*
%TO.P,U25,1*%
%TO.N,Net-(R96-Pad2)*%
X100500000Y-86000000D03*
D11*
%TO.P,U25,2*%
%TO.N,/sheet6197BEAD/GND_zener*%
X101914214Y-87414214D03*
%TO.P,U25,3*%
%TO.N,/Reference Block 1/V_heater_pos*%
X103328428Y-86000000D03*
%TO.P,U25,4*%
%TO.N,/sheet6197BEAD/GND_heater*%
X101914214Y-84585786D03*
%TD*%
D10*
%TO.P,U17,1*%
%TO.N,Net-(R61-Pad2)*%
X120500000Y-149000000D03*
D11*
%TO.P,U17,2*%
%TO.N,/sheet6197811F/GND_zener*%
X121914214Y-150414214D03*
%TO.P,U17,3*%
%TO.N,/Reference Block 1/V_heater_pos*%
X123328428Y-149000000D03*
%TO.P,U17,4*%
%TO.N,/sheet6197811F/GND_heater*%
X121914214Y-147585786D03*
%TD*%
D17*
%TO.P,C106,1*%
%TO.N,Net-(#FLG0101-pwr)*%
X59500000Y-146500000D03*
D18*
%TO.P,C106,2*%
%TO.N,GND*%
X59500000Y-141500000D03*
%TD*%
D10*
%TO.P,U2,1*%
%TO.N,Net-(R1-Pad2)*%
X120500000Y-86000000D03*
D11*
%TO.P,U2,2*%
%TO.N,/Reference Block 1/GND_zener*%
X121914214Y-87414214D03*
%TO.P,U2,3*%
%TO.N,/Reference Block 1/V_heater_pos*%
X123328428Y-86000000D03*
%TO.P,U2,4*%
%TO.N,/Reference Block 1/GND_heater*%
X121914214Y-84585786D03*
%TD*%
D17*
%TO.P,C107,1*%
%TO.N,/Reference Block 1/V_pos*%
X72500000Y-146500000D03*
D18*
%TO.P,C107,2*%
%TO.N,GND*%
X72500000Y-141500000D03*
%TD*%
D19*
%TO.P,J1,a1,Pin_a1*%
%TO.N,Net-(#FLG0101-pwr)*%
X40300000Y-149370000D03*
D20*
%TO.P,J1,a2,Pin_a2*%
X40300000Y-146830000D03*
%TO.P,J1,a3,Pin_a3*%
X40300000Y-144290000D03*
%TO.P,J1,a4,Pin_a4*%
%TO.N,unconnected-(J1-Pin_a4-Pada4)*%
X40300000Y-141750000D03*
%TO.P,J1,a5,Pin_a5*%
%TO.N,unconnected-(J1-Pin_a5-Pada5)*%
X40300000Y-139210000D03*
%TO.P,J1,a6,Pin_a6*%
%TO.N,unconnected-(J1-Pin_a6-Pada6)*%
X40300000Y-136670000D03*
%TO.P,J1,a7,Pin_a7*%
%TO.N,unconnected-(J1-Pin_a7-Pada7)*%
X40300000Y-134130000D03*
%TO.P,J1,a8,Pin_a8*%
%TO.N,unconnected-(J1-Pin_a8-Pada8)*%
X40300000Y-131590000D03*
%TO.P,J1,a9,Pin_a9*%
%TO.N,unconnected-(J1-Pin_a9-Pada9)*%
X40300000Y-129050000D03*
%TO.P,J1,a10,Pin_a10*%
%TO.N,unconnected-(J1-Pin_a10-Pada10)*%
X40300000Y-126510000D03*
%TO.P,J1,a11,Pin_a11*%
%TO.N,unconnected-(J1-Pin_a11-Pada11)*%
X40300000Y-123970000D03*
%TO.P,J1,a12,Pin_a12*%
%TO.N,unconnected-(J1-Pin_a12-Pada12)*%
X40300000Y-121430000D03*
%TO.P,J1,a13,Pin_a13*%
%TO.N,unconnected-(J1-Pin_a13-Pada13)*%
X40300000Y-118890000D03*
%TO.P,J1,a14,Pin_a14*%
%TO.N,unconnected-(J1-Pin_a14-Pada14)*%
X40300000Y-116350000D03*
%TO.P,J1,a15,Pin_a15*%
%TO.N,GND*%
X40300000Y-113810000D03*
%TO.P,J1,a16,Pin_a16*%
X40300000Y-111270000D03*
%TO.P,J1,a17,Pin_a17*%
X40300000Y-108730000D03*
%TO.P,J1,a18,Pin_a18*%
X40300000Y-106190000D03*
%TO.P,J1,a19,Pin_a19*%
%TO.N,unconnected-(J1-Pin_a19-Pada19)*%
X40300000Y-103650000D03*
%TO.P,J1,a20,Pin_a20*%
%TO.N,unconnected-(J1-Pin_a20-Pada20)*%
X40300000Y-101110000D03*
%TO.P,J1,a21,Pin_a21*%
%TO.N,unconnected-(J1-Pin_a21-Pada21)*%
X40300000Y-98570000D03*
%TO.P,J1,a22,Pin_a22*%
%TO.N,unconnected-(J1-Pin_a22-Pada22)*%
X40300000Y-96030000D03*
%TO.P,J1,a23,Pin_a23*%
%TO.N,unconnected-(J1-Pin_a23-Pada23)*%
X40300000Y-93490000D03*
%TO.P,J1,a24,Pin_a24*%
%TO.N,unconnected-(J1-Pin_a24-Pada24)*%
X40300000Y-90950000D03*
%TO.P,J1,a25,Pin_a25*%
%TO.N,unconnected-(J1-Pin_a25-Pada25)*%
X40300000Y-88410000D03*
%TO.P,J1,a26,Pin_a26*%
%TO.N,unconnected-(J1-Pin_a26-Pada26)*%
X40300000Y-85870000D03*
%TO.P,J1,a27,Pin_a27*%
%TO.N,unconnected-(J1-Pin_a27-Pada27)*%
X40300000Y-83330000D03*
%TO.P,J1,a28,Pin_a28*%
%TO.N,unconnected-(J1-Pin_a28-Pada28)*%
X40300000Y-80790000D03*
%TO.P,J1,a29,Pin_a29*%
%TO.N,unconnected-(J1-Pin_a29-Pada29)*%
X40300000Y-78250000D03*
%TO.P,J1,a30,Pin_a30*%
%TO.N,unconnected-(J1-Pin_a30-Pada30)*%
X40300000Y-75710000D03*
%TO.P,J1,a31,Pin_a31*%
%TO.N,unconnected-(J1-Pin_a31-Pada31)*%
X40300000Y-73170000D03*
%TO.P,J1,a32,Pin_a32*%
%TO.N,unconnected-(J1-Pin_a32-Pada32)*%
X40300000Y-70630000D03*
%TO.P,J1,c1,Pin_c1*%
%TO.N,Net-(#FLG0101-pwr)*%
X45380000Y-149370000D03*
%TO.P,J1,c2,Pin_c2*%
X45380000Y-146830000D03*
%TO.P,J1,c3,Pin_c3*%
X45380000Y-144290000D03*
%TO.P,J1,c4,Pin_c4*%
%TO.N,unconnected-(J1-Pin_c4-Padc4)*%
X45380000Y-141750000D03*
%TO.P,J1,c5,Pin_c5*%
%TO.N,unconnected-(J1-Pin_c5-Padc5)*%
X45380000Y-139210000D03*
%TO.P,J1,c6,Pin_c6*%
%TO.N,unconnected-(J1-Pin_c6-Padc6)*%
X45380000Y-136670000D03*
%TO.P,J1,c7,Pin_c7*%
%TO.N,unconnected-(J1-Pin_c7-Padc7)*%
X45380000Y-134130000D03*
%TO.P,J1,c8,Pin_c8*%
%TO.N,unconnected-(J1-Pin_c8-Padc8)*%
X45380000Y-131590000D03*
%TO.P,J1,c9,Pin_c9*%
%TO.N,unconnected-(J1-Pin_c9-Padc9)*%
X45380000Y-129050000D03*
%TO.P,J1,c10,Pin_c10*%
%TO.N,unconnected-(J1-Pin_c10-Padc10)*%
X45380000Y-126510000D03*
%TO.P,J1,c11,Pin_c11*%
%TO.N,unconnected-(J1-Pin_c11-Padc11)*%
X45380000Y-123970000D03*
%TO.P,J1,c12,Pin_c12*%
%TO.N,unconnected-(J1-Pin_c12-Padc12)*%
X45380000Y-121430000D03*
%TO.P,J1,c13,Pin_c13*%
%TO.N,unconnected-(J1-Pin_c13-Padc13)*%
X45380000Y-118890000D03*
%TO.P,J1,c14,Pin_c14*%
%TO.N,unconnected-(J1-Pin_c14-Padc14)*%
X45380000Y-116350000D03*
%TO.P,J1,c15,Pin_c15*%
%TO.N,GND*%
X45380000Y-113810000D03*
%TO.P,J1,c16,Pin_c16*%
X45380000Y-111270000D03*
%TO.P,J1,c17,Pin_c17*%
X45380000Y-108730000D03*
%TO.P,J1,c18,Pin_c18*%
X45380000Y-106190000D03*
%TO.P,J1,c19,Pin_c19*%
%TO.N,unconnected-(J1-Pin_c19-Padc19)*%
X45380000Y-103650000D03*
%TO.P,J1,c20,Pin_c20*%
%TO.N,unconnected-(J1-Pin_c20-Padc20)*%
X45380000Y-101110000D03*
%TO.P,J1,c21,Pin_c21*%
%TO.N,unconnected-(J1-Pin_c21-Padc21)*%
X45380000Y-98570000D03*
%TO.P,J1,c22,Pin_c22*%
%TO.N,unconnected-(J1-Pin_c22-Padc22)*%
X45380000Y-96030000D03*
%TO.P,J1,c23,Pin_c23*%
%TO.N,unconnected-(J1-Pin_c23-Padc23)*%
X45380000Y-93490000D03*
%TO.P,J1,c24,Pin_c24*%
%TO.N,unconnected-(J1-Pin_c24-Padc24)*%
X45380000Y-90950000D03*
%TO.P,J1,c25,Pin_c25*%
%TO.N,unconnected-(J1-Pin_c25-Padc25)*%
X45380000Y-88410000D03*
%TO.P,J1,c26,Pin_c26*%
%TO.N,unconnected-(J1-Pin_c26-Padc26)*%
X45380000Y-85870000D03*
%TO.P,J1,c27,Pin_c27*%
%TO.N,unconnected-(J1-Pin_c27-Padc27)*%
X45380000Y-83330000D03*
%TO.P,J1,c28,Pin_c28*%
%TO.N,unconnected-(J1-Pin_c28-Padc28)*%
X45380000Y-80790000D03*
%TO.P,J1,c29,Pin_c29*%
%TO.N,unconnected-(J1-Pin_c29-Padc29)*%
X45380000Y-78250000D03*
%TO.P,J1,c30,Pin_c30*%
%TO.N,unconnected-(J1-Pin_c30-Padc30)*%
X45380000Y-75710000D03*
%TO.P,J1,c31,Pin_c31*%
%TO.N,unconnected-(J1-Pin_c31-Padc31)*%
X45380000Y-73170000D03*
%TO.P,J1,c32,Pin_c32*%
%TO.N,unconnected-(J1-Pin_c32-Padc32)*%
X45380000Y-70630000D03*
%TD*%
D21*
%TO.P,NT15,1,1*%
%TO.N,/sheet61977749/GND_zener*%
X103000000Y-103800000D03*
%TO.P,NT15,2,2*%
%TO.N,Net-(C36-Pad2)*%
X103500000Y-103800000D03*
%TD*%
%TO.P,NT11,1,1*%
%TO.N,/sheet6197BEAD/GND_zener*%
X103000000Y-72300000D03*
%TO.P,NT11,2,2*%
%TO.N,Net-(C99-Pad2)*%
X103500000Y-72300000D03*
%TD*%
D22*
%TO.P,NT22,1,1*%
%TO.N,Net-(#FLG0104-pwr)*%
X132500000Y-141000000D03*
%TO.P,NT22,2,2*%
%TO.N,/sheet6197811F/GND_heater*%
X131500000Y-141000000D03*
%TO.P,NT22,3,3*%
%TO.N,/sheet6197811F/GND_zener*%
X132500000Y-142000000D03*
%TO.P,NT22,4,4*%
%TO.N,GND*%
X131500000Y-142000000D03*
%TD*%
D23*
%TO.P,C18,1*%
%TO.N,Net-(C18-Pad1)*%
X137500000Y-86775000D03*
%TO.P,C18,2*%
%TO.N,/Reference Block 1/GND_heater*%
X137500000Y-85225000D03*
%TD*%
D24*
%TO.P,L15,1,1*%
%TO.N,Net-(C78-Pad1)*%
X159275000Y-127500000D03*
%TO.P,L15,2,2*%
%TO.N,/D16+*%
X166725000Y-127500000D03*
%TO.P,L15,3,3*%
%TO.N,Net-(C78-Pad2)*%
X159275000Y-125000000D03*
%TO.P,L15,4,4*%
%TO.N,/D16-*%
X166725000Y-125000000D03*
%TD*%
D25*
%TO.P,R95,1*%
%TO.N,Net-(C99-Pad1)*%
X102825000Y-77500000D03*
%TO.P,R95,2*%
%TO.N,Net-(U21C--)*%
X101175000Y-77500000D03*
%TD*%
D26*
%TO.P,R62,1*%
%TO.N,Net-(R61-Pad2)*%
X120725000Y-153000000D03*
%TO.P,R62,2*%
%TO.N,Net-(C66-Pad1)*%
X122275000Y-153000000D03*
%TD*%
D24*
%TO.P,L19,1,1*%
%TO.N,Net-(C99-Pad1)*%
X159275000Y-95000000D03*
%TO.P,L19,2,2*%
%TO.N,/D6+*%
X166725000Y-95000000D03*
%TO.P,L19,3,3*%
%TO.N,Net-(C99-Pad2)*%
X159275000Y-92500000D03*
%TO.P,L19,4,4*%
%TO.N,/D6-*%
X166725000Y-92500000D03*
%TD*%
D27*
%TO.P,C58,1*%
%TO.N,/D14+*%
X171500000Y-121225000D03*
%TO.P,C58,2*%
%TO.N,/D14-*%
X171500000Y-118275000D03*
%TD*%
D28*
%TO.P,R85,1*%
%TO.N,Net-(C89-Pad1)*%
X81175000Y-79500000D03*
%TO.P,R85,2*%
%TO.N,Net-(U21A--)*%
X82825000Y-79500000D03*
%TD*%
%TO.P,R5,1*%
%TO.N,Net-(C5-Pad1)*%
X121175000Y-79500000D03*
%TO.P,R5,2*%
%TO.N,Net-(U1A--)*%
X122825000Y-79500000D03*
%TD*%
D29*
%TO.P,C9,1*%
%TO.N,Net-(C9-Pad1)*%
X126000000Y-73775000D03*
%TO.P,C9,2*%
%TO.N,Net-(U1B--)*%
X126000000Y-76725000D03*
%TD*%
D25*
%TO.P,R8,1*%
%TO.N,Net-(U1B-+)*%
X130325000Y-71000000D03*
%TO.P,R8,2*%
%TO.N,Net-(R6-Pad2)*%
X128675000Y-71000000D03*
%TD*%
D30*
%TO.P,R57,1*%
%TO.N,Net-(R56-Pad2)*%
X140275000Y-121500000D03*
%TO.P,R57,2*%
%TO.N,Net-(C60-Pad1)*%
X138725000Y-121500000D03*
%TD*%
D31*
%TO.P,C23,1*%
%TO.N,/Reference Block 1/V_heater_pos*%
X104798008Y-100548008D03*
%TO.P,C23,2*%
%TO.N,/sheet61977749/GND_heater*%
X103701992Y-99451992D03*
%TD*%
D25*
%TO.P,R99,1*%
%TO.N,Net-(C104-Pad1)*%
X102825000Y-81000000D03*
%TO.P,R99,2*%
%TO.N,Net-(C103-Pad1)*%
X101175000Y-81000000D03*
%TD*%
D30*
%TO.P,R37,1*%
%TO.N,Net-(R36-Pad2)*%
X100275000Y-121500000D03*
%TO.P,R37,2*%
%TO.N,Net-(C39-Pad1)*%
X98725000Y-121500000D03*
%TD*%
D27*
%TO.P,C19,1*%
%TO.N,Net-(C19-Pad1)*%
X138000000Y-83225000D03*
%TO.P,C19,2*%
%TO.N,Net-(U1D--)*%
X138000000Y-80275000D03*
%TD*%
D25*
%TO.P,R23,1*%
%TO.N,Net-(U6A-+)*%
X90325000Y-117500000D03*
%TO.P,R23,2*%
%TO.N,Net-(R21-Pad2)*%
X88675000Y-117500000D03*
%TD*%
%TO.P,R88,1*%
%TO.N,Net-(U21B-+)*%
X90295000Y-71000000D03*
%TO.P,R88,2*%
%TO.N,Net-(R86-Pad2)*%
X88645000Y-71000000D03*
%TD*%
D26*
%TO.P,C8,1*%
%TO.N,Net-(C8-Pad1)*%
X122225000Y-65500000D03*
%TO.P,C8,2*%
%TO.N,/Reference Block 1/GND_heater*%
X123775000Y-65500000D03*
%TD*%
%TO.P,R42,1*%
%TO.N,Net-(R41-Pad2)*%
X120725000Y-121500000D03*
%TO.P,R42,2*%
%TO.N,Net-(C45-Pad1)*%
X122275000Y-121500000D03*
%TD*%
D28*
%TO.P,R29,1*%
%TO.N,Net-(C31-Pad1)*%
X81175000Y-107500000D03*
%TO.P,R29,2*%
%TO.N,Net-(C30-Pad1)*%
X82825000Y-107500000D03*
%TD*%
D26*
%TO.P,R82,1*%
%TO.N,Net-(R81-Pad2)*%
X80725000Y-90000000D03*
%TO.P,R82,2*%
%TO.N,Net-(C87-Pad1)*%
X82275000Y-90000000D03*
%TD*%
D25*
%TO.P,R39,1*%
%TO.N,Net-(C41-Pad1)*%
X102825000Y-112500000D03*
%TO.P,R39,2*%
%TO.N,Net-(C40-Pad1)*%
X101175000Y-112500000D03*
%TD*%
D28*
%TO.P,R90,1*%
%TO.N,Net-(C94-Pad1)*%
X81175000Y-77500000D03*
%TO.P,R90,2*%
%TO.N,Net-(U21B--)*%
X82825000Y-77500000D03*
%TD*%
D31*
%TO.P,C12,1*%
%TO.N,/Reference Block 1/V_heater_pos*%
X144798008Y-69048008D03*
%TO.P,C12,2*%
%TO.N,/Reference Block 1/GND_heater*%
X143701992Y-67951992D03*
%TD*%
D28*
%TO.P,R30,1*%
%TO.N,Net-(C31-Pad1)*%
X81175000Y-109000000D03*
%TO.P,R30,2*%
%TO.N,Net-(U6B--)*%
X82825000Y-109000000D03*
%TD*%
D24*
%TO.P,L10,1,1*%
%TO.N,Net-(C52-Pad1)*%
X159275000Y-114500000D03*
%TO.P,L10,2,2*%
%TO.N,/D12+*%
X166725000Y-114500000D03*
%TO.P,L10,3,3*%
%TO.N,Net-(C52-Pad2)*%
X159275000Y-112000000D03*
%TO.P,L10,4,4*%
%TO.N,/D12-*%
X166725000Y-112000000D03*
%TD*%
D21*
%TO.P,NT3,1,1*%
%TO.N,/sheet61977B89/GND_zener*%
X143000000Y-103800000D03*
%TO.P,NT3,2,2*%
%TO.N,Net-(C57-Pad2)*%
X143500000Y-103800000D03*
%TD*%
D31*
%TO.P,C101,1*%
%TO.N,/Reference Block 1/V_heater_pos*%
X84798008Y-69048008D03*
%TO.P,C101,2*%
%TO.N,/sheet6197BEAD/GND_heater*%
X83701992Y-67951992D03*
%TD*%
D22*
%TO.P,NT21,1,1*%
%TO.N,Net-(#FLG0103-pwr)*%
X132500000Y-109500000D03*
%TO.P,NT21,2,2*%
%TO.N,/sheet61977B89/GND_heater*%
X131500000Y-109500000D03*
%TO.P,NT21,3,3*%
%TO.N,/sheet61977B89/GND_zener*%
X132500000Y-110500000D03*
%TO.P,NT21,4,4*%
%TO.N,GND*%
X131500000Y-110500000D03*
%TD*%
D30*
%TO.P,C1,1*%
%TO.N,/Reference Block 1/V_heater_pos*%
X126525000Y-78500000D03*
%TO.P,C1,2*%
%TO.N,GND*%
X124975000Y-78500000D03*
%TD*%
D28*
%TO.P,R18,1*%
%TO.N,Net-(U1D-+)*%
X133675000Y-86000000D03*
%TO.P,R18,2*%
%TO.N,Net-(R16-Pad2)*%
X135325000Y-86000000D03*
%TD*%
D27*
%TO.P,C100,1*%
%TO.N,/D6+*%
X171500000Y-95225000D03*
%TO.P,C100,2*%
%TO.N,/D6-*%
X171500000Y-92275000D03*
%TD*%
D26*
%TO.P,C29,1*%
%TO.N,Net-(C29-Pad1)*%
X82225000Y-97000000D03*
%TO.P,C29,2*%
%TO.N,/sheet61977749/GND_heater*%
X83775000Y-97000000D03*
%TD*%
D31*
%TO.P,C80,1*%
%TO.N,/Reference Block 1/V_heater_pos*%
X124798008Y-132048008D03*
%TO.P,C80,2*%
%TO.N,/sheet6197811F/GND_heater*%
X123701992Y-130951992D03*
%TD*%
D28*
%TO.P,R65,1*%
%TO.N,Net-(C68-Pad1)*%
X121175000Y-142500000D03*
%TO.P,R65,2*%
%TO.N,Net-(U16A--)*%
X122825000Y-142500000D03*
%TD*%
D31*
%TO.P,C49,1*%
%TO.N,/Reference Block 1/V_heater_pos*%
X144798008Y-115548008D03*
%TO.P,C49,2*%
%TO.N,/sheet61977B89/GND_heater*%
X143701992Y-114451992D03*
%TD*%
%TO.P,C38,1*%
%TO.N,/Reference Block 1/V_heater_pos*%
X84798008Y-100548008D03*
%TO.P,C38,2*%
%TO.N,/sheet61977749/GND_heater*%
X83701992Y-99451992D03*
%TD*%
D26*
%TO.P,C50,1*%
%TO.N,Net-(C50-Pad1)*%
X122225000Y-97000000D03*
%TO.P,C50,2*%
%TO.N,/sheet61977B89/GND_heater*%
X123775000Y-97000000D03*
%TD*%
D23*
%TO.P,R27,1*%
%TO.N,Net-(R26-Pad2)*%
X80000000Y-98775000D03*
%TO.P,R27,2*%
%TO.N,Net-(C29-Pad1)*%
X80000000Y-97225000D03*
%TD*%
D28*
%TO.P,R93,1*%
%TO.N,Net-(U21C-+)*%
X93675000Y-71000000D03*
%TO.P,R93,2*%
%TO.N,Net-(R91-Pad2)*%
X95325000Y-71000000D03*
%TD*%
D23*
%TO.P,R87,1*%
%TO.N,Net-(R86-Pad2)*%
X80000000Y-67275000D03*
%TO.P,R87,2*%
%TO.N,Net-(C92-Pad1)*%
X80000000Y-65725000D03*
%TD*%
D32*
%TO.P,R6,1*%
%TO.N,/Reference Block 1/V_pos*%
X113000000Y-76950000D03*
%TO.P,R6,2*%
%TO.N,Net-(R6-Pad2)*%
X113000000Y-75050000D03*
%TD*%
D29*
%TO.P,C72,1*%
%TO.N,Net-(C72-Pad1)*%
X126000000Y-136775000D03*
%TO.P,C72,2*%
%TO.N,Net-(U16B--)*%
X126000000Y-139725000D03*
%TD*%
%TO.P,C93,1*%
%TO.N,Net-(C93-Pad1)*%
X86000000Y-73775000D03*
%TO.P,C93,2*%
%TO.N,Net-(U21B--)*%
X86000000Y-76725000D03*
%TD*%
D26*
%TO.P,C92,1*%
%TO.N,Net-(C92-Pad1)*%
X82225000Y-65500000D03*
%TO.P,C92,2*%
%TO.N,/sheet6197BEAD/GND_heater*%
X83775000Y-65500000D03*
%TD*%
D31*
%TO.P,C28,1*%
%TO.N,/Reference Block 1/V_heater_pos*%
X104798008Y-115548008D03*
%TO.P,C28,2*%
%TO.N,/sheet61977749/GND_heater*%
X103701992Y-114451992D03*
%TD*%
D27*
%TO.P,C46,1*%
%TO.N,Net-(C46-Pad1)*%
X126000000Y-114725000D03*
%TO.P,C46,2*%
%TO.N,Net-(U11A--)*%
X126000000Y-111775000D03*
%TD*%
%TO.P,C78,1*%
%TO.N,Net-(C78-Pad1)*%
X154500000Y-127725000D03*
%TO.P,C78,2*%
%TO.N,Net-(C78-Pad2)*%
X154500000Y-124775000D03*
%TD*%
D26*
%TO.P,C13,1*%
%TO.N,Net-(C13-Pad1)*%
X136225000Y-66500000D03*
%TO.P,C13,2*%
%TO.N,/Reference Block 1/GND_heater*%
X137775000Y-66500000D03*
%TD*%
D27*
%TO.P,C99,1*%
%TO.N,Net-(C99-Pad1)*%
X154500000Y-95225000D03*
%TO.P,C99,2*%
%TO.N,Net-(C99-Pad2)*%
X154500000Y-92275000D03*
%TD*%
D25*
%TO.P,R75,1*%
%TO.N,Net-(C78-Pad1)*%
X142825000Y-140500000D03*
%TO.P,R75,2*%
%TO.N,Net-(U16C--)*%
X141175000Y-140500000D03*
%TD*%
D26*
%TO.P,C55,1*%
%TO.N,Net-(C55-Pad1)*%
X136225000Y-98000000D03*
%TO.P,C55,2*%
%TO.N,/sheet61977B89/GND_heater*%
X137775000Y-98000000D03*
%TD*%
%TO.P,C66,1*%
%TO.N,Net-(C66-Pad1)*%
X124225000Y-153000000D03*
%TO.P,C66,2*%
%TO.N,/sheet6197811F/GND_heater*%
X125775000Y-153000000D03*
%TD*%
D25*
%TO.P,R83,1*%
%TO.N,Net-(U21A-+)*%
X90325000Y-86000000D03*
%TO.P,R83,2*%
%TO.N,Net-(R81-Pad2)*%
X88675000Y-86000000D03*
%TD*%
D27*
%TO.P,C82,1*%
%TO.N,Net-(C82-Pad1)*%
X138000000Y-146225000D03*
%TO.P,C82,2*%
%TO.N,Net-(U16D--)*%
X138000000Y-143275000D03*
%TD*%
D30*
%TO.P,C43,1*%
%TO.N,/Reference Block 1/V_heater_pos*%
X126525000Y-110000000D03*
%TO.P,C43,2*%
%TO.N,GND*%
X124975000Y-110000000D03*
%TD*%
%TO.P,R12,1*%
%TO.N,Net-(R11-Pad2)*%
X137775000Y-68000000D03*
%TO.P,R12,2*%
%TO.N,Net-(C13-Pad1)*%
X136225000Y-68000000D03*
%TD*%
D26*
%TO.P,C34,1*%
%TO.N,Net-(C34-Pad1)*%
X96225000Y-98000000D03*
%TO.P,C34,2*%
%TO.N,/sheet61977749/GND_heater*%
X97775000Y-98000000D03*
%TD*%
D28*
%TO.P,R4,1*%
%TO.N,Net-(C5-Pad1)*%
X121175000Y-81000000D03*
%TO.P,R4,2*%
%TO.N,Net-(C4-Pad1)*%
X122825000Y-81000000D03*
%TD*%
%TO.P,R69,1*%
%TO.N,Net-(C73-Pad1)*%
X121175000Y-139000000D03*
%TO.P,R69,2*%
%TO.N,Net-(C72-Pad1)*%
X122825000Y-139000000D03*
%TD*%
D26*
%TO.P,C71,1*%
%TO.N,Net-(C71-Pad1)*%
X122225000Y-128500000D03*
%TO.P,C71,2*%
%TO.N,/sheet6197811F/GND_heater*%
X123775000Y-128500000D03*
%TD*%
D23*
%TO.P,C2,1*%
%TO.N,/Reference Block 1/V_heater_pos*%
X125750000Y-86525000D03*
%TO.P,C2,2*%
%TO.N,/Reference Block 1/GND_heater*%
X125750000Y-84975000D03*
%TD*%
D30*
%TO.P,R32,1*%
%TO.N,Net-(R31-Pad2)*%
X97775000Y-99500000D03*
%TO.P,R32,2*%
%TO.N,Net-(C34-Pad1)*%
X96225000Y-99500000D03*
%TD*%
D24*
%TO.P,L7,1,1*%
%TO.N,Net-(C36-Pad1)*%
X159275000Y-108000000D03*
%TO.P,L7,2,2*%
%TO.N,/D10+*%
X166725000Y-108000000D03*
%TO.P,L7,3,3*%
%TO.N,Net-(C36-Pad2)*%
X159275000Y-105500000D03*
%TO.P,L7,4,4*%
%TO.N,/D10-*%
X166725000Y-105500000D03*
%TD*%
D26*
%TO.P,C76,1*%
%TO.N,Net-(C76-Pad1)*%
X136225000Y-129500000D03*
%TO.P,C76,2*%
%TO.N,/sheet6197811F/GND_heater*%
X137775000Y-129500000D03*
%TD*%
D25*
%TO.P,R34,1*%
%TO.N,Net-(C36-Pad1)*%
X102825000Y-107500000D03*
%TO.P,R34,2*%
%TO.N,Net-(C35-Pad1)*%
X101175000Y-107500000D03*
%TD*%
D28*
%TO.P,R49,1*%
%TO.N,Net-(C52-Pad1)*%
X121175000Y-107500000D03*
%TO.P,R49,2*%
%TO.N,Net-(C51-Pad1)*%
X122825000Y-107500000D03*
%TD*%
%TO.P,R24,1*%
%TO.N,Net-(C26-Pad1)*%
X81175000Y-112500000D03*
%TO.P,R24,2*%
%TO.N,Net-(C25-Pad1)*%
X82825000Y-112500000D03*
%TD*%
D25*
%TO.P,R60,1*%
%TO.N,Net-(C62-Pad1)*%
X142825000Y-111000000D03*
%TO.P,R60,2*%
%TO.N,Net-(U11D--)*%
X141175000Y-111000000D03*
%TD*%
D26*
%TO.P,R22,1*%
%TO.N,Net-(R21-Pad2)*%
X80725000Y-121500000D03*
%TO.P,R22,2*%
%TO.N,Net-(C24-Pad1)*%
X82275000Y-121500000D03*
%TD*%
D25*
%TO.P,R19,1*%
%TO.N,Net-(C20-Pad1)*%
X142825000Y-81000000D03*
%TO.P,R19,2*%
%TO.N,Net-(C19-Pad1)*%
X141175000Y-81000000D03*
%TD*%
D23*
%TO.P,C81,1*%
%TO.N,Net-(C81-Pad1)*%
X137500000Y-149775000D03*
%TO.P,C81,2*%
%TO.N,/sheet6197811F/GND_heater*%
X137500000Y-148225000D03*
%TD*%
%TO.P,R47,1*%
%TO.N,Net-(R46-Pad2)*%
X120000000Y-98775000D03*
%TO.P,R47,2*%
%TO.N,Net-(C50-Pad1)*%
X120000000Y-97225000D03*
%TD*%
D27*
%TO.P,C25,1*%
%TO.N,Net-(C25-Pad1)*%
X86000000Y-114725000D03*
%TO.P,C25,2*%
%TO.N,Net-(U6A--)*%
X86000000Y-111775000D03*
%TD*%
D28*
%TO.P,R89,1*%
%TO.N,Net-(C94-Pad1)*%
X81175000Y-76000000D03*
%TO.P,R89,2*%
%TO.N,Net-(C93-Pad1)*%
X82825000Y-76000000D03*
%TD*%
D25*
%TO.P,R20,1*%
%TO.N,Net-(C20-Pad1)*%
X142825000Y-79500000D03*
%TO.P,R20,2*%
%TO.N,Net-(U1D--)*%
X141175000Y-79500000D03*
%TD*%
D29*
%TO.P,C14,1*%
%TO.N,Net-(C14-Pad1)*%
X138000000Y-73775000D03*
%TO.P,C14,2*%
%TO.N,Net-(U1C--)*%
X138000000Y-76725000D03*
%TD*%
D28*
%TO.P,R84,1*%
%TO.N,Net-(C89-Pad1)*%
X81175000Y-81000000D03*
%TO.P,R84,2*%
%TO.N,Net-(C88-Pad1)*%
X82825000Y-81000000D03*
%TD*%
D30*
%TO.P,R72,1*%
%TO.N,Net-(R71-Pad2)*%
X137775000Y-131000000D03*
%TO.P,R72,2*%
%TO.N,Net-(C76-Pad1)*%
X136225000Y-131000000D03*
%TD*%
D25*
%TO.P,R63,1*%
%TO.N,Net-(U16A-+)*%
X130325000Y-149000000D03*
%TO.P,R63,2*%
%TO.N,Net-(R61-Pad2)*%
X128675000Y-149000000D03*
%TD*%
D29*
%TO.P,C98,1*%
%TO.N,Net-(C98-Pad1)*%
X98000000Y-73775000D03*
%TO.P,C98,2*%
%TO.N,Net-(U21C--)*%
X98000000Y-76725000D03*
%TD*%
D27*
%TO.P,C15,1*%
%TO.N,Net-(C15-Pad1)*%
X154500000Y-101725000D03*
%TO.P,C15,2*%
%TO.N,Net-(C15-Pad2)*%
X154500000Y-98775000D03*
%TD*%
D26*
%TO.P,R2,1*%
%TO.N,Net-(R1-Pad2)*%
X120725000Y-90000000D03*
%TO.P,R2,2*%
%TO.N,Net-(C3-Pad1)*%
X122275000Y-90000000D03*
%TD*%
D27*
%TO.P,C52,1*%
%TO.N,Net-(C52-Pad1)*%
X154500000Y-114725000D03*
%TO.P,C52,2*%
%TO.N,Net-(C52-Pad2)*%
X154500000Y-111775000D03*
%TD*%
D26*
%TO.P,C97,1*%
%TO.N,Net-(C97-Pad1)*%
X96225000Y-66500000D03*
%TO.P,C97,2*%
%TO.N,/sheet6197BEAD/GND_heater*%
X97775000Y-66500000D03*
%TD*%
D28*
%TO.P,R98,1*%
%TO.N,Net-(U21D-+)*%
X93675000Y-86000000D03*
%TO.P,R98,2*%
%TO.N,Net-(R96-Pad2)*%
X95325000Y-86000000D03*
%TD*%
D32*
%TO.P,R66,1*%
%TO.N,/Reference Block 1/V_pos*%
X113000000Y-139950000D03*
%TO.P,R66,2*%
%TO.N,Net-(R66-Pad2)*%
X113000000Y-138050000D03*
%TD*%
D26*
%TO.P,C45,1*%
%TO.N,Net-(C45-Pad1)*%
X124225000Y-121500000D03*
%TO.P,C45,2*%
%TO.N,/sheet61977B89/GND_heater*%
X125775000Y-121500000D03*
%TD*%
D23*
%TO.P,C54,1*%
%TO.N,/Reference Block 1/V_heater_pos*%
X125750000Y-118025000D03*
%TO.P,C54,2*%
%TO.N,/sheet61977B89/GND_heater*%
X125750000Y-116475000D03*
%TD*%
D27*
%TO.P,C53,1*%
%TO.N,/D12+*%
X171500000Y-114725000D03*
%TO.P,C53,2*%
%TO.N,/D12-*%
X171500000Y-111775000D03*
%TD*%
%TO.P,C88,1*%
%TO.N,Net-(C88-Pad1)*%
X86000000Y-83225000D03*
%TO.P,C88,2*%
%TO.N,Net-(U21A--)*%
X86000000Y-80275000D03*
%TD*%
%TO.P,C36,1*%
%TO.N,Net-(C36-Pad1)*%
X154500000Y-108225000D03*
%TO.P,C36,2*%
%TO.N,Net-(C36-Pad2)*%
X154500000Y-105275000D03*
%TD*%
D25*
%TO.P,R43,1*%
%TO.N,Net-(U11A-+)*%
X130325000Y-117500000D03*
%TO.P,R43,2*%
%TO.N,Net-(R41-Pad2)*%
X128675000Y-117500000D03*
%TD*%
D30*
%TO.P,C22,1*%
%TO.N,/Reference Block 1/V_heater_pos*%
X86525000Y-110000000D03*
%TO.P,C22,2*%
%TO.N,GND*%
X84975000Y-110000000D03*
%TD*%
D23*
%TO.P,R7,1*%
%TO.N,Net-(R6-Pad2)*%
X120000000Y-67275000D03*
%TO.P,R7,2*%
%TO.N,Net-(C8-Pad1)*%
X120000000Y-65725000D03*
%TD*%
D31*
%TO.P,C7,1*%
%TO.N,/Reference Block 1/V_heater_pos*%
X124798008Y-69048008D03*
%TO.P,C7,2*%
%TO.N,/Reference Block 1/GND_heater*%
X123701992Y-67951992D03*
%TD*%
D27*
%TO.P,C67,1*%
%TO.N,Net-(C67-Pad1)*%
X126000000Y-146225000D03*
%TO.P,C67,2*%
%TO.N,Net-(U16A--)*%
X126000000Y-143275000D03*
%TD*%
D29*
%TO.P,C51,1*%
%TO.N,Net-(C51-Pad1)*%
X126000000Y-105275000D03*
%TO.P,C51,2*%
%TO.N,Net-(U11B--)*%
X126000000Y-108225000D03*
%TD*%
D25*
%TO.P,R3,1*%
%TO.N,Net-(U1A-+)*%
X130325000Y-86000000D03*
%TO.P,R3,2*%
%TO.N,Net-(R1-Pad2)*%
X128675000Y-86000000D03*
%TD*%
%TO.P,R100,1*%
%TO.N,Net-(C104-Pad1)*%
X102825000Y-79500000D03*
%TO.P,R100,2*%
%TO.N,Net-(U21D--)*%
X101175000Y-79500000D03*
%TD*%
D28*
%TO.P,R58,1*%
%TO.N,Net-(U11D-+)*%
X133675000Y-117500000D03*
%TO.P,R58,2*%
%TO.N,Net-(R56-Pad2)*%
X135325000Y-117500000D03*
%TD*%
D29*
%TO.P,C56,1*%
%TO.N,Net-(C56-Pad1)*%
X138000000Y-105275000D03*
%TO.P,C56,2*%
%TO.N,Net-(U11C--)*%
X138000000Y-108225000D03*
%TD*%
D25*
%TO.P,R55,1*%
%TO.N,Net-(C57-Pad1)*%
X142825000Y-109000000D03*
%TO.P,R55,2*%
%TO.N,Net-(U11C--)*%
X141175000Y-109000000D03*
%TD*%
D31*
%TO.P,C91,1*%
%TO.N,/Reference Block 1/V_heater_pos*%
X104798008Y-84048008D03*
%TO.P,C91,2*%
%TO.N,/sheet6197BEAD/GND_heater*%
X103701992Y-82951992D03*
%TD*%
D30*
%TO.P,R92,1*%
%TO.N,Net-(R91-Pad2)*%
X97775000Y-68000000D03*
%TO.P,R92,2*%
%TO.N,Net-(C97-Pad1)*%
X96225000Y-68000000D03*
%TD*%
D23*
%TO.P,R67,1*%
%TO.N,Net-(R66-Pad2)*%
X120000000Y-130275000D03*
%TO.P,R67,2*%
%TO.N,Net-(C71-Pad1)*%
X120000000Y-128725000D03*
%TD*%
D28*
%TO.P,R64,1*%
%TO.N,Net-(C68-Pad1)*%
X121175000Y-144000000D03*
%TO.P,R64,2*%
%TO.N,Net-(C67-Pad1)*%
X122825000Y-144000000D03*
%TD*%
D30*
%TO.P,R77,1*%
%TO.N,Net-(R76-Pad2)*%
X140275000Y-153000000D03*
%TO.P,R77,2*%
%TO.N,Net-(C81-Pad1)*%
X138725000Y-153000000D03*
%TD*%
D29*
%TO.P,C35,1*%
%TO.N,Net-(C35-Pad1)*%
X98000000Y-105275000D03*
%TO.P,C35,2*%
%TO.N,Net-(U6C--)*%
X98000000Y-108225000D03*
%TD*%
D31*
%TO.P,C65,1*%
%TO.N,/Reference Block 1/V_heater_pos*%
X144798008Y-132048008D03*
%TO.P,C65,2*%
%TO.N,/sheet6197811F/GND_heater*%
X143701992Y-130951992D03*
%TD*%
D25*
%TO.P,R54,1*%
%TO.N,Net-(C57-Pad1)*%
X142825000Y-107500000D03*
%TO.P,R54,2*%
%TO.N,Net-(C56-Pad1)*%
X141175000Y-107500000D03*
%TD*%
D30*
%TO.P,C64,1*%
%TO.N,/Reference Block 1/V_heater_pos*%
X126525000Y-141500000D03*
%TO.P,C64,2*%
%TO.N,GND*%
X124975000Y-141500000D03*
%TD*%
D23*
%TO.P,C33,1*%
%TO.N,/Reference Block 1/V_heater_pos*%
X85750000Y-118025000D03*
%TO.P,C33,2*%
%TO.N,/sheet61977749/GND_heater*%
X85750000Y-116475000D03*
%TD*%
D28*
%TO.P,R45,1*%
%TO.N,Net-(C47-Pad1)*%
X121175000Y-111000000D03*
%TO.P,R45,2*%
%TO.N,Net-(U11A--)*%
X122825000Y-111000000D03*
%TD*%
D25*
%TO.P,R40,1*%
%TO.N,Net-(C41-Pad1)*%
X102825000Y-111000000D03*
%TO.P,R40,2*%
%TO.N,Net-(U6D--)*%
X101175000Y-111000000D03*
%TD*%
D24*
%TO.P,L3,1,1*%
%TO.N,Net-(C15-Pad1)*%
X159275000Y-101500000D03*
%TO.P,L3,2,2*%
%TO.N,/D8+*%
X166725000Y-101500000D03*
%TO.P,L3,3,3*%
%TO.N,Net-(C15-Pad2)*%
X159275000Y-99000000D03*
%TO.P,L3,4,4*%
%TO.N,/D8-*%
X166725000Y-99000000D03*
%TD*%
D27*
%TO.P,C57,1*%
%TO.N,Net-(C57-Pad1)*%
X154500000Y-121225000D03*
%TO.P,C57,2*%
%TO.N,Net-(C57-Pad2)*%
X154500000Y-118275000D03*
%TD*%
D28*
%TO.P,R73,1*%
%TO.N,Net-(U16C-+)*%
X133675000Y-134000000D03*
%TO.P,R73,2*%
%TO.N,Net-(R71-Pad2)*%
X135325000Y-134000000D03*
%TD*%
%TO.P,R9,1*%
%TO.N,Net-(C10-Pad1)*%
X121175000Y-76000000D03*
%TO.P,R9,2*%
%TO.N,Net-(C9-Pad1)*%
X122825000Y-76000000D03*
%TD*%
%TO.P,R33,1*%
%TO.N,Net-(U6C-+)*%
X93675000Y-102500000D03*
%TO.P,R33,2*%
%TO.N,Net-(R31-Pad2)*%
X95325000Y-102500000D03*
%TD*%
D27*
%TO.P,C103,1*%
%TO.N,Net-(C103-Pad1)*%
X98000000Y-83225000D03*
%TO.P,C103,2*%
%TO.N,Net-(U21D--)*%
X98000000Y-80275000D03*
%TD*%
D29*
%TO.P,C30,1*%
%TO.N,Net-(C30-Pad1)*%
X86000000Y-105275000D03*
%TO.P,C30,2*%
%TO.N,Net-(U6B--)*%
X86000000Y-108225000D03*
%TD*%
D28*
%TO.P,R25,1*%
%TO.N,Net-(C26-Pad1)*%
X81175000Y-111000000D03*
%TO.P,R25,2*%
%TO.N,Net-(U6A--)*%
X82825000Y-111000000D03*
%TD*%
D23*
%TO.P,C102,1*%
%TO.N,Net-(C102-Pad1)*%
X97500000Y-86775000D03*
%TO.P,C102,2*%
%TO.N,/sheet6197BEAD/GND_heater*%
X97500000Y-85225000D03*
%TD*%
%TO.P,C39,1*%
%TO.N,Net-(C39-Pad1)*%
X97500000Y-118275000D03*
%TO.P,C39,2*%
%TO.N,/sheet61977749/GND_heater*%
X97500000Y-116725000D03*
%TD*%
%TO.P,C96,1*%
%TO.N,/Reference Block 1/V_heater_pos*%
X85750000Y-86525000D03*
%TO.P,C96,2*%
%TO.N,/sheet6197BEAD/GND_heater*%
X85750000Y-84975000D03*
%TD*%
D24*
%TO.P,L11,1,1*%
%TO.N,Net-(C57-Pad1)*%
X159275000Y-121000000D03*
%TO.P,L11,2,2*%
%TO.N,/D14+*%
X166725000Y-121000000D03*
%TO.P,L11,3,3*%
%TO.N,Net-(C57-Pad2)*%
X159275000Y-118500000D03*
%TO.P,L11,4,4*%
%TO.N,/D14-*%
X166725000Y-118500000D03*
%TD*%
D27*
%TO.P,C16,1*%
%TO.N,/D8+*%
X171500000Y-101725000D03*
%TO.P,C16,2*%
%TO.N,/D8-*%
X171500000Y-98775000D03*
%TD*%
D23*
%TO.P,C75,1*%
%TO.N,/Reference Block 1/V_heater_pos*%
X125750000Y-149525000D03*
%TO.P,C75,2*%
%TO.N,/sheet6197811F/GND_heater*%
X125750000Y-147975000D03*
%TD*%
D31*
%TO.P,C70,1*%
%TO.N,/Reference Block 1/V_heater_pos*%
X144798008Y-147048008D03*
%TO.P,C70,2*%
%TO.N,/sheet6197811F/GND_heater*%
X143701992Y-145951992D03*
%TD*%
D30*
%TO.P,C85,1*%
%TO.N,/Reference Block 1/V_heater_pos*%
X86525000Y-78500000D03*
%TO.P,C85,2*%
%TO.N,GND*%
X84975000Y-78500000D03*
%TD*%
D27*
%TO.P,C61,1*%
%TO.N,Net-(C61-Pad1)*%
X138000000Y-114725000D03*
%TO.P,C61,2*%
%TO.N,Net-(U11D--)*%
X138000000Y-111775000D03*
%TD*%
D25*
%TO.P,R28,1*%
%TO.N,Net-(U6B-+)*%
X90325000Y-102500000D03*
%TO.P,R28,2*%
%TO.N,Net-(R26-Pad2)*%
X88675000Y-102500000D03*
%TD*%
D32*
%TO.P,R86,1*%
%TO.N,/Reference Block 1/V_pos*%
X73000000Y-76950000D03*
%TO.P,R86,2*%
%TO.N,Net-(R86-Pad2)*%
X73000000Y-75050000D03*
%TD*%
D31*
%TO.P,C86,1*%
%TO.N,/Reference Block 1/V_heater_pos*%
X104798008Y-69048008D03*
%TO.P,C86,2*%
%TO.N,/sheet6197BEAD/GND_heater*%
X103701992Y-67951992D03*
%TD*%
D25*
%TO.P,R35,1*%
%TO.N,Net-(C36-Pad1)*%
X102825000Y-109000000D03*
%TO.P,R35,2*%
%TO.N,Net-(U6C--)*%
X101175000Y-109000000D03*
%TD*%
D28*
%TO.P,R44,1*%
%TO.N,Net-(C47-Pad1)*%
X121175000Y-112500000D03*
%TO.P,R44,2*%
%TO.N,Net-(C46-Pad1)*%
X122825000Y-112500000D03*
%TD*%
%TO.P,R50,1*%
%TO.N,Net-(C52-Pad1)*%
X121175000Y-109000000D03*
%TO.P,R50,2*%
%TO.N,Net-(U11B--)*%
X122825000Y-109000000D03*
%TD*%
%TO.P,R13,1*%
%TO.N,Net-(U1C-+)*%
X133675000Y-71000000D03*
%TO.P,R13,2*%
%TO.N,Net-(R11-Pad2)*%
X135325000Y-71000000D03*
%TD*%
D22*
%TO.P,NT25,1,1*%
%TO.N,Net-(#FLG0107-pwr)*%
X132500000Y-78000000D03*
%TO.P,NT25,2,2*%
%TO.N,/Reference Block 1/GND_heater*%
X131500000Y-78000000D03*
%TO.P,NT25,3,3*%
%TO.N,/Reference Block 1/GND_zener*%
X132500000Y-79000000D03*
%TO.P,NT25,4,4*%
%TO.N,GND*%
X131500000Y-79000000D03*
%TD*%
D32*
%TO.P,R26,1*%
%TO.N,/Reference Block 1/V_pos*%
X73000000Y-108450000D03*
%TO.P,R26,2*%
%TO.N,Net-(R26-Pad2)*%
X73000000Y-106550000D03*
%TD*%
D25*
%TO.P,R80,1*%
%TO.N,Net-(C83-Pad1)*%
X142825000Y-142500000D03*
%TO.P,R80,2*%
%TO.N,Net-(U16D--)*%
X141175000Y-142500000D03*
%TD*%
%TO.P,R79,1*%
%TO.N,Net-(C83-Pad1)*%
X142825000Y-144000000D03*
%TO.P,R79,2*%
%TO.N,Net-(C82-Pad1)*%
X141175000Y-144000000D03*
%TD*%
%TO.P,R68,1*%
%TO.N,Net-(U16B-+)*%
X130325000Y-134000000D03*
%TO.P,R68,2*%
%TO.N,Net-(R66-Pad2)*%
X128675000Y-134000000D03*
%TD*%
D27*
%TO.P,C79,1*%
%TO.N,/D16+*%
X171500000Y-127725000D03*
%TO.P,C79,2*%
%TO.N,/D16-*%
X171500000Y-124775000D03*
%TD*%
%TO.P,C37,1*%
%TO.N,/D10+*%
X171500000Y-108225000D03*
%TO.P,C37,2*%
%TO.N,/D10-*%
X171500000Y-105275000D03*
%TD*%
D26*
%TO.P,C87,1*%
%TO.N,Net-(C87-Pad1)*%
X84225000Y-90000000D03*
%TO.P,C87,2*%
%TO.N,/sheet6197BEAD/GND_heater*%
X85775000Y-90000000D03*
%TD*%
D30*
%TO.P,R97,1*%
%TO.N,Net-(R96-Pad2)*%
X100275000Y-90000000D03*
%TO.P,R97,2*%
%TO.N,Net-(C102-Pad1)*%
X98725000Y-90000000D03*
%TD*%
D26*
%TO.P,C24,1*%
%TO.N,Net-(C24-Pad1)*%
X84225000Y-121500000D03*
%TO.P,C24,2*%
%TO.N,/sheet61977749/GND_heater*%
X85775000Y-121500000D03*
%TD*%
D23*
%TO.P,C60,1*%
%TO.N,Net-(C60-Pad1)*%
X137500000Y-118275000D03*
%TO.P,C60,2*%
%TO.N,/sheet61977B89/GND_heater*%
X137500000Y-116725000D03*
%TD*%
D33*
%TO.P,U1,1*%
%TO.N,Net-(C4-Pad1)*%
X129525000Y-82310000D03*
%TO.P,U1,2,-*%
%TO.N,Net-(U1A--)*%
X129525000Y-81040000D03*
%TO.P,U1,3,+*%
%TO.N,Net-(U1A-+)*%
X129525000Y-79770000D03*
%TO.P,U1,4,V+*%
%TO.N,/Reference Block 1/V_heater_pos*%
X129525000Y-78500000D03*
%TO.P,U1,5,+*%
%TO.N,Net-(U1B-+)*%
X129525000Y-77230000D03*
%TO.P,U1,6,-*%
%TO.N,Net-(U1B--)*%
X129525000Y-75960000D03*
%TO.P,U1,7*%
%TO.N,Net-(C9-Pad1)*%
X129525000Y-74690000D03*
%TO.P,U1,8*%
%TO.N,Net-(C14-Pad1)*%
X134475000Y-74690000D03*
%TO.P,U1,9,-*%
%TO.N,Net-(U1C--)*%
X134475000Y-75960000D03*
%TO.P,U1,10,+*%
%TO.N,Net-(U1C-+)*%
X134475000Y-77230000D03*
%TO.P,U1,11,V-*%
%TO.N,Net-(#FLG0107-pwr)*%
X134475000Y-78500000D03*
%TO.P,U1,12,+*%
%TO.N,Net-(U1D-+)*%
X134475000Y-79770000D03*
%TO.P,U1,13,-*%
%TO.N,Net-(U1D--)*%
X134475000Y-81040000D03*
%TO.P,U1,14*%
%TO.N,Net-(C19-Pad1)*%
X134475000Y-82310000D03*
%TD*%
D31*
%TO.P,C59,1*%
%TO.N,/Reference Block 1/V_heater_pos*%
X124798008Y-100548008D03*
%TO.P,C59,2*%
%TO.N,/sheet61977B89/GND_heater*%
X123701992Y-99451992D03*
%TD*%
D21*
%TO.P,NT19,1,1*%
%TO.N,/Reference Block 1/GND_zener*%
X143000000Y-72300000D03*
%TO.P,NT19,2,2*%
%TO.N,Net-(C15-Pad2)*%
X143500000Y-72300000D03*
%TD*%
D26*
%TO.P,C3,1*%
%TO.N,Net-(C3-Pad1)*%
X124225000Y-90000000D03*
%TO.P,C3,2*%
%TO.N,/Reference Block 1/GND_heater*%
X125775000Y-90000000D03*
%TD*%
D28*
%TO.P,R10,1*%
%TO.N,Net-(C10-Pad1)*%
X121175000Y-77500000D03*
%TO.P,R10,2*%
%TO.N,Net-(U1B--)*%
X122825000Y-77500000D03*
%TD*%
D30*
%TO.P,R52,1*%
%TO.N,Net-(R51-Pad2)*%
X137775000Y-99500000D03*
%TO.P,R52,2*%
%TO.N,Net-(C55-Pad1)*%
X136225000Y-99500000D03*
%TD*%
D31*
%TO.P,C44,1*%
%TO.N,/Reference Block 1/V_heater_pos*%
X144798008Y-100548008D03*
%TO.P,C44,2*%
%TO.N,/sheet61977B89/GND_heater*%
X143701992Y-99451992D03*
%TD*%
D21*
%TO.P,NT7,1,1*%
%TO.N,/sheet6197811F/GND_zener*%
X143000000Y-135300000D03*
%TO.P,NT7,2,2*%
%TO.N,Net-(C78-Pad2)*%
X143500000Y-135300000D03*
%TD*%
D25*
%TO.P,R94,1*%
%TO.N,Net-(C99-Pad1)*%
X102825000Y-76000000D03*
%TO.P,R94,2*%
%TO.N,Net-(C98-Pad1)*%
X101175000Y-76000000D03*
%TD*%
D27*
%TO.P,C40,1*%
%TO.N,Net-(C40-Pad1)*%
X98000000Y-114725000D03*
%TO.P,C40,2*%
%TO.N,Net-(U6D--)*%
X98000000Y-111775000D03*
%TD*%
D29*
%TO.P,C77,1*%
%TO.N,Net-(C77-Pad1)*%
X137750000Y-136775000D03*
%TO.P,C77,2*%
%TO.N,Net-(U16C--)*%
X137750000Y-139725000D03*
%TD*%
D25*
%TO.P,R74,1*%
%TO.N,Net-(C78-Pad1)*%
X142825000Y-139000000D03*
%TO.P,R74,2*%
%TO.N,Net-(C77-Pad1)*%
X141175000Y-139000000D03*
%TD*%
D30*
%TO.P,R17,1*%
%TO.N,Net-(R16-Pad2)*%
X140275000Y-90000000D03*
%TO.P,R17,2*%
%TO.N,Net-(C18-Pad1)*%
X138725000Y-90000000D03*
%TD*%
D25*
%TO.P,R15,1*%
%TO.N,Net-(C15-Pad1)*%
X142825000Y-77500000D03*
%TO.P,R15,2*%
%TO.N,Net-(U1C--)*%
X141175000Y-77500000D03*
%TD*%
%TO.P,R14,1*%
%TO.N,Net-(C15-Pad1)*%
X142825000Y-76000000D03*
%TO.P,R14,2*%
%TO.N,Net-(C14-Pad1)*%
X141175000Y-76000000D03*
%TD*%
%TO.P,R59,1*%
%TO.N,Net-(C62-Pad1)*%
X142825000Y-112500000D03*
%TO.P,R59,2*%
%TO.N,Net-(C61-Pad1)*%
X141175000Y-112500000D03*
%TD*%
D28*
%TO.P,R53,1*%
%TO.N,Net-(U11C-+)*%
X133675000Y-102500000D03*
%TO.P,R53,2*%
%TO.N,Net-(R51-Pad2)*%
X135325000Y-102500000D03*
%TD*%
%TO.P,R70,1*%
%TO.N,Net-(C73-Pad1)*%
X121175000Y-140500000D03*
%TO.P,R70,2*%
%TO.N,Net-(U16B--)*%
X122825000Y-140500000D03*
%TD*%
D22*
%TO.P,NT24,1,1*%
%TO.N,Net-(#FLG0106-pwr)*%
X92500000Y-109500000D03*
%TO.P,NT24,2,2*%
%TO.N,/sheet61977749/GND_heater*%
X91500000Y-109500000D03*
%TO.P,NT24,3,3*%
%TO.N,/sheet61977749/GND_zener*%
X92500000Y-110500000D03*
%TO.P,NT24,4,4*%
%TO.N,GND*%
X91500000Y-110500000D03*
%TD*%
%TO.P,NT23,1,1*%
%TO.N,Net-(#FLG0105-pwr)*%
X92500000Y-78000000D03*
%TO.P,NT23,2,2*%
%TO.N,/sheet6197BEAD/GND_heater*%
X91500000Y-78000000D03*
%TO.P,NT23,3,3*%
%TO.N,/sheet6197BEAD/GND_zener*%
X92500000Y-79000000D03*
%TO.P,NT23,4,4*%
%TO.N,GND*%
X91500000Y-79000000D03*
%TD*%
D28*
%TO.P,R38,1*%
%TO.N,Net-(U6D-+)*%
X93675000Y-117500000D03*
%TO.P,R38,2*%
%TO.N,Net-(R36-Pad2)*%
X95325000Y-117500000D03*
%TD*%
%TO.P,R78,1*%
%TO.N,Net-(U16D-+)*%
X133675000Y-149000000D03*
%TO.P,R78,2*%
%TO.N,Net-(R76-Pad2)*%
X135325000Y-149000000D03*
%TD*%
D31*
%TO.P,C17,1*%
%TO.N,/Reference Block 1/V_heater_pos*%
X144798008Y-84048008D03*
%TO.P,C17,2*%
%TO.N,/Reference Block 1/GND_heater*%
X143701992Y-82951992D03*
%TD*%
D25*
%TO.P,R48,1*%
%TO.N,Net-(U11B-+)*%
X130325000Y-102500000D03*
%TO.P,R48,2*%
%TO.N,Net-(R46-Pad2)*%
X128675000Y-102500000D03*
%TD*%
D27*
%TO.P,C4,1*%
%TO.N,Net-(C4-Pad1)*%
X126000000Y-83225000D03*
%TO.P,C4,2*%
%TO.N,Net-(U1A--)*%
X126000000Y-80275000D03*
%TD*%
D33*
%TO.P,U11,1*%
%TO.N,Net-(C46-Pad1)*%
X129525000Y-113810000D03*
%TO.P,U11,2,-*%
%TO.N,Net-(U11A--)*%
X129525000Y-112540000D03*
%TO.P,U11,3,+*%
%TO.N,Net-(U11A-+)*%
X129525000Y-111270000D03*
%TO.P,U11,4,V+*%
%TO.N,/Reference Block 1/V_heater_pos*%
X129525000Y-110000000D03*
%TO.P,U11,5,+*%
%TO.N,Net-(U11B-+)*%
X129525000Y-108730000D03*
%TO.P,U11,6,-*%
%TO.N,Net-(U11B--)*%
X129525000Y-107460000D03*
%TO.P,U11,7*%
%TO.N,Net-(C51-Pad1)*%
X129525000Y-106190000D03*
%TO.P,U11,8*%
%TO.N,Net-(C56-Pad1)*%
X134475000Y-106190000D03*
%TO.P,U11,9,-*%
%TO.N,Net-(U11C--)*%
X134475000Y-107460000D03*
%TO.P,U11,10,+*%
%TO.N,Net-(U11C-+)*%
X134475000Y-108730000D03*
%TO.P,U11,11,V-*%
%TO.N,Net-(#FLG0103-pwr)*%
X134475000Y-110000000D03*
%TO.P,U11,12,+*%
%TO.N,Net-(U11D-+)*%
X134475000Y-111270000D03*
%TO.P,U11,13,-*%
%TO.N,Net-(U11D--)*%
X134475000Y-112540000D03*
%TO.P,U11,14*%
%TO.N,Net-(C61-Pad1)*%
X134475000Y-113810000D03*
%TD*%
%TO.P,U21,1*%
%TO.N,Net-(C88-Pad1)*%
X89525000Y-82310000D03*
%TO.P,U21,2,-*%
%TO.N,Net-(U21A--)*%
X89525000Y-81040000D03*
%TO.P,U21,3,+*%
%TO.N,Net-(U21A-+)*%
X89525000Y-79770000D03*
%TO.P,U21,4,V+*%
%TO.N,/Reference Block 1/V_heater_pos*%
X89525000Y-78500000D03*
%TO.P,U21,5,+*%
%TO.N,Net-(U21B-+)*%
X89525000Y-77230000D03*
%TO.P,U21,6,-*%
%TO.N,Net-(U21B--)*%
X89525000Y-75960000D03*
%TO.P,U21,7*%
%TO.N,Net-(C93-Pad1)*%
X89525000Y-74690000D03*
%TO.P,U21,8*%
%TO.N,Net-(C98-Pad1)*%
X94475000Y-74690000D03*
%TO.P,U21,9,-*%
%TO.N,Net-(U21C--)*%
X94475000Y-75960000D03*
%TO.P,U21,10,+*%
%TO.N,Net-(U21C-+)*%
X94475000Y-77230000D03*
%TO.P,U21,11,V-*%
%TO.N,Net-(#FLG0105-pwr)*%
X94475000Y-78500000D03*
%TO.P,U21,12,+*%
%TO.N,Net-(U21D-+)*%
X94475000Y-79770000D03*
%TO.P,U21,13,-*%
%TO.N,Net-(U21D--)*%
X94475000Y-81040000D03*
%TO.P,U21,14*%
%TO.N,Net-(C103-Pad1)*%
X94475000Y-82310000D03*
%TD*%
%TO.P,U6,1*%
%TO.N,Net-(C25-Pad1)*%
X89525000Y-113810000D03*
%TO.P,U6,2,-*%
%TO.N,Net-(U6A--)*%
X89525000Y-112540000D03*
%TO.P,U6,3,+*%
%TO.N,Net-(U6A-+)*%
X89525000Y-111270000D03*
%TO.P,U6,4,V+*%
%TO.N,/Reference Block 1/V_heater_pos*%
X89525000Y-110000000D03*
%TO.P,U6,5,+*%
%TO.N,Net-(U6B-+)*%
X89525000Y-108730000D03*
%TO.P,U6,6,-*%
%TO.N,Net-(U6B--)*%
X89525000Y-107460000D03*
%TO.P,U6,7*%
%TO.N,Net-(C30-Pad1)*%
X89525000Y-106190000D03*
%TO.P,U6,8*%
%TO.N,Net-(C35-Pad1)*%
X94475000Y-106190000D03*
%TO.P,U6,9,-*%
%TO.N,Net-(U6C--)*%
X94475000Y-107460000D03*
%TO.P,U6,10,+*%
%TO.N,Net-(U6C-+)*%
X94475000Y-108730000D03*
%TO.P,U6,11,V-*%
%TO.N,Net-(#FLG0106-pwr)*%
X94475000Y-110000000D03*
%TO.P,U6,12,+*%
%TO.N,Net-(U6D-+)*%
X94475000Y-111270000D03*
%TO.P,U6,13,-*%
%TO.N,Net-(U6D--)*%
X94475000Y-112540000D03*
%TO.P,U6,14*%
%TO.N,Net-(C40-Pad1)*%
X94475000Y-113810000D03*
%TD*%
%TO.P,U16,1*%
%TO.N,Net-(C67-Pad1)*%
X129525000Y-145310000D03*
%TO.P,U16,2,-*%
%TO.N,Net-(U16A--)*%
X129525000Y-144040000D03*
%TO.P,U16,3,+*%
%TO.N,Net-(U16A-+)*%
X129525000Y-142770000D03*
%TO.P,U16,4,V+*%
%TO.N,/Reference Block 1/V_heater_pos*%
X129525000Y-141500000D03*
%TO.P,U16,5,+*%
%TO.N,Net-(U16B-+)*%
X129525000Y-140230000D03*
%TO.P,U16,6,-*%
%TO.N,Net-(U16B--)*%
X129525000Y-138960000D03*
%TO.P,U16,7*%
%TO.N,Net-(C72-Pad1)*%
X129525000Y-137690000D03*
%TO.P,U16,8*%
%TO.N,Net-(C77-Pad1)*%
X134475000Y-137690000D03*
%TO.P,U16,9,-*%
%TO.N,Net-(U16C--)*%
X134475000Y-138960000D03*
%TO.P,U16,10,+*%
%TO.N,Net-(U16C-+)*%
X134475000Y-140230000D03*
%TO.P,U16,11,V-*%
%TO.N,Net-(#FLG0104-pwr)*%
X134475000Y-141500000D03*
%TO.P,U16,12,+*%
%TO.N,Net-(U16D-+)*%
X134475000Y-142770000D03*
%TO.P,U16,13,-*%
%TO.N,Net-(U16D--)*%
X134475000Y-144040000D03*
%TO.P,U16,14*%
%TO.N,Net-(C82-Pad1)*%
X134475000Y-145310000D03*
%TD*%
D34*
%TO.N,GND*%
X131500000Y-142000000D03*
X131500000Y-79000000D03*
X91500000Y-110500000D03*
X80100000Y-147900000D03*
X125600000Y-140900000D03*
X91500000Y-79000000D03*
X125600000Y-77900000D03*
X125600000Y-109400000D03*
X85600000Y-77900000D03*
X131500000Y-110500000D03*
X85600000Y-109400000D03*
%TO.N,/Reference Block 1/V_pos*%
X111700000Y-154950000D03*
X111700000Y-91950000D03*
X92000000Y-77200000D03*
X131700000Y-123450000D03*
X92000000Y-108700000D03*
X132000000Y-108700000D03*
X132000000Y-140200000D03*
X71700000Y-108450000D03*
X132000000Y-77200000D03*
X111700000Y-108450000D03*
X71700000Y-91950000D03*
X131700000Y-154950000D03*
X91700000Y-123450000D03*
X131700000Y-91950000D03*
X111700000Y-123450000D03*
X111700000Y-76950000D03*
X71700000Y-76950000D03*
X91700000Y-91950000D03*
X71700000Y-123450000D03*
X111700000Y-139950000D03*
%TO.N,Net-(C5-Pad1)*%
X121175000Y-82000000D03*
%TO.N,/D1-*%
X173075000Y-69225000D03*
%TO.N,Net-(C10-Pad1)*%
X121175000Y-74900000D03*
%TO.N,/D2-*%
X173225000Y-75725000D03*
%TO.N,/D3-*%
X173075000Y-82225000D03*
%TO.N,Net-(C20-Pad1)*%
X144000000Y-79500000D03*
%TO.N,/D4-*%
X173100000Y-88700000D03*
%TO.N,Net-(C26-Pad1)*%
X81175000Y-113500000D03*
%TO.N,/D5-*%
X176400000Y-96400000D03*
%TO.N,Net-(C31-Pad1)*%
X79900000Y-105400000D03*
%TO.N,/D6+*%
X174300000Y-95225000D03*
%TO.N,/D7-*%
X178500000Y-101720000D03*
%TO.N,Net-(C41-Pad1)*%
X104000000Y-112500000D03*
%TO.N,/D8+*%
X174200000Y-100500000D03*
%TO.N,Net-(C47-Pad1)*%
X121400000Y-113500000D03*
%TO.N,/D9-*%
X175000000Y-106200000D03*
%TO.N,/D10+*%
X174000000Y-108225000D03*
%TO.N,/D11-*%
X177000000Y-110900000D03*
%TO.N,Net-(C62-Pad1)*%
X143800000Y-112500000D03*
%TO.N,/D12+*%
X174800000Y-114200000D03*
%TO.N,Net-(C68-Pad1)*%
X121175000Y-145000000D03*
%TO.N,/D13-*%
X175600000Y-116900000D03*
%TO.N,Net-(C73-Pad1)*%
X121175000Y-138000000D03*
%TO.N,/D14+*%
X174700000Y-121200000D03*
%TO.N,/D15-*%
X178100000Y-118000000D03*
%TO.N,Net-(C83-Pad1)*%
X143800000Y-144000000D03*
%TO.N,/D16+*%
X173800000Y-126700000D03*
%TO.N,Net-(C89-Pad1)*%
X81200000Y-82000000D03*
%TO.N,/D17-*%
X173375000Y-134225000D03*
%TO.N,Net-(C94-Pad1)*%
X79900000Y-73900000D03*
%TO.N,/D18-*%
X176600000Y-124000000D03*
%TO.N,/D19-*%
X177500000Y-125200000D03*
%TO.N,Net-(C104-Pad1)*%
X104250000Y-81000000D03*
%TO.N,Net-(J2-Pad16)*%
X109400000Y-102400000D03*
%TO.N,Net-(J2-Pad15)*%
X109400000Y-103600000D03*
%TO.N,/Reference Block 1/V_heater_pos*%
X125900000Y-142100000D03*
X125900000Y-79100000D03*
X125900000Y-110600000D03*
X85900000Y-79100000D03*
X85900000Y-110600000D03*
%TO.N,Net-(C52-Pad2)*%
X117100000Y-103500000D03*
%TO.N,/Reference Block 1/GND_heater*%
X127375000Y-84275000D03*
X131500000Y-78000000D03*
%TO.N,/sheet61977749/GND_heater*%
X91500000Y-109500000D03*
X87375000Y-115775000D03*
%TO.N,/sheet61977B89/GND_heater*%
X127375000Y-115775000D03*
X131500000Y-109500000D03*
%TO.N,/sheet6197811F/GND_heater*%
X127375000Y-147275000D03*
X131500000Y-141000000D03*
%TO.N,/sheet6197BEAD/GND_heater*%
X91500000Y-78000000D03*
X87325000Y-84325000D03*
%TO.N,/sheet61977B89/GND_zener*%
X132500000Y-110500000D03*
%TO.N,/sheet6197811F/GND_zener*%
X132500000Y-142000000D03*
%TO.N,/sheet6197BEAD/GND_zener*%
X92500000Y-79000000D03*
%TO.N,/sheet61977749/GND_zener*%
X92500000Y-110500000D03*
%TO.N,/Reference Block 1/GND_zener*%
X132500000Y-79000000D03*
%TD*%
D35*
%TO.N,GND*%
X124975000Y-110000000D02*
X125000000Y-110000000D01*
X125000000Y-141500000D02*
X125600000Y-140900000D01*
X124975000Y-141500000D02*
X125000000Y-141500000D01*
X85000000Y-110000000D02*
X85600000Y-109400000D01*
X124975000Y-78500000D02*
X125000000Y-78500000D01*
X84975000Y-110000000D02*
X85000000Y-110000000D01*
X85000000Y-78500000D02*
X85600000Y-77900000D01*
X84975000Y-78500000D02*
X85000000Y-78500000D01*
X125000000Y-110000000D02*
X125600000Y-109400000D01*
X125000000Y-78500000D02*
X125600000Y-77900000D01*
%TO.N,/Reference Block 1/V_pos*%
X113000000Y-76950000D02*
X111700000Y-76950000D01*
X73000000Y-108450000D02*
X71700000Y-108450000D01*
X113000000Y-139950000D02*
X111700000Y-139950000D01*
X73000000Y-76950000D02*
X71700000Y-76950000D01*
%TO.N,Net-(C3-Pad1)*%
X122275000Y-90000000D02*
X124225000Y-90000000D01*
%TO.N,Net-(U1A--)*%
X124375000Y-80275000D02*
X126000000Y-80275000D01*
X129525000Y-81040000D02*
X128040000Y-81040000D01*
X126000000Y-80275000D02*
X127275000Y-80275000D01*
X123600000Y-79500000D02*
X124375000Y-80275000D01*
X122825000Y-79500000D02*
X123600000Y-79500000D01*
X127275000Y-80275000D02*
X128040000Y-81040000D01*
%TO.N,Net-(C4-Pad1)*%
X123825000Y-83225000D02*
X126000000Y-83225000D01*
X126000000Y-83225000D02*
X127025000Y-83225000D01*
X122825000Y-81000000D02*
X122825000Y-82225000D01*
X127025000Y-83225000D02*
X127940000Y-82310000D01*
X122825000Y-82225000D02*
X123825000Y-83225000D01*
X129525000Y-82310000D02*
X127940000Y-82310000D01*
%TO.N,Net-(C5-Pad1)*%
X121175000Y-81000000D02*
X121175000Y-82000000D01*
X121175000Y-79500000D02*
X121175000Y-81000000D01*
%TO.N,/D1-*%
X179800000Y-72100000D02*
X179800000Y-89170000D01*
X173075000Y-69225000D02*
X176925000Y-69225000D01*
X176925000Y-69225000D02*
X179800000Y-72100000D01*
X179800000Y-89170000D02*
X181300000Y-90670000D01*
%TO.N,Net-(C8-Pad1)*%
X120875000Y-65725000D02*
X121100000Y-65500000D01*
X121100000Y-65500000D02*
X122225000Y-65500000D01*
X120000000Y-65725000D02*
X120875000Y-65725000D01*
%TO.N,Net-(U1B--)*%
X123500000Y-77500000D02*
X124275000Y-76725000D01*
X122825000Y-77500000D02*
X123500000Y-77500000D01*
X126000000Y-76725000D02*
X127525000Y-76725000D01*
X129525000Y-75960000D02*
X128290000Y-75960000D01*
X124275000Y-76725000D02*
X126000000Y-76725000D01*
X127525000Y-76725000D02*
X128290000Y-75960000D01*
%TO.N,Net-(C9-Pad1)*%
X126000000Y-73775000D02*
X127275000Y-73775000D01*
X122825000Y-76000000D02*
X122825000Y-74875000D01*
X128190000Y-74690000D02*
X129525000Y-74690000D01*
X123925000Y-73775000D02*
X126000000Y-73775000D01*
X122825000Y-74875000D02*
X123925000Y-73775000D01*
X127275000Y-73775000D02*
X128190000Y-74690000D01*
%TO.N,Net-(C10-Pad1)*%
X121175000Y-76000000D02*
X121175000Y-74900000D01*
X121175000Y-76000000D02*
X121175000Y-77500000D01*
%TO.N,/D2-*%
X175625000Y-75725000D02*
X179300000Y-79400000D01*
X180240000Y-92040000D02*
X179300000Y-91100000D01*
X173225000Y-75725000D02*
X175625000Y-75725000D01*
X179300000Y-79400000D02*
X179300000Y-91100000D01*
X184140000Y-92040000D02*
X180240000Y-92040000D01*
%TO.N,Net-(C13-Pad1)*%
X136225000Y-66500000D02*
X136225000Y-68000000D01*
%TO.N,Net-(U1C--)*%
X140000000Y-77500000D02*
X141175000Y-77500000D01*
X135960000Y-75960000D02*
X135710000Y-75960000D01*
X138000000Y-76725000D02*
X139225000Y-76725000D01*
X138000000Y-76725000D02*
X136725000Y-76725000D01*
X135710000Y-75960000D02*
X134475000Y-75960000D01*
X139225000Y-76725000D02*
X140000000Y-77500000D01*
X136725000Y-76725000D02*
X135960000Y-75960000D01*
%TO.N,Net-(C14-Pad1)*%
X134475000Y-74690000D02*
X135910000Y-74690000D01*
X140175000Y-73775000D02*
X141175000Y-74775000D01*
X138000000Y-73775000D02*
X140175000Y-73775000D01*
X135910000Y-74690000D02*
X136825000Y-73775000D01*
X141175000Y-76000000D02*
X141175000Y-74775000D01*
X136825000Y-73775000D02*
X138000000Y-73775000D01*
%TO.N,Net-(C15-Pad1)*%
X146100000Y-77500000D02*
X148700000Y-80100000D01*
X142825000Y-77500000D02*
X146100000Y-77500000D01*
X148700000Y-80100000D02*
X148700000Y-93200000D01*
X153025000Y-101725000D02*
X154500000Y-101725000D01*
X151700000Y-100400000D02*
X153025000Y-101725000D01*
X151700000Y-96200000D02*
X151700000Y-100400000D01*
X159275000Y-101500000D02*
X156750000Y-101500000D01*
X148700000Y-93200000D02*
X151700000Y-96200000D01*
X142825000Y-76000000D02*
X142825000Y-77500000D01*
X156525000Y-101725000D02*
X154500000Y-101725000D01*
X156750000Y-101500000D02*
X156525000Y-101725000D01*
%TO.N,/D3-*%
X178800000Y-93600000D02*
X180010000Y-94810000D01*
X186030000Y-90670000D02*
X186980000Y-90670000D01*
X185650000Y-92650000D02*
X185650000Y-91050000D01*
X184860000Y-93440000D02*
X185650000Y-92650000D01*
X178800000Y-84000000D02*
X178800000Y-93600000D01*
X173075000Y-82225000D02*
X177025000Y-82225000D01*
X177025000Y-82225000D02*
X178800000Y-84000000D01*
X180010000Y-94810000D02*
X182240000Y-94810000D01*
X185650000Y-91050000D02*
X186030000Y-90670000D01*
X183610000Y-93440000D02*
X184860000Y-93440000D01*
X182240000Y-94810000D02*
X183610000Y-93440000D01*
%TO.N,Net-(C18-Pad1)*%
X137500000Y-88000000D02*
X138725000Y-89225000D01*
X137500000Y-86775000D02*
X137500000Y-88000000D01*
X138725000Y-89225000D02*
X138725000Y-90000000D01*
%TO.N,Net-(U1D--)*%
X134475000Y-81040000D02*
X135710000Y-81040000D01*
X140500000Y-79500000D02*
X139725000Y-80275000D01*
X138000000Y-80275000D02*
X136475000Y-80275000D01*
X139725000Y-80275000D02*
X138000000Y-80275000D01*
X136475000Y-80275000D02*
X135710000Y-81040000D01*
X141175000Y-79500000D02*
X140500000Y-79500000D01*
%TO.N,Net-(C19-Pad1)*%
X139175000Y-83225000D02*
X138000000Y-83225000D01*
X140175000Y-83225000D02*
X139175000Y-83225000D01*
X138000000Y-83225000D02*
X136725000Y-83225000D01*
X141175000Y-81000000D02*
X141175000Y-82225000D01*
X141175000Y-82225000D02*
X140175000Y-83225000D01*
X136725000Y-83225000D02*
X135810000Y-82310000D01*
X135810000Y-82310000D02*
X134475000Y-82310000D01*
%TO.N,Net-(C20-Pad1)*%
X142825000Y-81000000D02*
X142825000Y-79500000D01*
X142825000Y-79500000D02*
X144000000Y-79500000D01*
%TO.N,/D4-*%
X173100000Y-88700000D02*
X177100000Y-88700000D01*
X178300000Y-89900000D02*
X178300000Y-94400000D01*
X180080000Y-96180000D02*
X181300000Y-96180000D01*
X178300000Y-94400000D02*
X180080000Y-96180000D01*
X177100000Y-88700000D02*
X178300000Y-89900000D01*
%TO.N,Net-(C24-Pad1)*%
X82275000Y-121500000D02*
X84225000Y-121500000D01*
%TO.N,Net-(U6A--)*%
X87275000Y-111775000D02*
X88040000Y-112540000D01*
X89525000Y-112540000D02*
X88040000Y-112540000D01*
X83600000Y-111000000D02*
X84375000Y-111775000D01*
X82825000Y-111000000D02*
X83600000Y-111000000D01*
X84375000Y-111775000D02*
X86000000Y-111775000D01*
X86000000Y-111775000D02*
X87275000Y-111775000D01*
%TO.N,Net-(C25-Pad1)*%
X87025000Y-114725000D02*
X87940000Y-113810000D01*
X83825000Y-114725000D02*
X86000000Y-114725000D01*
X86000000Y-114725000D02*
X87025000Y-114725000D01*
X89525000Y-113810000D02*
X87940000Y-113810000D01*
X82825000Y-113725000D02*
X83825000Y-114725000D01*
X82825000Y-112500000D02*
X82825000Y-113725000D01*
%TO.N,Net-(C26-Pad1)*%
X81175000Y-112500000D02*
X81175000Y-113500000D01*
X81175000Y-111000000D02*
X81175000Y-112500000D01*
%TO.N,/D5-*%
X176925000Y-96400000D02*
X178105000Y-97580000D01*
X176400000Y-96400000D02*
X176925000Y-96400000D01*
X178105000Y-97580000D02*
X184140000Y-97580000D01*
%TO.N,Net-(C29-Pad1)*%
X81100000Y-97000000D02*
X82225000Y-97000000D01*
X80000000Y-97225000D02*
X80875000Y-97225000D01*
X80875000Y-97225000D02*
X81100000Y-97000000D01*
%TO.N,Net-(U6B--)*%
X83500000Y-109000000D02*
X84275000Y-108225000D01*
X89525000Y-107460000D02*
X88290000Y-107460000D01*
X82825000Y-109000000D02*
X83500000Y-109000000D01*
X84275000Y-108225000D02*
X86000000Y-108225000D01*
X86000000Y-108225000D02*
X87525000Y-108225000D01*
X87525000Y-108225000D02*
X88290000Y-107460000D01*
%TO.N,Net-(C30-Pad1)*%
X82825000Y-106375000D02*
X83925000Y-105275000D01*
X86000000Y-105275000D02*
X87275000Y-105275000D01*
X87275000Y-105275000D02*
X88190000Y-106190000D01*
X82825000Y-107500000D02*
X82825000Y-106375000D01*
X88190000Y-106190000D02*
X89525000Y-106190000D01*
X83925000Y-105275000D02*
X86000000Y-105275000D01*
%TO.N,Net-(C31-Pad1)*%
X81175000Y-106675000D02*
X81175000Y-107500000D01*
X79900000Y-105400000D02*
X81175000Y-106675000D01*
X81175000Y-107500000D02*
X81175000Y-109000000D01*
%TO.N,/D6-*%
X175000000Y-94200000D02*
X175000000Y-96800000D01*
X175000000Y-96800000D02*
X178520000Y-100320000D01*
X171500000Y-92275000D02*
X173075000Y-92275000D01*
X169250000Y-92500000D02*
X169475000Y-92275000D01*
X178520000Y-100320000D02*
X181880000Y-100320000D01*
X186020000Y-96180000D02*
X186980000Y-96180000D01*
X169475000Y-92275000D02*
X171500000Y-92275000D01*
X185700000Y-96500000D02*
X186020000Y-96180000D01*
X183250000Y-98950000D02*
X184950000Y-98950000D01*
X184950000Y-98950000D02*
X185700000Y-98200000D01*
X166725000Y-92500000D02*
X169250000Y-92500000D01*
X185700000Y-98200000D02*
X185700000Y-96500000D01*
X181880000Y-100320000D02*
X183250000Y-98950000D01*
X173075000Y-92275000D02*
X175000000Y-94200000D01*
%TO.N,/D6+*%
X174300000Y-95225000D02*
X171500000Y-95225000D01*
X169475000Y-95225000D02*
X171500000Y-95225000D01*
X166725000Y-95000000D02*
X169250000Y-95000000D01*
X169250000Y-95000000D02*
X169475000Y-95225000D01*
%TO.N,Net-(C34-Pad1)*%
X96225000Y-98000000D02*
X96225000Y-99500000D01*
%TO.N,Net-(U6C--)*%
X98000000Y-108225000D02*
X99225000Y-108225000D01*
X96725000Y-108225000D02*
X95960000Y-107460000D01*
X98000000Y-108225000D02*
X96725000Y-108225000D01*
X95960000Y-107460000D02*
X95710000Y-107460000D01*
X99225000Y-108225000D02*
X100000000Y-109000000D01*
X100000000Y-109000000D02*
X101175000Y-109000000D01*
X95710000Y-107460000D02*
X94475000Y-107460000D01*
%TO.N,Net-(C35-Pad1)*%
X100175000Y-105275000D02*
X101175000Y-106275000D01*
X101175000Y-107500000D02*
X101175000Y-106275000D01*
X94475000Y-106190000D02*
X95910000Y-106190000D01*
X98000000Y-105275000D02*
X100175000Y-105275000D01*
X96825000Y-105275000D02*
X98000000Y-105275000D01*
X95910000Y-106190000D02*
X96825000Y-105275000D01*
%TO.N,Net-(C36-Pad1)*%
X104750000Y-104250000D02*
X106500000Y-104250000D01*
X102825000Y-106175000D02*
X104750000Y-104250000D01*
X102825000Y-107500000D02*
X102825000Y-106175000D01*
X116750000Y-94000000D02*
X146300000Y-94000000D01*
X150400000Y-105800000D02*
X152825000Y-108225000D01*
X106500000Y-104250000D02*
X116750000Y-94000000D01*
X152825000Y-108225000D02*
X154500000Y-108225000D01*
X102825000Y-107500000D02*
X102825000Y-109000000D01*
X159275000Y-108000000D02*
X156750000Y-108000000D01*
X156525000Y-108225000D02*
X154500000Y-108225000D01*
X156750000Y-108000000D02*
X156525000Y-108225000D01*
X146300000Y-94000000D02*
X150400000Y-98100000D01*
X150400000Y-98100000D02*
X150400000Y-105800000D01*
%TO.N,/D7-*%
X178500000Y-101720000D02*
X181300000Y-101720000D01*
%TO.N,Net-(C39-Pad1)*%
X97500000Y-118275000D02*
X97500000Y-119500000D01*
X97500000Y-119500000D02*
X98725000Y-120725000D01*
X98725000Y-120725000D02*
X98725000Y-121500000D01*
%TO.N,Net-(U6D--)*%
X101175000Y-111000000D02*
X100500000Y-111000000D01*
X99725000Y-111775000D02*
X98000000Y-111775000D01*
X100500000Y-111000000D02*
X99725000Y-111775000D01*
X98000000Y-111775000D02*
X96475000Y-111775000D01*
X96475000Y-111775000D02*
X95710000Y-112540000D01*
X94475000Y-112540000D02*
X95710000Y-112540000D01*
%TO.N,Net-(C40-Pad1)*%
X100175000Y-114725000D02*
X99175000Y-114725000D01*
X96725000Y-114725000D02*
X95810000Y-113810000D01*
X98000000Y-114725000D02*
X96725000Y-114725000D01*
X95810000Y-113810000D02*
X94475000Y-113810000D01*
X101175000Y-113725000D02*
X100175000Y-114725000D01*
X101175000Y-112500000D02*
X101175000Y-113725000D01*
X99175000Y-114725000D02*
X98000000Y-114725000D01*
%TO.N,Net-(C41-Pad1)*%
X102825000Y-112500000D02*
X102825000Y-111000000D01*
X102825000Y-112500000D02*
X104000000Y-112500000D01*
%TO.N,/D8-*%
X177990000Y-103090000D02*
X173675000Y-98775000D01*
X173675000Y-98775000D02*
X171500000Y-98775000D01*
X169475000Y-98775000D02*
X171500000Y-98775000D01*
X184140000Y-103090000D02*
X177990000Y-103090000D01*
X169250000Y-99000000D02*
X169475000Y-98775000D01*
X166725000Y-99000000D02*
X169250000Y-99000000D01*
%TO.N,/D8+*%
X172975000Y-101725000D02*
X171500000Y-101725000D01*
X166725000Y-101500000D02*
X169250000Y-101500000D01*
X169475000Y-101725000D02*
X171500000Y-101725000D01*
X169250000Y-101500000D02*
X169475000Y-101725000D01*
X174200000Y-100500000D02*
X172975000Y-101725000D01*
%TO.N,Net-(C45-Pad1)*%
X122275000Y-121500000D02*
X124225000Y-121500000D01*
%TO.N,Net-(U11A--)*%
X126000000Y-111775000D02*
X127275000Y-111775000D01*
X123600000Y-111000000D02*
X124375000Y-111775000D01*
X127275000Y-111775000D02*
X128040000Y-112540000D01*
X124375000Y-111775000D02*
X126000000Y-111775000D01*
X122825000Y-111000000D02*
X123600000Y-111000000D01*
X129525000Y-112540000D02*
X128040000Y-112540000D01*
%TO.N,Net-(C46-Pad1)*%
X127025000Y-114725000D02*
X127940000Y-113810000D01*
X129525000Y-113810000D02*
X127940000Y-113810000D01*
X122825000Y-112500000D02*
X122825000Y-113725000D01*
X123825000Y-114725000D02*
X126000000Y-114725000D01*
X122825000Y-113725000D02*
X123825000Y-114725000D01*
X126000000Y-114725000D02*
X127025000Y-114725000D01*
%TO.N,Net-(C47-Pad1)*%
X121175000Y-112500000D02*
X121175000Y-113275000D01*
X121175000Y-113275000D02*
X121400000Y-113500000D01*
X121175000Y-111000000D02*
X121175000Y-112500000D01*
%TO.N,/D9-*%
X175050000Y-106200000D02*
X175390000Y-105860000D01*
X175390000Y-105860000D02*
X182040000Y-105860000D01*
X185040000Y-104460000D02*
X185600000Y-103900000D01*
X182040000Y-105860000D02*
X183440000Y-104460000D01*
X185600000Y-102100000D02*
X185980000Y-101720000D01*
X185600000Y-103900000D02*
X185600000Y-102100000D01*
X175000000Y-106200000D02*
X175050000Y-106200000D01*
X183440000Y-104460000D02*
X185040000Y-104460000D01*
X185980000Y-101720000D02*
X186980000Y-101720000D01*
%TO.N,Net-(C50-Pad1)*%
X121100000Y-97000000D02*
X122225000Y-97000000D01*
X120000000Y-97225000D02*
X120875000Y-97225000D01*
X120875000Y-97225000D02*
X121100000Y-97000000D01*
%TO.N,Net-(U11B--)*%
X124275000Y-108225000D02*
X126000000Y-108225000D01*
X126000000Y-108225000D02*
X127525000Y-108225000D01*
X123500000Y-109000000D02*
X124275000Y-108225000D01*
X129525000Y-107460000D02*
X128290000Y-107460000D01*
X122825000Y-109000000D02*
X123500000Y-109000000D01*
X127525000Y-108225000D02*
X128290000Y-107460000D01*
%TO.N,Net-(C51-Pad1)*%
X122825000Y-107500000D02*
X122825000Y-106375000D01*
X122825000Y-106375000D02*
X123925000Y-105275000D01*
X126000000Y-105275000D02*
X127275000Y-105275000D01*
X127275000Y-105275000D02*
X128190000Y-106190000D01*
X123925000Y-105275000D02*
X126000000Y-105275000D01*
X128190000Y-106190000D02*
X129525000Y-106190000D01*
%TO.N,Net-(C52-Pad1)*%
X117800000Y-96900000D02*
X119400000Y-95300000D01*
X121175000Y-107500000D02*
X121175000Y-106925000D01*
X148600000Y-100300000D02*
X148600000Y-110100000D01*
X121175000Y-106925000D02*
X117800000Y-103550000D01*
X143600000Y-95300000D02*
X148600000Y-100300000D01*
X153225000Y-114725000D02*
X154500000Y-114725000D01*
X148600000Y-110100000D02*
X153225000Y-114725000D01*
X121175000Y-107500000D02*
X121175000Y-109000000D01*
X159275000Y-114500000D02*
X156750000Y-114500000D01*
X156750000Y-114500000D02*
X156525000Y-114725000D01*
X156525000Y-114725000D02*
X154500000Y-114725000D01*
X119400000Y-95300000D02*
X143600000Y-95300000D01*
X117800000Y-103550000D02*
X117800000Y-96900000D01*
%TO.N,/D10-*%
X171500000Y-105275000D02*
X172775000Y-105275000D01*
X172775000Y-105275000D02*
X174730000Y-107230000D01*
X174730000Y-107230000D02*
X181300000Y-107230000D01*
X166725000Y-105500000D02*
X169250000Y-105500000D01*
X169250000Y-105500000D02*
X169475000Y-105275000D01*
X169475000Y-105275000D02*
X171500000Y-105275000D01*
%TO.N,/D10+*%
X171500000Y-108225000D02*
X174000000Y-108225000D01*
X169475000Y-108225000D02*
X171500000Y-108225000D01*
X166725000Y-108000000D02*
X169250000Y-108000000D01*
X169250000Y-108000000D02*
X169475000Y-108225000D01*
%TO.N,Net-(C55-Pad1)*%
X136225000Y-98000000D02*
X136225000Y-99500000D01*
%TO.N,Net-(U11C--)*%
X136725000Y-108225000D02*
X135960000Y-107460000D01*
X135960000Y-107460000D02*
X135710000Y-107460000D01*
X135710000Y-107460000D02*
X134475000Y-107460000D01*
X140000000Y-109000000D02*
X141175000Y-109000000D01*
X139225000Y-108225000D02*
X140000000Y-109000000D01*
X138000000Y-108225000D02*
X136725000Y-108225000D01*
X138000000Y-108225000D02*
X139225000Y-108225000D01*
%TO.N,Net-(C56-Pad1)*%
X141175000Y-107500000D02*
X141175000Y-106275000D01*
X134475000Y-106190000D02*
X135910000Y-106190000D01*
X138000000Y-105275000D02*
X140175000Y-105275000D01*
X135910000Y-106190000D02*
X136825000Y-105275000D01*
X136825000Y-105275000D02*
X138000000Y-105275000D01*
X140175000Y-105275000D02*
X141175000Y-106275000D01*
%TO.N,Net-(C57-Pad1)*%
X152900000Y-118700000D02*
X152900000Y-120900000D01*
X142825000Y-109000000D02*
X145100000Y-109000000D01*
X147100000Y-112900000D02*
X152900000Y-118700000D01*
X142825000Y-107500000D02*
X142825000Y-109000000D01*
X152900000Y-120900000D02*
X153225000Y-121225000D01*
X145100000Y-109000000D02*
X147100000Y-111000000D01*
X153225000Y-121225000D02*
X154500000Y-121225000D01*
X156525000Y-121225000D02*
X154500000Y-121225000D01*
X156750000Y-121000000D02*
X156525000Y-121225000D01*
X159275000Y-121000000D02*
X156750000Y-121000000D01*
X147100000Y-111000000D02*
X147100000Y-112900000D01*
%TO.N,/D11-*%
X179300000Y-108600000D02*
X184140000Y-108600000D01*
X177000000Y-110900000D02*
X179300000Y-108600000D01*
%TO.N,Net-(C60-Pad1)*%
X138725000Y-120725000D02*
X138725000Y-121500000D01*
X137500000Y-118275000D02*
X137500000Y-119500000D01*
X137500000Y-119500000D02*
X138725000Y-120725000D01*
%TO.N,Net-(U11D--)*%
X134475000Y-112540000D02*
X135710000Y-112540000D01*
X136475000Y-111775000D02*
X135710000Y-112540000D01*
X138000000Y-111775000D02*
X136475000Y-111775000D01*
X141175000Y-111000000D02*
X140500000Y-111000000D01*
X140500000Y-111000000D02*
X139725000Y-111775000D01*
X139725000Y-111775000D02*
X138000000Y-111775000D01*
%TO.N,Net-(C61-Pad1)*%
X135810000Y-113810000D02*
X134475000Y-113810000D01*
X139175000Y-114725000D02*
X138000000Y-114725000D01*
X141175000Y-113725000D02*
X140175000Y-114725000D01*
X138000000Y-114725000D02*
X136725000Y-114725000D01*
X140175000Y-114725000D02*
X139175000Y-114725000D01*
X141175000Y-112500000D02*
X141175000Y-113725000D01*
X136725000Y-114725000D02*
X135810000Y-113810000D01*
%TO.N,Net-(C62-Pad1)*%
X142825000Y-112500000D02*
X142825000Y-111000000D01*
X142825000Y-112500000D02*
X143800000Y-112500000D01*
%TO.N,/D12-*%
X185600000Y-109100000D02*
X185600000Y-107600000D01*
X178825000Y-111775000D02*
X179200000Y-111400000D01*
X185970000Y-107230000D02*
X186980000Y-107230000D01*
X184700000Y-110000000D02*
X185600000Y-109100000D01*
X171500000Y-111775000D02*
X178825000Y-111775000D01*
X183600000Y-110000000D02*
X184700000Y-110000000D01*
X166725000Y-112000000D02*
X169250000Y-112000000D01*
X179200000Y-111400000D02*
X182200000Y-111400000D01*
X169250000Y-112000000D02*
X169475000Y-111775000D01*
X169475000Y-111775000D02*
X171500000Y-111775000D01*
X182200000Y-111400000D02*
X183600000Y-110000000D01*
X185600000Y-107600000D02*
X185970000Y-107230000D01*
%TO.N,/D12+*%
X169475000Y-114725000D02*
X171500000Y-114725000D01*
X169250000Y-114500000D02*
X169475000Y-114725000D01*
X166725000Y-114500000D02*
X169250000Y-114500000D01*
X171500000Y-114725000D02*
X174275000Y-114725000D01*
X174275000Y-114725000D02*
X174800000Y-114200000D01*
%TO.N,Net-(C66-Pad1)*%
X122275000Y-153000000D02*
X124225000Y-153000000D01*
%TO.N,Net-(U16A--)*%
X124375000Y-143275000D02*
X126000000Y-143275000D01*
X122825000Y-142500000D02*
X123600000Y-142500000D01*
X129525000Y-144040000D02*
X128040000Y-144040000D01*
X127275000Y-143275000D02*
X128040000Y-144040000D01*
X126000000Y-143275000D02*
X127275000Y-143275000D01*
X123600000Y-142500000D02*
X124375000Y-143275000D01*
%TO.N,Net-(C67-Pad1)*%
X127025000Y-146225000D02*
X127940000Y-145310000D01*
X123825000Y-146225000D02*
X126000000Y-146225000D01*
X122825000Y-145225000D02*
X123825000Y-146225000D01*
X129525000Y-145310000D02*
X127940000Y-145310000D01*
X126000000Y-146225000D02*
X127025000Y-146225000D01*
X122825000Y-144000000D02*
X122825000Y-145225000D01*
%TO.N,Net-(C68-Pad1)*%
X121175000Y-142500000D02*
X121175000Y-144000000D01*
X121175000Y-144000000D02*
X121175000Y-145000000D01*
%TO.N,/D13-*%
X175600000Y-116900000D02*
X179760000Y-112740000D01*
X179760000Y-112740000D02*
X181300000Y-112740000D01*
%TO.N,Net-(C71-Pad1)*%
X121100000Y-128500000D02*
X122225000Y-128500000D01*
X120000000Y-128725000D02*
X120875000Y-128725000D01*
X120875000Y-128725000D02*
X121100000Y-128500000D01*
%TO.N,Net-(U16B--)*%
X123500000Y-140500000D02*
X124275000Y-139725000D01*
X124275000Y-139725000D02*
X126000000Y-139725000D01*
X129525000Y-138960000D02*
X128290000Y-138960000D01*
X122825000Y-140500000D02*
X123500000Y-140500000D01*
X126000000Y-139725000D02*
X127525000Y-139725000D01*
X127525000Y-139725000D02*
X128290000Y-138960000D01*
%TO.N,Net-(C72-Pad1)*%
X128190000Y-137690000D02*
X129525000Y-137690000D01*
X122825000Y-139000000D02*
X122825000Y-137875000D01*
X127275000Y-136775000D02*
X128190000Y-137690000D01*
X126000000Y-136775000D02*
X127275000Y-136775000D01*
X122825000Y-137875000D02*
X123925000Y-136775000D01*
X123925000Y-136775000D02*
X126000000Y-136775000D01*
%TO.N,Net-(C73-Pad1)*%
X121175000Y-138000000D02*
X121175000Y-139000000D01*
X121175000Y-139000000D02*
X121175000Y-140500000D01*
%TO.N,/D14-*%
X171500000Y-118275000D02*
X175925000Y-118275000D01*
X180090000Y-114110000D02*
X184140000Y-114110000D01*
X175925000Y-118275000D02*
X180090000Y-114110000D01*
X169475000Y-118275000D02*
X171500000Y-118275000D01*
X166725000Y-118500000D02*
X169250000Y-118500000D01*
X169250000Y-118500000D02*
X169475000Y-118275000D01*
%TO.N,/D14+*%
X174675000Y-121225000D02*
X174700000Y-121200000D01*
X171500000Y-121225000D02*
X174675000Y-121225000D01*
X169475000Y-121225000D02*
X171500000Y-121225000D01*
X166725000Y-121000000D02*
X169250000Y-121000000D01*
X169250000Y-121000000D02*
X169475000Y-121225000D01*
%TO.N,Net-(C76-Pad1)*%
X136225000Y-129500000D02*
X136225000Y-131000000D01*
%TO.N,Net-(U16C--)*%
X138000000Y-139725000D02*
X136725000Y-139725000D01*
X139225000Y-139725000D02*
X140000000Y-140500000D01*
X138000000Y-139725000D02*
X139225000Y-139725000D01*
X135710000Y-138960000D02*
X134475000Y-138960000D01*
X136725000Y-139725000D02*
X135960000Y-138960000D01*
X135960000Y-138960000D02*
X135710000Y-138960000D01*
X140000000Y-140500000D02*
X141175000Y-140500000D01*
%TO.N,Net-(C77-Pad1)*%
X141175000Y-139000000D02*
X141175000Y-137775000D01*
X138000000Y-136775000D02*
X140175000Y-136775000D01*
X135910000Y-137690000D02*
X136825000Y-136775000D01*
X140175000Y-136775000D02*
X141175000Y-137775000D01*
X134475000Y-137690000D02*
X135910000Y-137690000D01*
X136825000Y-136775000D02*
X138000000Y-136775000D01*
%TO.N,Net-(C78-Pad1)*%
X142825000Y-137375000D02*
X152475000Y-127725000D01*
X152475000Y-127725000D02*
X154500000Y-127725000D01*
X159275000Y-127500000D02*
X156750000Y-127500000D01*
X156525000Y-127725000D02*
X154500000Y-127725000D01*
X156750000Y-127500000D02*
X156525000Y-127725000D01*
X142825000Y-139000000D02*
X142825000Y-140500000D01*
X142825000Y-139000000D02*
X142825000Y-137375000D01*
%TO.N,/D15-*%
X183510000Y-115490000D02*
X184910000Y-115490000D01*
X185960000Y-112740000D02*
X186980000Y-112740000D01*
X182100000Y-116900000D02*
X183510000Y-115490000D01*
X178100000Y-118000000D02*
X179200000Y-116900000D01*
X185550000Y-113150000D02*
X185960000Y-112740000D01*
X185550000Y-114850000D02*
X185550000Y-113150000D01*
X184910000Y-115490000D02*
X185550000Y-114850000D01*
X179200000Y-116900000D02*
X182100000Y-116900000D01*
%TO.N,Net-(C81-Pad1)*%
X138725000Y-152225000D02*
X138725000Y-153000000D01*
X137500000Y-149775000D02*
X137500000Y-151000000D01*
X137500000Y-151000000D02*
X138725000Y-152225000D01*
%TO.N,Net-(U16D--)*%
X140500000Y-142500000D02*
X139725000Y-143275000D01*
X138000000Y-143275000D02*
X136475000Y-143275000D01*
X136475000Y-143275000D02*
X135710000Y-144040000D01*
X134475000Y-144040000D02*
X135710000Y-144040000D01*
X141175000Y-142500000D02*
X140500000Y-142500000D01*
X139725000Y-143275000D02*
X138000000Y-143275000D01*
%TO.N,Net-(C82-Pad1)*%
X141175000Y-144000000D02*
X141175000Y-145225000D01*
X135810000Y-145310000D02*
X134475000Y-145310000D01*
X141175000Y-145225000D02*
X140175000Y-146225000D01*
X139175000Y-146225000D02*
X138000000Y-146225000D01*
X138000000Y-146225000D02*
X136725000Y-146225000D01*
X140175000Y-146225000D02*
X139175000Y-146225000D01*
X136725000Y-146225000D02*
X135810000Y-145310000D01*
%TO.N,Net-(C83-Pad1)*%
X142825000Y-144000000D02*
X142825000Y-142500000D01*
X142825000Y-144000000D02*
X143800000Y-144000000D01*
%TO.N,/D16-*%
X166725000Y-125000000D02*
X169250000Y-125000000D01*
X171500000Y-124775000D02*
X173625000Y-124775000D01*
X180120000Y-118280000D02*
X181300000Y-118280000D01*
X169250000Y-125000000D02*
X169475000Y-124775000D01*
X169475000Y-124775000D02*
X171500000Y-124775000D01*
X173625000Y-124775000D02*
X180120000Y-118280000D01*
%TO.N,/D16+*%
X172775000Y-127725000D02*
X173800000Y-126700000D01*
X169475000Y-127725000D02*
X171500000Y-127725000D01*
X169250000Y-127500000D02*
X169475000Y-127725000D01*
X166725000Y-127500000D02*
X169250000Y-127500000D01*
X171500000Y-127725000D02*
X172775000Y-127725000D01*
%TO.N,Net-(C87-Pad1)*%
X82275000Y-90000000D02*
X84225000Y-90000000D01*
%TO.N,Net-(U21A--)*%
X86000000Y-80275000D02*
X87275000Y-80275000D01*
X82825000Y-79500000D02*
X83600000Y-79500000D01*
X89525000Y-81040000D02*
X88040000Y-81040000D01*
X83600000Y-79500000D02*
X84375000Y-80275000D01*
X87275000Y-80275000D02*
X88040000Y-81040000D01*
X84375000Y-80275000D02*
X86000000Y-80275000D01*
%TO.N,Net-(C88-Pad1)*%
X87025000Y-83225000D02*
X87940000Y-82310000D01*
X83825000Y-83225000D02*
X86000000Y-83225000D01*
X82825000Y-81000000D02*
X82825000Y-82225000D01*
X82825000Y-82225000D02*
X83825000Y-83225000D01*
X89525000Y-82310000D02*
X87940000Y-82310000D01*
X86000000Y-83225000D02*
X87025000Y-83225000D01*
%TO.N,Net-(C89-Pad1)*%
X81200000Y-82000000D02*
X81175000Y-81975000D01*
X81175000Y-81975000D02*
X81175000Y-81000000D01*
X81175000Y-79500000D02*
X81175000Y-81000000D01*
%TO.N,/D17-*%
X179820000Y-119680000D02*
X184140000Y-119680000D01*
X173375000Y-134225000D02*
X173475000Y-134225000D01*
X173475000Y-134225000D02*
X175050000Y-132650000D01*
X175050000Y-132650000D02*
X175050000Y-124450000D01*
X175050000Y-124450000D02*
X179820000Y-119680000D01*
%TO.N,Net-(C92-Pad1)*%
X80000000Y-65725000D02*
X80875000Y-65725000D01*
X81100000Y-65500000D02*
X82225000Y-65500000D01*
X80875000Y-65725000D02*
X81100000Y-65500000D01*
%TO.N,Net-(U21B--)*%
X86000000Y-76725000D02*
X87525000Y-76725000D01*
X84275000Y-76725000D02*
X86000000Y-76725000D01*
X83500000Y-77500000D02*
X84275000Y-76725000D01*
X89525000Y-75960000D02*
X88290000Y-75960000D01*
X82825000Y-77500000D02*
X83500000Y-77500000D01*
X87525000Y-76725000D02*
X88290000Y-75960000D01*
%TO.N,Net-(C93-Pad1)*%
X83925000Y-73775000D02*
X86000000Y-73775000D01*
X88190000Y-74690000D02*
X89525000Y-74690000D01*
X82825000Y-74875000D02*
X83925000Y-73775000D01*
X86000000Y-73775000D02*
X87275000Y-73775000D01*
X82825000Y-76000000D02*
X82825000Y-74875000D01*
X87275000Y-73775000D02*
X88190000Y-74690000D01*
%TO.N,Net-(C94-Pad1)*%
X79900000Y-73900000D02*
X81175000Y-75175000D01*
X81175000Y-75175000D02*
X81175000Y-76000000D01*
X81175000Y-76000000D02*
X81175000Y-77500000D01*
%TO.N,/D18-*%
X185500000Y-120400000D02*
X185500000Y-118600000D01*
X182180000Y-122420000D02*
X183550000Y-121050000D01*
X176600000Y-124000000D02*
X178180000Y-122420000D01*
X185500000Y-118600000D02*
X185820000Y-118280000D01*
X178180000Y-122420000D02*
X182180000Y-122420000D01*
X184850000Y-121050000D02*
X185500000Y-120400000D01*
X185820000Y-118280000D02*
X186980000Y-118280000D01*
X183550000Y-121050000D02*
X184850000Y-121050000D01*
%TO.N,Net-(C97-Pad1)*%
X96225000Y-68000000D02*
X96225000Y-66500000D01*
%TO.N,Net-(U21C--)*%
X95960000Y-75960000D02*
X95710000Y-75960000D01*
X99225000Y-76725000D02*
X100000000Y-77500000D01*
X95710000Y-75960000D02*
X94475000Y-75960000D01*
X98000000Y-76725000D02*
X99225000Y-76725000D01*
X96725000Y-76725000D02*
X95960000Y-75960000D01*
X100000000Y-77500000D02*
X101175000Y-77500000D01*
X98000000Y-76725000D02*
X96725000Y-76725000D01*
%TO.N,Net-(C98-Pad1)*%
X95910000Y-74690000D02*
X96825000Y-73775000D01*
X94475000Y-74690000D02*
X95910000Y-74690000D01*
X98000000Y-73775000D02*
X100175000Y-73775000D01*
X96825000Y-73775000D02*
X98000000Y-73775000D01*
X100175000Y-73775000D02*
X101175000Y-74775000D01*
X101175000Y-76000000D02*
X101175000Y-74775000D01*
%TO.N,Net-(C99-Pad1)*%
X152700000Y-93100000D02*
X152700000Y-94700000D01*
X114900000Y-64500000D02*
X143600000Y-64500000D01*
X150000000Y-90400000D02*
X152700000Y-93100000D01*
X102825000Y-76000000D02*
X102825000Y-74925000D01*
X150000000Y-70900000D02*
X150000000Y-90400000D01*
X143600000Y-64500000D02*
X150000000Y-70900000D01*
X156750000Y-95000000D02*
X156525000Y-95225000D01*
X159275000Y-95000000D02*
X156750000Y-95000000D01*
X156525000Y-95225000D02*
X154500000Y-95225000D01*
X105000000Y-72750000D02*
X106650000Y-72750000D01*
X152700000Y-94700000D02*
X153225000Y-95225000D01*
X153225000Y-95225000D02*
X154500000Y-95225000D01*
X106650000Y-72750000D02*
X114900000Y-64500000D01*
X102825000Y-74925000D02*
X105000000Y-72750000D01*
X102825000Y-76000000D02*
X102825000Y-77500000D01*
%TO.N,/D19-*%
X178880000Y-123820000D02*
X181300000Y-123820000D01*
X177500000Y-125200000D02*
X178880000Y-123820000D01*
%TO.N,Net-(C102-Pad1)*%
X97500000Y-88000000D02*
X98725000Y-89225000D01*
X97500000Y-86775000D02*
X97500000Y-88000000D01*
X98725000Y-89225000D02*
X98725000Y-90000000D01*
%TO.N,Net-(U21D--)*%
X99725000Y-80275000D02*
X98000000Y-80275000D01*
X101175000Y-79500000D02*
X100500000Y-79500000D01*
X100500000Y-79500000D02*
X99725000Y-80275000D01*
X94475000Y-81040000D02*
X95710000Y-81040000D01*
X98000000Y-80275000D02*
X96475000Y-80275000D01*
X96475000Y-80275000D02*
X95710000Y-81040000D01*
%TO.N,Net-(C103-Pad1)*%
X101175000Y-81000000D02*
X101175000Y-82225000D01*
X96725000Y-83225000D02*
X95810000Y-82310000D01*
X101175000Y-82225000D02*
X100175000Y-83225000D01*
X100175000Y-83225000D02*
X99175000Y-83225000D01*
X98000000Y-83225000D02*
X96725000Y-83225000D01*
X99175000Y-83225000D02*
X98000000Y-83225000D01*
X95810000Y-82310000D02*
X94475000Y-82310000D01*
%TO.N,Net-(C104-Pad1)*%
X102825000Y-81000000D02*
X104250000Y-81000000D01*
X102825000Y-81000000D02*
X102825000Y-79500000D01*
%TO.N,Net-(J2-Pad16)*%
X179970000Y-129330000D02*
X179000000Y-130300000D01*
X181300000Y-129330000D02*
X179970000Y-129330000D01*
X108900000Y-104300000D02*
X108700000Y-104100000D01*
X179000000Y-150900000D02*
X172800000Y-157100000D01*
X179000000Y-130300000D02*
X179000000Y-150900000D01*
X108900000Y-155500000D02*
X108900000Y-104300000D01*
X172800000Y-157100000D02*
X110500000Y-157100000D01*
X108700000Y-103100000D02*
X109400000Y-102400000D01*
X110500000Y-157100000D02*
X108900000Y-155500000D01*
X108700000Y-104100000D02*
X108700000Y-103100000D01*
%TO.N,Net-(J2-Pad15)*%
X110700000Y-156600000D02*
X109400000Y-155300000D01*
X178500000Y-150700000D02*
X172600000Y-156600000D01*
X178500000Y-128000000D02*
X178500000Y-150700000D01*
X181300000Y-126560000D02*
X179940000Y-126560000D01*
X172600000Y-156600000D02*
X110700000Y-156600000D01*
X109400000Y-155300000D02*
X109400000Y-103600000D01*
X179940000Y-126560000D02*
X178500000Y-128000000D01*
%TO.N,Net-(R1-Pad2)*%
X126100000Y-91500000D02*
X120500000Y-91500000D01*
X128675000Y-88925000D02*
X126100000Y-91500000D01*
X128675000Y-86000000D02*
X128675000Y-88925000D01*
X119500000Y-90500000D02*
X119500000Y-87000000D01*
X120500000Y-91500000D02*
X119500000Y-90500000D01*
X120725000Y-88825000D02*
X120725000Y-90000000D01*
X119500000Y-87000000D02*
X120500000Y-86000000D01*
X120500000Y-86000000D02*
X120500000Y-88600000D01*
X120500000Y-88600000D02*
X120725000Y-88825000D01*
%TO.N,Net-(R21-Pad2)*%
X88675000Y-117500000D02*
X88675000Y-120425000D01*
X86100000Y-123000000D02*
X80500000Y-123000000D01*
X80500000Y-123000000D02*
X79500000Y-122000000D01*
X80500000Y-117500000D02*
X80500000Y-120100000D01*
X80500000Y-120100000D02*
X80725000Y-120325000D01*
X88675000Y-120425000D02*
X86100000Y-123000000D01*
X80725000Y-120325000D02*
X80725000Y-121500000D01*
X79500000Y-118500000D02*
X80500000Y-117500000D01*
X79500000Y-122000000D02*
X79500000Y-118500000D01*
%TO.N,Net-(R41-Pad2)*%
X126100000Y-123000000D02*
X120500000Y-123000000D01*
X119500000Y-122000000D02*
X119500000Y-118500000D01*
X120500000Y-123000000D02*
X119500000Y-122000000D01*
X119500000Y-118500000D02*
X120500000Y-117500000D01*
X120725000Y-120325000D02*
X120725000Y-121500000D01*
X120500000Y-117500000D02*
X120500000Y-120100000D01*
X128675000Y-117500000D02*
X128675000Y-120425000D01*
X128675000Y-120425000D02*
X126100000Y-123000000D01*
X120500000Y-120100000D02*
X120725000Y-120325000D01*
%TO.N,Net-(R61-Pad2)*%
X119500000Y-150000000D02*
X120500000Y-149000000D01*
X126100000Y-154500000D02*
X120500000Y-154500000D01*
X120500000Y-154500000D02*
X119500000Y-153500000D01*
X119500000Y-153500000D02*
X119500000Y-150000000D01*
X120500000Y-151100000D02*
X120500000Y-149000000D01*
X120725000Y-153000000D02*
X120725000Y-151325000D01*
X128675000Y-149000000D02*
X128675000Y-151925000D01*
X120725000Y-151325000D02*
X120500000Y-151100000D01*
X128675000Y-151925000D02*
X126100000Y-154500000D01*
D36*
%TO.N,Net-(R6-Pad2)*%
X113000000Y-73500000D02*
X113000000Y-75050000D01*
X120500000Y-71000000D02*
X115500000Y-71000000D01*
D35*
X121200000Y-73500000D02*
X120500000Y-72800000D01*
X125900000Y-71000000D02*
X123400000Y-73500000D01*
X120500000Y-70100000D02*
X120000000Y-69600000D01*
X120500000Y-71000000D02*
X120500000Y-70100000D01*
X120000000Y-69600000D02*
X120000000Y-67275000D01*
X128675000Y-71000000D02*
X125900000Y-71000000D01*
X120500000Y-72800000D02*
X120500000Y-71000000D01*
X123400000Y-73500000D02*
X121200000Y-73500000D01*
D36*
X115500000Y-71000000D02*
X113000000Y-73500000D01*
D35*
%TO.N,Net-(R11-Pad2)*%
X138500000Y-68000000D02*
X140500000Y-70000000D01*
X140500000Y-71000000D02*
X135325000Y-71000000D01*
X137775000Y-68000000D02*
X138500000Y-68000000D01*
X140500000Y-70000000D02*
X140500000Y-71000000D01*
%TO.N,Net-(#FLG0103-pwr)*%
X133000000Y-109500000D02*
X132500000Y-109500000D01*
X133500000Y-110000000D02*
X133000000Y-109500000D01*
X134475000Y-110000000D02*
X133500000Y-110000000D01*
%TO.N,Net-(R16-Pad2)*%
X140500000Y-86000000D02*
X140500000Y-88100000D01*
X140500000Y-88100000D02*
X140275000Y-88325000D01*
X140275000Y-88325000D02*
X140275000Y-90000000D01*
X135325000Y-86000000D02*
X140500000Y-86000000D01*
%TO.N,Net-(#FLG0104-pwr)*%
X133000000Y-141000000D02*
X132500000Y-141000000D01*
X134475000Y-141500000D02*
X133500000Y-141500000D01*
X133500000Y-141500000D02*
X133000000Y-141000000D01*
%TO.N,Net-(#FLG0105-pwr)*%
X93500000Y-78500000D02*
X93000000Y-78000000D01*
X94475000Y-78500000D02*
X93500000Y-78500000D01*
X93000000Y-78000000D02*
X92500000Y-78000000D01*
D36*
%TO.N,Net-(R26-Pad2)*%
X75500000Y-102500000D02*
X73000000Y-105000000D01*
D35*
X88675000Y-102500000D02*
X85900000Y-102500000D01*
D36*
X73000000Y-105000000D02*
X73000000Y-106550000D01*
D35*
X80000000Y-101100000D02*
X80000000Y-98775000D01*
X81200000Y-105000000D02*
X80500000Y-104300000D01*
X80500000Y-101600000D02*
X80000000Y-101100000D01*
X80500000Y-104300000D02*
X80500000Y-102500000D01*
X85900000Y-102500000D02*
X83400000Y-105000000D01*
X83400000Y-105000000D02*
X81200000Y-105000000D01*
X80500000Y-102500000D02*
X80500000Y-101600000D01*
D36*
X80500000Y-102500000D02*
X75500000Y-102500000D01*
D35*
%TO.N,Net-(#FLG0106-pwr)*%
X94475000Y-110000000D02*
X93500000Y-110000000D01*
X93000000Y-109500000D02*
X93500000Y-110000000D01*
X92500000Y-109500000D02*
X93000000Y-109500000D01*
%TO.N,Net-(R31-Pad2)*%
X98500000Y-99500000D02*
X100500000Y-101500000D01*
X97775000Y-99500000D02*
X98500000Y-99500000D01*
X100500000Y-102500000D02*
X95325000Y-102500000D01*
X100500000Y-101500000D02*
X100500000Y-102500000D01*
%TO.N,Net-(U1A-+)*%
X131020000Y-79770000D02*
X131500000Y-80250000D01*
X131500000Y-80250000D02*
X131500000Y-85500000D01*
X131000000Y-86000000D02*
X130325000Y-86000000D01*
X129525000Y-79770000D02*
X131020000Y-79770000D01*
X131500000Y-85500000D02*
X131000000Y-86000000D01*
%TO.N,Net-(R36-Pad2)*%
X95325000Y-117500000D02*
X100500000Y-117500000D01*
X100500000Y-119600000D02*
X100275000Y-119825000D01*
X100275000Y-119825000D02*
X100275000Y-121500000D01*
X100500000Y-117500000D02*
X100500000Y-119600000D01*
%TO.N,Net-(U1B-+)*%
X131000000Y-71000000D02*
X130325000Y-71000000D01*
X129525000Y-77230000D02*
X131020000Y-77230000D01*
X131500000Y-71500000D02*
X131000000Y-71000000D01*
X131500000Y-76750000D02*
X131500000Y-71500000D01*
X131020000Y-77230000D02*
X131500000Y-76750000D01*
%TO.N,Net-(U1C-+)*%
X132500000Y-71500000D02*
X133000000Y-71000000D01*
X132980000Y-77230000D02*
X132500000Y-76750000D01*
X134475000Y-77230000D02*
X132980000Y-77230000D01*
X133000000Y-71000000D02*
X133675000Y-71000000D01*
X132500000Y-76750000D02*
X132500000Y-71500000D01*
%TO.N,Net-(R46-Pad2)*%
X120500000Y-101600000D02*
X120000000Y-101100000D01*
X120000000Y-101100000D02*
X120000000Y-98775000D01*
X120500000Y-102500000D02*
X120500000Y-101600000D01*
X123400000Y-105000000D02*
X121200000Y-105000000D01*
X121200000Y-105000000D02*
X120500000Y-104300000D01*
X120500000Y-104300000D02*
X120500000Y-102500000D01*
X125900000Y-102500000D02*
X123400000Y-105000000D01*
X128675000Y-102500000D02*
X125900000Y-102500000D01*
%TO.N,Net-(U1D-+)*%
X132500000Y-85500000D02*
X132500000Y-80250000D01*
X133000000Y-86000000D02*
X132500000Y-85500000D01*
X133675000Y-86000000D02*
X133000000Y-86000000D01*
X132500000Y-80250000D02*
X132980000Y-79770000D01*
X134475000Y-79770000D02*
X132980000Y-79770000D01*
%TO.N,Net-(R51-Pad2)*%
X140500000Y-101500000D02*
X140500000Y-102500000D01*
X138500000Y-99500000D02*
X140500000Y-101500000D01*
X137775000Y-99500000D02*
X138500000Y-99500000D01*
X140500000Y-102500000D02*
X135325000Y-102500000D01*
%TO.N,Net-(U6A-+)*%
X89525000Y-111270000D02*
X91020000Y-111270000D01*
X91020000Y-111270000D02*
X91500000Y-111750000D01*
X91500000Y-117000000D02*
X91000000Y-117500000D01*
X91500000Y-111750000D02*
X91500000Y-117000000D01*
X91000000Y-117500000D02*
X90325000Y-117500000D01*
%TO.N,Net-(R56-Pad2)*%
X140500000Y-119600000D02*
X140275000Y-119825000D01*
X140500000Y-117500000D02*
X140500000Y-119600000D01*
X135325000Y-117500000D02*
X140500000Y-117500000D01*
X140275000Y-119825000D02*
X140275000Y-121500000D01*
%TO.N,Net-(U6B-+)*%
X91020000Y-108730000D02*
X91500000Y-108250000D01*
X91500000Y-103000000D02*
X91000000Y-102500000D01*
X91000000Y-102500000D02*
X90325000Y-102500000D01*
X89525000Y-108730000D02*
X91020000Y-108730000D01*
X91500000Y-108250000D02*
X91500000Y-103000000D01*
%TO.N,Net-(U6C-+)*%
X92980000Y-108730000D02*
X92500000Y-108250000D01*
X92500000Y-108250000D02*
X92500000Y-103000000D01*
X92500000Y-103000000D02*
X93000000Y-102500000D01*
X93000000Y-102500000D02*
X93675000Y-102500000D01*
X94475000Y-108730000D02*
X92980000Y-108730000D01*
%TO.N,Net-(R66-Pad2)*%
X120000000Y-132600000D02*
X120000000Y-130275000D01*
X120500000Y-133100000D02*
X120000000Y-132600000D01*
X123400000Y-136500000D02*
X121200000Y-136500000D01*
D36*
X113000000Y-136500000D02*
X113000000Y-138050000D01*
D35*
X121200000Y-136500000D02*
X120500000Y-135800000D01*
X120500000Y-134000000D02*
X120500000Y-133100000D01*
X120500000Y-135800000D02*
X120500000Y-134000000D01*
X128675000Y-134000000D02*
X125900000Y-134000000D01*
X125900000Y-134000000D02*
X123400000Y-136500000D01*
D36*
X115500000Y-134000000D02*
X113000000Y-136500000D01*
X115500000Y-134000000D02*
X120500000Y-134000000D01*
D35*
%TO.N,Net-(U6D-+)*%
X93675000Y-117500000D02*
X93000000Y-117500000D01*
X92500000Y-111750000D02*
X92980000Y-111270000D01*
X92500000Y-117000000D02*
X92500000Y-111750000D01*
X93000000Y-117500000D02*
X92500000Y-117000000D01*
X94475000Y-111270000D02*
X92980000Y-111270000D01*
%TO.N,Net-(R71-Pad2)*%
X140500000Y-133000000D02*
X140500000Y-134000000D01*
X137775000Y-131000000D02*
X138500000Y-131000000D01*
X138500000Y-131000000D02*
X140500000Y-133000000D01*
X140500000Y-134000000D02*
X135325000Y-134000000D01*
%TO.N,Net-(U11A-+)*%
X131020000Y-111270000D02*
X131500000Y-111750000D01*
X131500000Y-117000000D02*
X131000000Y-117500000D01*
X131500000Y-111750000D02*
X131500000Y-117000000D01*
X129525000Y-111270000D02*
X131020000Y-111270000D01*
X131000000Y-117500000D02*
X130325000Y-117500000D01*
%TO.N,Net-(R76-Pad2)*%
X140500000Y-149000000D02*
X140500000Y-151100000D01*
X135325000Y-149000000D02*
X140500000Y-149000000D01*
X140500000Y-151100000D02*
X140275000Y-151325000D01*
X140275000Y-151325000D02*
X140275000Y-153000000D01*
%TO.N,Net-(U11B-+)*%
X131500000Y-108250000D02*
X131500000Y-103000000D01*
X131020000Y-108730000D02*
X131500000Y-108250000D01*
X129525000Y-108730000D02*
X131020000Y-108730000D01*
X131000000Y-102500000D02*
X130325000Y-102500000D01*
X131500000Y-103000000D02*
X131000000Y-102500000D01*
%TO.N,Net-(R81-Pad2)*%
X88675000Y-88925000D02*
X86100000Y-91500000D01*
X86100000Y-91500000D02*
X80500000Y-91500000D01*
X80500000Y-91500000D02*
X79500000Y-90500000D01*
X79500000Y-87000000D02*
X80500000Y-86000000D01*
X80500000Y-88600000D02*
X80725000Y-88825000D01*
X79500000Y-90500000D02*
X79500000Y-87000000D01*
X88675000Y-86000000D02*
X88675000Y-88925000D01*
X80725000Y-88825000D02*
X80725000Y-90000000D01*
X80500000Y-86000000D02*
X80500000Y-88600000D01*
%TO.N,Net-(U11C-+)*%
X132500000Y-103000000D02*
X133000000Y-102500000D01*
X132980000Y-108730000D02*
X132500000Y-108250000D01*
X133000000Y-102500000D02*
X133675000Y-102500000D01*
X134475000Y-108730000D02*
X132980000Y-108730000D01*
X132500000Y-108250000D02*
X132500000Y-103000000D01*
D36*
%TO.N,Net-(R86-Pad2)*%
X73000000Y-75050000D02*
X73000000Y-73500000D01*
X75500000Y-71000000D02*
X73000000Y-73500000D01*
D35*
X80500000Y-72800000D02*
X80500000Y-71000000D01*
D36*
X80500000Y-71000000D02*
X75500000Y-71000000D01*
D35*
X81200000Y-73500000D02*
X80500000Y-72800000D01*
X80500000Y-71000000D02*
X80500000Y-70100000D01*
X88675000Y-71000000D02*
X85900000Y-71000000D01*
X80500000Y-70100000D02*
X80000000Y-69600000D01*
X85900000Y-71000000D02*
X83400000Y-73500000D01*
X83400000Y-73500000D02*
X81200000Y-73500000D01*
X80000000Y-69600000D02*
X80000000Y-67275000D01*
%TO.N,Net-(U11D-+)*%
X133000000Y-117500000D02*
X132500000Y-117000000D01*
X133675000Y-117500000D02*
X133000000Y-117500000D01*
X132500000Y-117000000D02*
X132500000Y-111750000D01*
X132980000Y-111270000D02*
X134475000Y-111270000D01*
X132500000Y-111750000D02*
X132980000Y-111270000D01*
%TO.N,Net-(R91-Pad2)*%
X97775000Y-68000000D02*
X98500000Y-68000000D01*
X98500000Y-68000000D02*
X100500000Y-70000000D01*
X100500000Y-70000000D02*
X100500000Y-71000000D01*
X100500000Y-71000000D02*
X95325000Y-71000000D01*
%TO.N,Net-(U16A-+)*%
X131500000Y-143250000D02*
X131500000Y-148500000D01*
X131000000Y-149000000D02*
X130325000Y-149000000D01*
X131020000Y-142770000D02*
X131500000Y-143250000D01*
X129525000Y-142770000D02*
X131020000Y-142770000D01*
X131500000Y-148500000D02*
X131000000Y-149000000D01*
%TO.N,Net-(R96-Pad2)*%
X95325000Y-86000000D02*
X100500000Y-86000000D01*
X100275000Y-88325000D02*
X100275000Y-90000000D01*
X100500000Y-86000000D02*
X100500000Y-88100000D01*
X100500000Y-88100000D02*
X100275000Y-88325000D01*
%TO.N,Net-(U16B-+)*%
X131020000Y-140230000D02*
X131500000Y-139750000D01*
X131000000Y-134000000D02*
X130325000Y-134000000D01*
X129525000Y-140230000D02*
X131020000Y-140230000D01*
X131500000Y-134500000D02*
X131000000Y-134000000D01*
X131500000Y-139750000D02*
X131500000Y-134500000D01*
%TO.N,Net-(U16C-+)*%
X133000000Y-134000000D02*
X133675000Y-134000000D01*
X132500000Y-139750000D02*
X132500000Y-134500000D01*
X132500000Y-134500000D02*
X133000000Y-134000000D01*
X134475000Y-140230000D02*
X132980000Y-140230000D01*
X132980000Y-140230000D02*
X132500000Y-139750000D01*
%TO.N,Net-(U16D-+)*%
X132980000Y-142770000D02*
X134475000Y-142770000D01*
X132500000Y-143250000D02*
X132980000Y-142770000D01*
X133675000Y-149000000D02*
X133000000Y-149000000D01*
X133000000Y-149000000D02*
X132500000Y-148500000D01*
X132500000Y-148500000D02*
X132500000Y-143250000D01*
%TO.N,Net-(U21A-+)*%
X91500000Y-85500000D02*
X91000000Y-86000000D01*
X91020000Y-79770000D02*
X91500000Y-80250000D01*
X89525000Y-79770000D02*
X91020000Y-79770000D01*
X91000000Y-86000000D02*
X90325000Y-86000000D01*
X91500000Y-80250000D02*
X91500000Y-85500000D01*
%TO.N,Net-(U21B-+)*%
X89525000Y-77230000D02*
X91020000Y-77230000D01*
X91500000Y-76750000D02*
X91500000Y-71500000D01*
X91020000Y-77230000D02*
X91500000Y-76750000D01*
X91500000Y-71500000D02*
X91000000Y-71000000D01*
X91000000Y-71000000D02*
X90325000Y-71000000D01*
%TO.N,/Reference Block 1/V_heater_pos*%
X123328428Y-134000000D02*
X124100000Y-133228428D01*
X124100000Y-132746016D02*
X124798008Y-132048008D01*
X123328428Y-117500000D02*
X124300000Y-117500000D01*
X104100000Y-84746016D02*
X104798008Y-84048008D01*
X143328428Y-102500000D02*
X144100000Y-101728428D01*
X124300000Y-117500000D02*
X124825000Y-118025000D01*
X84100000Y-101246016D02*
X84798008Y-100548008D01*
X124100000Y-101246016D02*
X124798008Y-100548008D01*
X84300000Y-117500000D02*
X84825000Y-118025000D01*
X144100000Y-116728428D02*
X144100000Y-116246016D01*
X144100000Y-85228428D02*
X144100000Y-84746016D01*
X84100000Y-101728428D02*
X84100000Y-101246016D01*
X103328428Y-102500000D02*
X104100000Y-101728428D01*
X103328428Y-71000000D02*
X104100000Y-70228428D01*
X144100000Y-84746016D02*
X144798008Y-84048008D01*
X104100000Y-101246016D02*
X104798008Y-100548008D01*
X104100000Y-85228428D02*
X104100000Y-84746016D01*
X103328428Y-117500000D02*
X104100000Y-116728428D01*
X84825000Y-118025000D02*
X85750000Y-118025000D01*
X144100000Y-147746016D02*
X144798008Y-147048008D01*
X123328428Y-71000000D02*
X124100000Y-70228428D01*
X123328428Y-102500000D02*
X124100000Y-101728428D01*
X104100000Y-69746016D02*
X104798008Y-69048008D01*
X123328428Y-86000000D02*
X124300000Y-86000000D01*
X124100000Y-133228428D02*
X124100000Y-132746016D01*
X124100000Y-69746016D02*
X124798008Y-69048008D01*
X144100000Y-116246016D02*
X144798008Y-115548008D01*
X144100000Y-69746016D02*
X144798008Y-69048008D01*
X83328428Y-71000000D02*
X84100000Y-70228428D01*
X124300000Y-149000000D02*
X124825000Y-149525000D01*
X104100000Y-116728428D02*
X104100000Y-116246016D01*
X143328428Y-86000000D02*
X144100000Y-85228428D01*
X144100000Y-148228428D02*
X144100000Y-147746016D01*
X104100000Y-101728428D02*
X104100000Y-101246016D01*
X144100000Y-101728428D02*
X144100000Y-101246016D01*
X83328428Y-102500000D02*
X84100000Y-101728428D01*
X126500000Y-141500000D02*
X125900000Y-142100000D01*
X86525000Y-78500000D02*
X86500000Y-78500000D01*
X86525000Y-110000000D02*
X89525000Y-110000000D01*
X144100000Y-132746016D02*
X144798008Y-132048008D01*
X124100000Y-70228428D02*
X124100000Y-69746016D01*
X124825000Y-149525000D02*
X125750000Y-149525000D01*
X124825000Y-118025000D02*
X125750000Y-118025000D01*
X124825000Y-86525000D02*
X125750000Y-86525000D01*
X143328428Y-71000000D02*
X144100000Y-70228428D01*
X104100000Y-70228428D02*
X104100000Y-69746016D01*
X84100000Y-70228428D02*
X84100000Y-69746016D01*
X126500000Y-78500000D02*
X125900000Y-79100000D01*
X83328428Y-117500000D02*
X84300000Y-117500000D01*
X126525000Y-78500000D02*
X126500000Y-78500000D01*
X126525000Y-141500000D02*
X129525000Y-141500000D01*
X86525000Y-78500000D02*
X89525000Y-78500000D01*
X126500000Y-110000000D02*
X125900000Y-110600000D01*
X144100000Y-133228428D02*
X144100000Y-132746016D01*
X144100000Y-70228428D02*
X144100000Y-69746016D01*
X143328428Y-149000000D02*
X144100000Y-148228428D01*
X83328428Y-86000000D02*
X84300000Y-86000000D01*
X126525000Y-110000000D02*
X126500000Y-110000000D01*
X84100000Y-69746016D02*
X84798008Y-69048008D01*
X103328428Y-86000000D02*
X104100000Y-85228428D01*
X86500000Y-78500000D02*
X85900000Y-79100000D01*
X124300000Y-86000000D02*
X124825000Y-86525000D01*
X84825000Y-86525000D02*
X85750000Y-86525000D01*
X84300000Y-86000000D02*
X84825000Y-86525000D01*
X126525000Y-110000000D02*
X129525000Y-110000000D01*
X126525000Y-141500000D02*
X126500000Y-141500000D01*
X123328428Y-149000000D02*
X124300000Y-149000000D01*
X86525000Y-110000000D02*
X86500000Y-110000000D01*
X144100000Y-101246016D02*
X144798008Y-100548008D01*
X104100000Y-116246016D02*
X104798008Y-115548008D01*
X143328428Y-117500000D02*
X144100000Y-116728428D01*
X124100000Y-101728428D02*
X124100000Y-101246016D01*
X143328428Y-134000000D02*
X144100000Y-133228428D01*
X126525000Y-78500000D02*
X129525000Y-78500000D01*
X86500000Y-110000000D02*
X85900000Y-110600000D01*
%TO.N,Net-(C15-Pad2)*%
X153275000Y-98775000D02*
X154500000Y-98775000D01*
X152200000Y-96000000D02*
X152200000Y-97700000D01*
X143500000Y-72300000D02*
X144100000Y-72300000D01*
X144100000Y-72300000D02*
X149200000Y-77400000D01*
X149200000Y-93000000D02*
X152200000Y-96000000D01*
X152200000Y-97700000D02*
X153275000Y-98775000D01*
X149200000Y-77400000D02*
X149200000Y-93000000D01*
X156525000Y-98775000D02*
X154500000Y-98775000D01*
X159275000Y-99000000D02*
X156750000Y-99000000D01*
X156750000Y-99000000D02*
X156525000Y-98775000D01*
%TO.N,Net-(C36-Pad2)*%
X153175000Y-105275000D02*
X154500000Y-105275000D01*
X146500000Y-93500000D02*
X150900000Y-97900000D01*
X156525000Y-105275000D02*
X154500000Y-105275000D01*
X150900000Y-103000000D02*
X153175000Y-105275000D01*
X116500000Y-93500000D02*
X146500000Y-93500000D01*
X159275000Y-105500000D02*
X156750000Y-105500000D01*
X156750000Y-105500000D02*
X156525000Y-105275000D01*
X150900000Y-97900000D02*
X150900000Y-103000000D01*
X103500000Y-103800000D02*
X106200000Y-103800000D01*
X106200000Y-103800000D02*
X116500000Y-93500000D01*
%TO.N,Net-(C52-Pad2)*%
X143800000Y-94800000D02*
X149100000Y-100100000D01*
X149100000Y-100100000D02*
X149100000Y-109900000D01*
X156750000Y-112000000D02*
X156525000Y-111775000D01*
X149100000Y-109900000D02*
X150975000Y-111775000D01*
X159275000Y-112000000D02*
X156750000Y-112000000D01*
X156525000Y-111775000D02*
X154500000Y-111775000D01*
X117100000Y-96900000D02*
X119200000Y-94800000D01*
X119200000Y-94800000D02*
X143800000Y-94800000D01*
X150975000Y-111775000D02*
X154500000Y-111775000D01*
X117100000Y-103500000D02*
X117100000Y-96900000D01*
%TO.N,Net-(C57-Pad2)*%
X143500000Y-103800000D02*
X147600000Y-107900000D01*
X147600000Y-107900000D02*
X147600000Y-112700000D01*
X147600000Y-112700000D02*
X153175000Y-118275000D01*
X159275000Y-118500000D02*
X156750000Y-118500000D01*
X156750000Y-118500000D02*
X156525000Y-118275000D01*
X156525000Y-118275000D02*
X154500000Y-118275000D01*
X153175000Y-118275000D02*
X154500000Y-118275000D01*
%TO.N,Net-(C78-Pad2)*%
X152100000Y-127400000D02*
X152100000Y-126000000D01*
X144200000Y-135300000D02*
X152100000Y-127400000D01*
X153325000Y-124775000D02*
X154500000Y-124775000D01*
X152100000Y-126000000D02*
X153325000Y-124775000D01*
X156525000Y-124775000D02*
X154500000Y-124775000D01*
X143500000Y-135300000D02*
X144200000Y-135300000D01*
X156750000Y-125000000D02*
X156525000Y-124775000D01*
X159275000Y-125000000D02*
X156750000Y-125000000D01*
%TO.N,Net-(C99-Pad2)*%
X150500000Y-70750000D02*
X150500000Y-90250000D01*
X143750000Y-64000000D02*
X150500000Y-70750000D01*
X103500000Y-72300000D02*
X106450000Y-72300000D01*
X150500000Y-90250000D02*
X152525000Y-92275000D01*
X152525000Y-92275000D02*
X154500000Y-92275000D01*
X114750000Y-64000000D02*
X143750000Y-64000000D01*
X156525000Y-92275000D02*
X154500000Y-92275000D01*
X159275000Y-92500000D02*
X156750000Y-92500000D01*
X156750000Y-92500000D02*
X156525000Y-92275000D01*
X106450000Y-72300000D02*
X114750000Y-64000000D01*
%TO.N,/Reference Block 1/GND_heater*%
X141914214Y-69585786D02*
X141914214Y-68414214D01*
X140000000Y-66500000D02*
X137775000Y-66500000D01*
X142700000Y-83800000D02*
X142853984Y-83800000D01*
D36*
X126675000Y-84975000D02*
X125750000Y-84975000D01*
D35*
X138775000Y-85225000D02*
X137500000Y-85225000D01*
X122700000Y-68800000D02*
X122853984Y-68800000D01*
X141914214Y-84585786D02*
X139414214Y-84585786D01*
X142853984Y-83800000D02*
X143701992Y-82951992D01*
X124100000Y-67553984D02*
X123701992Y-67951992D01*
D36*
X127375000Y-84275000D02*
X126675000Y-84975000D01*
D35*
X121914214Y-69585786D02*
X122700000Y-68800000D01*
D36*
X124185786Y-84585786D02*
X121914214Y-84585786D01*
D35*
X123775000Y-66375000D02*
X124100000Y-66700000D01*
D36*
X125750000Y-84975000D02*
X124575000Y-84975000D01*
D35*
X142853984Y-68800000D02*
X143701992Y-67951992D01*
X127375000Y-84275000D02*
X127175000Y-84475000D01*
X127175000Y-89425000D02*
X126600000Y-90000000D01*
X126600000Y-90000000D02*
X125775000Y-90000000D01*
X141914214Y-84585786D02*
X142700000Y-83800000D01*
X142700000Y-68800000D02*
X142853984Y-68800000D01*
X141914214Y-69585786D02*
X142700000Y-68800000D01*
X141914214Y-68414214D02*
X140000000Y-66500000D01*
X122853984Y-68800000D02*
X123701992Y-67951992D01*
X123775000Y-65500000D02*
X123775000Y-66375000D01*
X127175000Y-84475000D02*
X127175000Y-89425000D01*
X124100000Y-66700000D02*
X124100000Y-67553984D01*
X139414214Y-84585786D02*
X138775000Y-85225000D01*
D36*
X124575000Y-84975000D02*
X124185786Y-84585786D01*
D35*
%TO.N,/sheet61977749/GND_heater*%
X101914214Y-101085786D02*
X101914214Y-99914214D01*
X87025000Y-121075000D02*
X86600000Y-121500000D01*
X100000000Y-98000000D02*
X97775000Y-98000000D01*
X101914214Y-101085786D02*
X102700000Y-100300000D01*
D36*
X85750000Y-116475000D02*
X84575000Y-116475000D01*
D35*
X101914214Y-99914214D02*
X100000000Y-98000000D01*
X82700000Y-100300000D02*
X82853984Y-100300000D01*
X87025000Y-116125000D02*
X87025000Y-121075000D01*
X102700000Y-100300000D02*
X102853984Y-100300000D01*
X84100000Y-98200000D02*
X84100000Y-99053984D01*
D36*
X86675000Y-116475000D02*
X85750000Y-116475000D01*
D35*
X98775000Y-116725000D02*
X97500000Y-116725000D01*
X82853984Y-100300000D02*
X83701992Y-99451992D01*
X102853984Y-100300000D02*
X103701992Y-99451992D01*
X87375000Y-115775000D02*
X87025000Y-116125000D01*
X99414214Y-116085786D02*
X98775000Y-116725000D01*
X83775000Y-97000000D02*
X83775000Y-97875000D01*
X101914214Y-116085786D02*
X102700000Y-115300000D01*
X86600000Y-121500000D02*
X85775000Y-121500000D01*
D36*
X84575000Y-116475000D02*
X84185786Y-116085786D01*
D35*
X102700000Y-115300000D02*
X102853984Y-115300000D01*
X81914214Y-101085786D02*
X82700000Y-100300000D01*
X84100000Y-99053984D02*
X83701992Y-99451992D01*
X83775000Y-97875000D02*
X84100000Y-98200000D01*
D36*
X87375000Y-115775000D02*
X86675000Y-116475000D01*
D35*
X101914214Y-116085786D02*
X99414214Y-116085786D01*
X102853984Y-115300000D02*
X103701992Y-114451992D01*
D36*
X84185786Y-116085786D02*
X81914214Y-116085786D01*
%TO.N,/sheet61977B89/GND_heater*%
X124575000Y-116475000D02*
X124185786Y-116085786D01*
D35*
X140000000Y-98000000D02*
X137775000Y-98000000D01*
X141914214Y-101085786D02*
X142700000Y-100300000D01*
X127375000Y-115775000D02*
X126925000Y-116225000D01*
X138775000Y-116725000D02*
X137500000Y-116725000D01*
D36*
X124185786Y-116085786D02*
X121914214Y-116085786D01*
D35*
X122700000Y-100300000D02*
X122853984Y-100300000D01*
D36*
X127375000Y-115775000D02*
X126675000Y-116475000D01*
D35*
X126925000Y-121175000D02*
X126600000Y-121500000D01*
X142853984Y-100300000D02*
X143701992Y-99451992D01*
X124100000Y-99053984D02*
X123701992Y-99451992D01*
X141914214Y-99914214D02*
X140000000Y-98000000D01*
X124100000Y-98200000D02*
X124100000Y-99053984D01*
X142700000Y-115300000D02*
X142853984Y-115300000D01*
X142700000Y-100300000D02*
X142853984Y-100300000D01*
X123775000Y-97875000D02*
X124100000Y-98200000D01*
D36*
X126675000Y-116475000D02*
X125750000Y-116475000D01*
D35*
X141914214Y-116085786D02*
X139414214Y-116085786D01*
X141914214Y-116085786D02*
X142700000Y-115300000D01*
X139414214Y-116085786D02*
X138775000Y-116725000D01*
X142853984Y-115300000D02*
X143701992Y-114451992D01*
X121914214Y-101085786D02*
X122700000Y-100300000D01*
X123775000Y-97000000D02*
X123775000Y-97875000D01*
D36*
X125750000Y-116475000D02*
X124575000Y-116475000D01*
D35*
X122853984Y-100300000D02*
X123701992Y-99451992D01*
X141914214Y-101085786D02*
X141914214Y-99914214D01*
X126925000Y-116225000D02*
X126925000Y-121175000D01*
X126600000Y-121500000D02*
X125775000Y-121500000D01*
D36*
%TO.N,/sheet6197811F/GND_heater*%
X126675000Y-147975000D02*
X125750000Y-147975000D01*
X125750000Y-147975000D02*
X124575000Y-147975000D01*
D35*
X122700000Y-131800000D02*
X122853984Y-131800000D01*
X141000000Y-129500000D02*
X137775000Y-129500000D01*
X141914214Y-132585786D02*
X141914214Y-130414214D01*
X127375000Y-147275000D02*
X127200000Y-147450000D01*
X121914214Y-132585786D02*
X122700000Y-131800000D01*
X141914214Y-147585786D02*
X139414214Y-147585786D01*
X141914214Y-147585786D02*
X142700000Y-146800000D01*
X127200000Y-152400000D02*
X126600000Y-153000000D01*
X139414214Y-147585786D02*
X138775000Y-148225000D01*
D36*
X127375000Y-147275000D02*
X126675000Y-147975000D01*
X124185786Y-147585786D02*
X121914214Y-147585786D01*
D35*
X124100000Y-129700000D02*
X124100000Y-130553984D01*
X141914214Y-132585786D02*
X142700000Y-131800000D01*
X141914214Y-130414214D02*
X141000000Y-129500000D01*
X142853984Y-146800000D02*
X143701992Y-145951992D01*
X142853984Y-131800000D02*
X143701992Y-130951992D01*
X138775000Y-148225000D02*
X137500000Y-148225000D01*
X122853984Y-131800000D02*
X123701992Y-130951992D01*
X123775000Y-128500000D02*
X123775000Y-129375000D01*
D36*
X124575000Y-147975000D02*
X124185786Y-147585786D01*
D35*
X142700000Y-146800000D02*
X142853984Y-146800000D01*
X127200000Y-147450000D02*
X127200000Y-152400000D01*
X124100000Y-130553984D02*
X123701992Y-130951992D01*
X123775000Y-129375000D02*
X124100000Y-129700000D01*
X126600000Y-153000000D02*
X125775000Y-153000000D01*
X142700000Y-131800000D02*
X142853984Y-131800000D01*
%TO.N,/sheet6197BEAD/GND_heater*%
X100500000Y-66500000D02*
X97775000Y-66500000D01*
X101914214Y-84585786D02*
X99414214Y-84585786D01*
X102853984Y-83800000D02*
X103701992Y-82951992D01*
X99414214Y-84585786D02*
X98775000Y-85225000D01*
X81914214Y-69585786D02*
X82700000Y-68800000D01*
X101914214Y-84585786D02*
X102700000Y-83800000D01*
X83775000Y-65500000D02*
X83775000Y-66375000D01*
X83775000Y-66375000D02*
X84100000Y-66700000D01*
X102853984Y-68800000D02*
X103701992Y-67951992D01*
X84100000Y-67553984D02*
X83701992Y-67951992D01*
D36*
X84185786Y-84585786D02*
X81914214Y-84585786D01*
D35*
X82853984Y-68800000D02*
X83701992Y-67951992D01*
X84100000Y-66700000D02*
X84100000Y-67553984D01*
X87125000Y-89275000D02*
X86400000Y-90000000D01*
D36*
X85750000Y-84975000D02*
X84575000Y-84975000D01*
D35*
X87325000Y-84325000D02*
X87125000Y-84525000D01*
X86400000Y-90000000D02*
X85775000Y-90000000D01*
D36*
X87325000Y-84325000D02*
X86675000Y-84975000D01*
D35*
X82700000Y-68800000D02*
X82853984Y-68800000D01*
X98775000Y-85225000D02*
X97500000Y-85225000D01*
X102700000Y-83800000D02*
X102853984Y-83800000D01*
D36*
X84575000Y-84975000D02*
X84185786Y-84585786D01*
X86675000Y-84975000D02*
X85750000Y-84975000D01*
D35*
X101914214Y-69585786D02*
X101914214Y-67914214D01*
X87125000Y-84525000D02*
X87125000Y-89275000D01*
X102700000Y-68800000D02*
X102853984Y-68800000D01*
X101914214Y-67914214D02*
X100500000Y-66500000D01*
X101914214Y-69585786D02*
X102700000Y-68800000D01*
%TO.N,/sheet61977B89/GND_zener*%
X142885786Y-103914214D02*
X143000000Y-103800000D01*
X141914214Y-103914214D02*
X142885786Y-103914214D01*
%TO.N,/sheet6197811F/GND_zener*%
X141914214Y-135414214D02*
X142885786Y-135414214D01*
X142885786Y-135414214D02*
X143000000Y-135300000D01*
%TO.N,/sheet6197BEAD/GND_zener*%
X101914214Y-72414214D02*
X102885786Y-72414214D01*
X102885786Y-72414214D02*
X103000000Y-72300000D01*
%TO.N,/sheet61977749/GND_zener*%
X102885786Y-103914214D02*
X103000000Y-103800000D01*
X101914214Y-103914214D02*
X102885786Y-103914214D01*
%TO.N,/Reference Block 1/GND_zener*%
X142885786Y-72414214D02*
X143000000Y-72300000D01*
X141914214Y-72414214D02*
X142885786Y-72414214D01*
%TO.N,Net-(U21C-+)*%
X92500000Y-71500000D02*
X93000000Y-71000000D01*
X93000000Y-71000000D02*
X93675000Y-71000000D01*
X92980000Y-77230000D02*
X92500000Y-76750000D01*
X92500000Y-76750000D02*
X92500000Y-71500000D01*
X94475000Y-77230000D02*
X92980000Y-77230000D01*
%TO.N,Net-(U21D-+)*%
X93675000Y-86000000D02*
X93000000Y-86000000D01*
X92980000Y-79770000D02*
X94475000Y-79770000D01*
X92500000Y-85500000D02*
X92500000Y-80250000D01*
X93000000Y-86000000D02*
X92500000Y-85500000D01*
X92500000Y-80250000D02*
X92980000Y-79770000D01*
%TO.N,Net-(#FLG0107-pwr)*%
X133500000Y-78500000D02*
X133000000Y-78000000D01*
X133000000Y-78000000D02*
X132500000Y-78000000D01*
X134475000Y-78500000D02*
X133500000Y-78500000D01*
%TD*%
%TA.AperFunction,Conductor*%
%TO.N,GND*%
G36*
X64771591Y-60034939D02*
G01*
X64811819Y-60061819D01*
X64963681Y-60213681D01*
X64990561Y-60253909D01*
X65000000Y-60301362D01*
X65000000Y-130000000D01*
X104698638Y-130000000D01*
X104746091Y-130009439D01*
X104786319Y-130036319D01*
X104963681Y-130213681D01*
X104990561Y-130253909D01*
X105000000Y-130301362D01*
X105000000Y-159698638D01*
X104990561Y-159746091D01*
X104963681Y-159786319D01*
X104811819Y-159938181D01*
X104771591Y-159965061D01*
X104724138Y-159974500D01*
X35275862Y-159974500D01*
X35228409Y-159965061D01*
X35188181Y-159938181D01*
X35061819Y-159811819D01*
X35034939Y-159771591D01*
X35025500Y-159724138D01*
X35025500Y-154385635D01*
X36080801Y-154385635D01*
X36087340Y-154556204D01*
X36090656Y-154642718D01*
X36139639Y-154895283D01*
X36160056Y-154952130D01*
X36226601Y-155137413D01*
X36349505Y-155363430D01*
X36505465Y-155568030D01*
X36505468Y-155568033D01*
X36505469Y-155568034D01*
X36690838Y-155746434D01*
X36901268Y-155894447D01*
X37131826Y-156008604D01*
X37377108Y-156086228D01*
X37631364Y-156125500D01*
X37824227Y-156125500D01*
X37824229Y-156125500D01*
X37848227Y-156123657D01*
X38016517Y-156110737D01*
X38029897Y-156107606D01*
X69867000Y-156107606D01*
X69881904Y-156287471D01*
X69881904Y-156287474D01*
X69881905Y-156287476D01*
X69941017Y-156520905D01*
X70037745Y-156741422D01*
X70169449Y-156943010D01*
X70332537Y-157120171D01*
X70522561Y-157268072D01*
X70734336Y-157382679D01*
X70962087Y-157460866D01*
X71199601Y-157500500D01*
X71440399Y-157500500D01*
X71677913Y-157460866D01*
X71905664Y-157382679D01*
X72117439Y-157268072D01*
X72307463Y-157120171D01*
X72470551Y-156943010D01*
X72486191Y-156919070D01*
X72530982Y-156877837D01*
X72590000Y-156862892D01*
X72649018Y-156877837D01*
X72693808Y-156919070D01*
X72709449Y-156943010D01*
X72872537Y-157120171D01*
X73062561Y-157268072D01*
X73274336Y-157382679D01*
X73502087Y-157460866D01*
X73739601Y-157500500D01*
X73980399Y-157500500D01*
X74217913Y-157460866D01*
X74445664Y-157382679D01*
X74657439Y-157268072D01*
X74799930Y-157157166D01*
X74852358Y-157133313D01*
X74909907Y-157135720D01*
X74960160Y-157163868D01*
X74992273Y-157211685D01*
X75003702Y-157242328D01*
X75003703Y-157242330D01*
X75003704Y-157242331D01*
X75089954Y-157357546D01*
X75205169Y-157443796D01*
X75340017Y-157494091D01*
X75399627Y-157500500D01*
X77400372Y-157500499D01*
X77459983Y-157494091D01*
X77594831Y-157443796D01*
X77710046Y-157357546D01*
X77796296Y-157242331D01*
X77846591Y-157107483D01*
X77853000Y-157047873D01*
X77852999Y-154952128D01*
X77846591Y-154892517D01*
X77796296Y-154757669D01*
X77710046Y-154642454D01*
X77594831Y-154556204D01*
X77459983Y-154505909D01*
X77400373Y-154499500D01*
X77400369Y-154499500D01*
X75399630Y-154499500D01*
X75340015Y-154505909D01*
X75205169Y-154556204D01*
X75089954Y-154642454D01*
X75003703Y-154757670D01*
X74992273Y-154788315D01*
X74960159Y-154836131D01*
X74909907Y-154864279D01*
X74852358Y-154866686D01*
X74799930Y-154842833D01*
X74791319Y-154836131D01*
X74657439Y-154731928D01*
X74445664Y-154617321D01*
X74445660Y-154617319D01*
X74445659Y-154617319D01*
X74217915Y-154539134D01*
X73980399Y-154499500D01*
X73739601Y-154499500D01*
X73502084Y-154539134D01*
X73274340Y-154617319D01*
X73274336Y-154617320D01*
X73274336Y-154617321D01*
X73133152Y-154693725D01*
X73062559Y-154731929D01*
X72872536Y-154879829D01*
X72709445Y-155056994D01*
X72693805Y-155080932D01*
X72649013Y-155122163D01*
X72589996Y-155137107D01*
X72530980Y-155122161D01*
X72486191Y-155080929D01*
X72470551Y-155056990D01*
X72307463Y-154879829D01*
X72117439Y-154731928D01*
X71905664Y-154617321D01*
X71905660Y-154617319D01*
X71905659Y-154617319D01*
X71677915Y-154539134D01*
X71440399Y-154499500D01*
X71199601Y-154499500D01*
X70962084Y-154539134D01*
X70734340Y-154617319D01*
X70734336Y-154617320D01*
X70734336Y-154617321D01*
X70593152Y-154693725D01*
X70522559Y-154731929D01*
X70332536Y-154879829D01*
X70169448Y-155056991D01*
X70037745Y-155258577D01*
X69941017Y-155479093D01*
X69881904Y-155712528D01*
X69867000Y-155892394D01*
X69867000Y-156107606D01*
X38029897Y-156107606D01*
X38267021Y-156052117D01*
X38505641Y-155955944D01*
X38726783Y-155824474D01*
X38925265Y-155660787D01*
X39096435Y-155468720D01*
X39236279Y-155252775D01*
X39341521Y-155018014D01*
X39409693Y-154769939D01*
X39439198Y-154514365D01*
X39429344Y-154257282D01*
X39380361Y-154004717D01*
X39293399Y-153762588D01*
X39170496Y-153536572D01*
X39090237Y-153431282D01*
X39014534Y-153331969D01*
X39014531Y-153331966D01*
X38829162Y-153153566D01*
X38618732Y-153005553D01*
X38618730Y-153005552D01*
X38388173Y-152891395D01*
X38142894Y-152813772D01*
X37973388Y-152787590D01*
X37888636Y-152774500D01*
X37695773Y-152774500D01*
X37695771Y-152774500D01*
X37503483Y-152789263D01*
X37252979Y-152847882D01*
X37014360Y-152944055D01*
X36793217Y-153075525D01*
X36594733Y-153239213D01*
X36423562Y-153431282D01*
X36283721Y-153647222D01*
X36178478Y-153881987D01*
X36110307Y-154130057D01*
X36080801Y-154385635D01*
X35025500Y-154385635D01*
X35025500Y-146829999D01*
X39019627Y-146829999D01*
X39039079Y-147052331D01*
X39039080Y-147052334D01*
X39096844Y-147267913D01*
X39191165Y-147470186D01*
X39319178Y-147653007D01*
X39476993Y-147810822D01*
X39606562Y-147901547D01*
X39649296Y-147954007D01*
X39658128Y-148021092D01*
X39630427Y-148082826D01*
X39574441Y-148120827D01*
X39455665Y-148160186D01*
X39455663Y-148160186D01*
X39455663Y-148160187D01*
X39306342Y-148252288D01*
X39182288Y-148376342D01*
X39090186Y-148525664D01*
X39035000Y-148692201D01*
X39024500Y-148794990D01*
X39024500Y-149945010D01*
X39035000Y-150047798D01*
X39090186Y-150214335D01*
X39182288Y-150363657D01*
X39306342Y-150487711D01*
X39306344Y-150487712D01*
X39455665Y-150579814D01*
X39567015Y-150616712D01*
X39622201Y-150634999D01*
X39724990Y-150645500D01*
X40875010Y-150645500D01*
X40977798Y-150634999D01*
X40977798Y-150634998D01*
X41144335Y-150579814D01*
X41293656Y-150487712D01*
X41417712Y-150363656D01*
X41509814Y-150214335D01*
X41564999Y-150047798D01*
X41575500Y-149945010D01*
X41575500Y-149369999D01*
X44099627Y-149369999D01*
X44119079Y-149592331D01*
X44119080Y-149592334D01*
X44176844Y-149807913D01*
X44271165Y-150010186D01*
X44399178Y-150193007D01*
X44556993Y-150350822D01*
X44739814Y-150478835D01*
X44942087Y-150573156D01*
X45157666Y-150630920D01*
X45305888Y-150643887D01*
X45379999Y-150650372D01*
X45379999Y-150650371D01*
X45380000Y-150650372D01*
X45602334Y-150630920D01*
X45817913Y-150573156D01*
X46020186Y-150478835D01*
X46203007Y-150350822D01*
X46360822Y-150193007D01*
X46488835Y-150010186D01*
X46583156Y-149807913D01*
X46640920Y-149592334D01*
X46660372Y-149370000D01*
X46640920Y-149147666D01*
X46583156Y-148932087D01*
X46488835Y-148729814D01*
X46360822Y-148546993D01*
X46203007Y-148389178D01*
X46020186Y-148261165D01*
X46020182Y-148261162D01*
X45915570Y-148212382D01*
X45863394Y-148166625D01*
X45843974Y-148100000D01*
X45863394Y-148033375D01*
X45915570Y-147987618D01*
X46020182Y-147938837D01*
X46020182Y-147938836D01*
X46020186Y-147938835D01*
X46203007Y-147810822D01*
X46360822Y-147653007D01*
X46434441Y-147547869D01*
X57999500Y-147547869D01*
X58005909Y-147607483D01*
X58056204Y-147742331D01*
X58142454Y-147857546D01*
X58257669Y-147943796D01*
X58392517Y-147994091D01*
X58452127Y-148000500D01*
X60547872Y-148000499D01*
X60607483Y-147994091D01*
X60742331Y-147943796D01*
X60857546Y-147857546D01*
X60943796Y-147742331D01*
X60994091Y-147607483D01*
X61000500Y-147547873D01*
X61000500Y-147547869D01*
X70999500Y-147547869D01*
X71005909Y-147607483D01*
X71056204Y-147742331D01*
X71142454Y-147857546D01*
X71257669Y-147943796D01*
X71392517Y-147994091D01*
X71452127Y-148000500D01*
X73547872Y-148000499D01*
X73607483Y-147994091D01*
X73742331Y-147943796D01*
X73857546Y-147857546D01*
X73943796Y-147742331D01*
X73994091Y-147607483D01*
X74000500Y-147547873D01*
X74000499Y-145452128D01*
X73994091Y-145392517D01*
X73943796Y-145257669D01*
X73857546Y-145142454D01*
X73742331Y-145056204D01*
X73607483Y-145005909D01*
X73547873Y-144999500D01*
X73547869Y-144999500D01*
X71452130Y-144999500D01*
X71392515Y-145005909D01*
X71257669Y-145056204D01*
X71142454Y-145142454D01*
X71056204Y-145257668D01*
X71005909Y-145392516D01*
X70999500Y-145452130D01*
X70999500Y-147547869D01*
X61000500Y-147547869D01*
X61000499Y-145452128D01*
X60994091Y-145392517D01*
X60943796Y-145257669D01*
X60857546Y-145142454D01*
X60742331Y-145056204D01*
X60607483Y-145005909D01*
X60547873Y-144999500D01*
X60547869Y-144999500D01*
X58452130Y-144999500D01*
X58392515Y-145005909D01*
X58257669Y-145056204D01*
X58142454Y-145142454D01*
X58056204Y-145257668D01*
X58005909Y-145392516D01*
X57999500Y-145452130D01*
X57999500Y-147547869D01*
X46434441Y-147547869D01*
X46488835Y-147470186D01*
X46583156Y-147267913D01*
X46640920Y-147052334D01*
X46660372Y-146830000D01*
X46640920Y-146607666D01*
X46583156Y-146392087D01*
X46488835Y-146189814D01*
X46360822Y-146006993D01*
X46203007Y-145849178D01*
X46020186Y-145721165D01*
X46020182Y-145721162D01*
X45915570Y-145672382D01*
X45863394Y-145626625D01*
X45843974Y-145560000D01*
X45863394Y-145493375D01*
X45915570Y-145447618D01*
X46020182Y-145398837D01*
X46020182Y-145398836D01*
X46020186Y-145398835D01*
X46203007Y-145270822D01*
X46360822Y-145113007D01*
X46488835Y-144930186D01*
X46583156Y-144727913D01*
X46640920Y-144512334D01*
X46660372Y-144290000D01*
X46640920Y-144067666D01*
X46583156Y-143852087D01*
X46488835Y-143649814D01*
X46360822Y-143466993D01*
X46203007Y-143309178D01*
X46020186Y-143181165D01*
X46020182Y-143181162D01*
X45915570Y-143132382D01*
X45863394Y-143086625D01*
X45843974Y-143020000D01*
X45863394Y-142953375D01*
X45915570Y-142907618D01*
X46020182Y-142858837D01*
X46020182Y-142858836D01*
X46020186Y-142858835D01*
X46203007Y-142730822D01*
X46210219Y-142723610D01*
X58629942Y-142723610D01*
X58676766Y-142760055D01*
X58895393Y-142878368D01*
X59130506Y-142959083D01*
X59375707Y-143000000D01*
X59624293Y-143000000D01*
X59869493Y-142959083D01*
X60104606Y-142878368D01*
X60323233Y-142760053D01*
X60370055Y-142723610D01*
X71629942Y-142723610D01*
X71676766Y-142760055D01*
X71895393Y-142878368D01*
X72130506Y-142959083D01*
X72375707Y-143000000D01*
X72624293Y-143000000D01*
X72869493Y-142959083D01*
X73104606Y-142878368D01*
X73323233Y-142760053D01*
X73370056Y-142723609D01*
X72500000Y-141853553D01*
X71629942Y-142723609D01*
X71629942Y-142723610D01*
X60370055Y-142723610D01*
X60370056Y-142723609D01*
X59500000Y-141853553D01*
X58629942Y-142723609D01*
X58629942Y-142723610D01*
X46210219Y-142723610D01*
X46360822Y-142573007D01*
X46488835Y-142390186D01*
X46583156Y-142187913D01*
X46640920Y-141972334D01*
X46660372Y-141750000D01*
X46640920Y-141527666D01*
X46633507Y-141500000D01*
X57994858Y-141500000D01*
X58015386Y-141747732D01*
X58076413Y-141988721D01*
X58176268Y-142216370D01*
X58276563Y-142369882D01*
X58276564Y-142369882D01*
X59146447Y-141500001D01*
X59853553Y-141500001D01*
X60723434Y-142369882D01*
X60823730Y-142216369D01*
X60923586Y-141988721D01*
X60984613Y-141747732D01*
X61005141Y-141500000D01*
X70994858Y-141500000D01*
X71015386Y-141747732D01*
X71076413Y-141988721D01*
X71176268Y-142216370D01*
X71276563Y-142369882D01*
X71276564Y-142369882D01*
X72146447Y-141500001D01*
X72853553Y-141500001D01*
X73723434Y-142369882D01*
X73823730Y-142216369D01*
X73923586Y-141988721D01*
X73984613Y-141747732D01*
X74005141Y-141500000D01*
X73984613Y-141252267D01*
X73923586Y-141011278D01*
X73823730Y-140783630D01*
X73723434Y-140630116D01*
X72853553Y-141500000D01*
X72853553Y-141500001D01*
X72146447Y-141500001D01*
X72146447Y-141500000D01*
X71276564Y-140630116D01*
X71176266Y-140783634D01*
X71076413Y-141011278D01*
X71015386Y-141252267D01*
X70994858Y-141500000D01*
X61005141Y-141500000D01*
X60984613Y-141252267D01*
X60923586Y-141011278D01*
X60823730Y-140783630D01*
X60723434Y-140630116D01*
X59853553Y-141500000D01*
X59853553Y-141500001D01*
X59146447Y-141500001D01*
X59146447Y-141500000D01*
X58276564Y-140630116D01*
X58176266Y-140783634D01*
X58076413Y-141011278D01*
X58015386Y-141252267D01*
X57994858Y-141500000D01*
X46633507Y-141500000D01*
X46583156Y-141312087D01*
X46488835Y-141109814D01*
X46360822Y-140926993D01*
X46203007Y-140769178D01*
X46020186Y-140641165D01*
X46020182Y-140641162D01*
X45915570Y-140592382D01*
X45863394Y-140546625D01*
X45843974Y-140480000D01*
X45863394Y-140413375D01*
X45915570Y-140367618D01*
X46020182Y-140318837D01*
X46020182Y-140318836D01*
X46020186Y-140318835D01*
X46080804Y-140276390D01*
X58629942Y-140276390D01*
X59500000Y-141146447D01*
X59500001Y-141146447D01*
X60370057Y-140276390D01*
X71629942Y-140276390D01*
X72500000Y-141146447D01*
X72500001Y-141146447D01*
X73370057Y-140276390D01*
X73370056Y-140276388D01*
X73323235Y-140239947D01*
X73104606Y-140121631D01*
X72869493Y-140040916D01*
X72624293Y-140000000D01*
X72375707Y-140000000D01*
X72130506Y-140040916D01*
X71895393Y-140121631D01*
X71676764Y-140239946D01*
X71629942Y-140276388D01*
X71629942Y-140276390D01*
X60370057Y-140276390D01*
X60370056Y-140276388D01*
X60323235Y-140239947D01*
X60104606Y-140121631D01*
X59869493Y-140040916D01*
X59624293Y-140000000D01*
X59375707Y-140000000D01*
X59130506Y-140040916D01*
X58895393Y-140121631D01*
X58676764Y-140239946D01*
X58629942Y-140276388D01*
X58629942Y-140276390D01*
X46080804Y-140276390D01*
X46203007Y-140190822D01*
X46360822Y-140033007D01*
X46488835Y-139850186D01*
X46583156Y-139647913D01*
X46640920Y-139432334D01*
X46660372Y-139210000D01*
X46640920Y-138987666D01*
X46583156Y-138772087D01*
X46488835Y-138569814D01*
X46360822Y-138386993D01*
X46203007Y-138229178D01*
X46020186Y-138101165D01*
X46020182Y-138101162D01*
X45915570Y-138052382D01*
X45863394Y-138006625D01*
X45843974Y-137940000D01*
X45863394Y-137873375D01*
X45915570Y-137827618D01*
X46020182Y-137778837D01*
X46020182Y-137778836D01*
X46020186Y-137778835D01*
X46203007Y-137650822D01*
X46360822Y-137493007D01*
X46488835Y-137310186D01*
X46583156Y-137107913D01*
X46640920Y-136892334D01*
X46660372Y-136670000D01*
X46640920Y-136447666D01*
X46583156Y-136232087D01*
X46488835Y-136029814D01*
X46360822Y-135846993D01*
X46203007Y-135689178D01*
X46020186Y-135561165D01*
X45974961Y-135540076D01*
X45915569Y-135512381D01*
X45863393Y-135466624D01*
X45843974Y-135399998D01*
X45863394Y-135333373D01*
X45915567Y-135287619D01*
X46020186Y-135238835D01*
X46203007Y-135110822D01*
X46360822Y-134953007D01*
X46488835Y-134770186D01*
X46583156Y-134567913D01*
X46640920Y-134352334D01*
X46660372Y-134130000D01*
X46640920Y-133907666D01*
X46583156Y-133692087D01*
X46488835Y-133489814D01*
X46360822Y-133306993D01*
X46203007Y-133149178D01*
X46020186Y-133021165D01*
X46020182Y-133021162D01*
X45915570Y-132972382D01*
X45863394Y-132926625D01*
X45843974Y-132860000D01*
X45863394Y-132793375D01*
X45915570Y-132747618D01*
X46020182Y-132698837D01*
X46020182Y-132698836D01*
X46020186Y-132698835D01*
X46203007Y-132570822D01*
X46360822Y-132413007D01*
X46488835Y-132230186D01*
X46583156Y-132027913D01*
X46640920Y-131812334D01*
X46660372Y-131590000D01*
X46640920Y-131367666D01*
X46583156Y-131152087D01*
X46488835Y-130949814D01*
X46360822Y-130766993D01*
X46203007Y-130609178D01*
X46020186Y-130481165D01*
X45974961Y-130460076D01*
X45915569Y-130432381D01*
X45863393Y-130386624D01*
X45843974Y-130319998D01*
X45863394Y-130253373D01*
X45915567Y-130207619D01*
X46020186Y-130158835D01*
X46203007Y-130030822D01*
X46360822Y-129873007D01*
X46488835Y-129690186D01*
X46583156Y-129487913D01*
X46640920Y-129272334D01*
X46660372Y-129050000D01*
X46640920Y-128827666D01*
X46583156Y-128612087D01*
X46488835Y-128409814D01*
X46360822Y-128226993D01*
X46203007Y-128069178D01*
X46020186Y-127941165D01*
X46020182Y-127941162D01*
X45915570Y-127892382D01*
X45863394Y-127846625D01*
X45843974Y-127780000D01*
X45863394Y-127713375D01*
X45915570Y-127667618D01*
X46020182Y-127618837D01*
X46020182Y-127618836D01*
X46020186Y-127618835D01*
X46203007Y-127490822D01*
X46360822Y-127333007D01*
X46488835Y-127150186D01*
X46583156Y-126947913D01*
X46640920Y-126732334D01*
X46660372Y-126510000D01*
X46640920Y-126287666D01*
X46583156Y-126072087D01*
X46488835Y-125869814D01*
X46360822Y-125686993D01*
X46203007Y-125529178D01*
X46020186Y-125401165D01*
X45974961Y-125380076D01*
X45915569Y-125352381D01*
X45863393Y-125306624D01*
X45843974Y-125239998D01*
X45863394Y-125173373D01*
X45915567Y-125127619D01*
X46020186Y-125078835D01*
X46203007Y-124950822D01*
X46360822Y-124793007D01*
X46488835Y-124610186D01*
X46583156Y-124407913D01*
X46640920Y-124192334D01*
X46660372Y-123970000D01*
X46640920Y-123747666D01*
X46583156Y-123532087D01*
X46488835Y-123329814D01*
X46360822Y-123146993D01*
X46203007Y-122989178D01*
X46020186Y-122861165D01*
X46020182Y-122861162D01*
X45915570Y-122812382D01*
X45863394Y-122766625D01*
X45843974Y-122700000D01*
X45863394Y-122633375D01*
X45915570Y-122587618D01*
X46020182Y-122538837D01*
X46020182Y-122538836D01*
X46020186Y-122538835D01*
X46203007Y-122410822D01*
X46360822Y-122253007D01*
X46488835Y-122070186D01*
X46583156Y-121867913D01*
X46640920Y-121652334D01*
X46660372Y-121430000D01*
X46640920Y-121207666D01*
X46583156Y-120992087D01*
X46488835Y-120789814D01*
X46360822Y-120606993D01*
X46203007Y-120449178D01*
X46020186Y-120321165D01*
X46020182Y-120321162D01*
X45915570Y-120272382D01*
X45863394Y-120226625D01*
X45843974Y-120160000D01*
X45863394Y-120093375D01*
X45915570Y-120047618D01*
X46020182Y-119998837D01*
X46020182Y-119998836D01*
X46020186Y-119998835D01*
X46203007Y-119870822D01*
X46360822Y-119713007D01*
X46488835Y-119530186D01*
X46583156Y-119327913D01*
X46640920Y-119112334D01*
X46660372Y-118890000D01*
X46640920Y-118667666D01*
X46583156Y-118452087D01*
X46488835Y-118249814D01*
X46360822Y-118066993D01*
X46203007Y-117909178D01*
X46020186Y-117781165D01*
X46020182Y-117781162D01*
X45915570Y-117732382D01*
X45863394Y-117686625D01*
X45843974Y-117620000D01*
X45863394Y-117553375D01*
X45915570Y-117507618D01*
X46020182Y-117458837D01*
X46020182Y-117458836D01*
X46020186Y-117458835D01*
X46203007Y-117330822D01*
X46360822Y-117173007D01*
X46488835Y-116990186D01*
X46583156Y-116787913D01*
X46640920Y-116572334D01*
X46660372Y-116350000D01*
X46640920Y-116127666D01*
X46583156Y-115912087D01*
X46488835Y-115709814D01*
X46360822Y-115526993D01*
X46203007Y-115369178D01*
X46020186Y-115241165D01*
X45971944Y-115218669D01*
X45914977Y-115192105D01*
X45862801Y-115146348D01*
X45843382Y-115079722D01*
X45862802Y-115013097D01*
X45914979Y-114967340D01*
X46019936Y-114918398D01*
X46087522Y-114871074D01*
X45380000Y-114163553D01*
X44672476Y-114871074D01*
X44672477Y-114871075D01*
X44740066Y-114918401D01*
X44845021Y-114967342D01*
X44897197Y-115013099D01*
X44916617Y-115079724D01*
X44897198Y-115146349D01*
X44845022Y-115192105D01*
X44739814Y-115241165D01*
X44599525Y-115339397D01*
X44556989Y-115369181D01*
X44399181Y-115526989D01*
X44399178Y-115526992D01*
X44399178Y-115526993D01*
X44306517Y-115659327D01*
X44271164Y-115709816D01*
X44176844Y-115912085D01*
X44119079Y-116127668D01*
X44099627Y-116350000D01*
X44119079Y-116572331D01*
X44176844Y-116787914D01*
X44208318Y-116855410D01*
X44271165Y-116990186D01*
X44399178Y-117173007D01*
X44556993Y-117330822D01*
X44739814Y-117458835D01*
X44828093Y-117500000D01*
X44844430Y-117507618D01*
X44896606Y-117553375D01*
X44916025Y-117620000D01*
X44896606Y-117686625D01*
X44844430Y-117732381D01*
X44739814Y-117781165D01*
X44556993Y-117909178D01*
X44556989Y-117909181D01*
X44399181Y-118066989D01*
X44399178Y-118066992D01*
X44399178Y-118066993D01*
X44288881Y-118224514D01*
X44271164Y-118249816D01*
X44176844Y-118452085D01*
X44119079Y-118667668D01*
X44099627Y-118890000D01*
X44119079Y-119112331D01*
X44176844Y-119327914D01*
X44182794Y-119340673D01*
X44271165Y-119530186D01*
X44399178Y-119713007D01*
X44556993Y-119870822D01*
X44739814Y-119998835D01*
X44818149Y-120035363D01*
X44844430Y-120047618D01*
X44896606Y-120093375D01*
X44916025Y-120160000D01*
X44896606Y-120226625D01*
X44844430Y-120272381D01*
X44739814Y-120321165D01*
X44556993Y-120449178D01*
X44556989Y-120449181D01*
X44399181Y-120606989D01*
X44399178Y-120606992D01*
X44399178Y-120606993D01*
X44285408Y-120769474D01*
X44271164Y-120789816D01*
X44176844Y-120992085D01*
X44119079Y-121207668D01*
X44099627Y-121429999D01*
X44119079Y-121652331D01*
X44176844Y-121867914D01*
X44227677Y-121976925D01*
X44271165Y-122070186D01*
X44399178Y-122253007D01*
X44556993Y-122410822D01*
X44739814Y-122538835D01*
X44844430Y-122587618D01*
X44896606Y-122633375D01*
X44916025Y-122700000D01*
X44896606Y-122766625D01*
X44844430Y-122812381D01*
X44739814Y-122861165D01*
X44556993Y-122989178D01*
X44556989Y-122989181D01*
X44399181Y-123146989D01*
X44271164Y-123329816D01*
X44176844Y-123532085D01*
X44119079Y-123747668D01*
X44099627Y-123969999D01*
X44119079Y-124192331D01*
X44136022Y-124255565D01*
X44176844Y-124407913D01*
X44271165Y-124610186D01*
X44399178Y-124793007D01*
X44556993Y-124950822D01*
X44739814Y-125078835D01*
X44844432Y-125127619D01*
X44896605Y-125173373D01*
X44916025Y-125239998D01*
X44896606Y-125306623D01*
X44844430Y-125352381D01*
X44739816Y-125401163D01*
X44556989Y-125529181D01*
X44399181Y-125686989D01*
X44271164Y-125869816D01*
X44176844Y-126072085D01*
X44119079Y-126287668D01*
X44099627Y-126510000D01*
X44119079Y-126732331D01*
X44119080Y-126732334D01*
X44176844Y-126947913D01*
X44271165Y-127150186D01*
X44399178Y-127333007D01*
X44556993Y-127490822D01*
X44739814Y-127618835D01*
X44844430Y-127667618D01*
X44896606Y-127713375D01*
X44916025Y-127780000D01*
X44896606Y-127846625D01*
X44844430Y-127892381D01*
X44739814Y-127941165D01*
X44556993Y-128069178D01*
X44556989Y-128069181D01*
X44399181Y-128226989D01*
X44271164Y-128409816D01*
X44176844Y-128612085D01*
X44119079Y-128827668D01*
X44099627Y-129050000D01*
X44119079Y-129272331D01*
X44119080Y-129272334D01*
X44176844Y-129487913D01*
X44271165Y-129690186D01*
X44399178Y-129873007D01*
X44556993Y-130030822D01*
X44739814Y-130158835D01*
X44844432Y-130207619D01*
X44896605Y-130253373D01*
X44916025Y-130319998D01*
X44896606Y-130386623D01*
X44844430Y-130432381D01*
X44739816Y-130481163D01*
X44556989Y-130609181D01*
X44399181Y-130766989D01*
X44271164Y-130949816D01*
X44176844Y-131152085D01*
X44119079Y-131367668D01*
X44099627Y-131590000D01*
X44119079Y-131812331D01*
X44119080Y-131812334D01*
X44176844Y-132027913D01*
X44271165Y-132230186D01*
X44399178Y-132413007D01*
X44556993Y-132570822D01*
X44739814Y-132698835D01*
X44844430Y-132747618D01*
X44896606Y-132793375D01*
X44916025Y-132860000D01*
X44896606Y-132926625D01*
X44844430Y-132972381D01*
X44739814Y-133021165D01*
X44556993Y-133149178D01*
X44556989Y-133149181D01*
X44399181Y-133306989D01*
X44271164Y-133489816D01*
X44176844Y-133692085D01*
X44119079Y-133907668D01*
X44099627Y-134129999D01*
X44119079Y-134352331D01*
X44119080Y-134352334D01*
X44176844Y-134567913D01*
X44271165Y-134770186D01*
X44399178Y-134953007D01*
X44556993Y-135110822D01*
X44739814Y-135238835D01*
X44844432Y-135287619D01*
X44896605Y-135333373D01*
X44916025Y-135399998D01*
X44896606Y-135466623D01*
X44844430Y-135512381D01*
X44739816Y-135561163D01*
X44556989Y-135689181D01*
X44399181Y-135846989D01*
X44271164Y-136029816D01*
X44176844Y-136232085D01*
X44119079Y-136447668D01*
X44099627Y-136669999D01*
X44119079Y-136892331D01*
X44119080Y-136892334D01*
X44176844Y-137107913D01*
X44271165Y-137310186D01*
X44399178Y-137493007D01*
X44556993Y-137650822D01*
X44739814Y-137778835D01*
X44844430Y-137827618D01*
X44896606Y-137873375D01*
X44916025Y-137940000D01*
X44896606Y-138006625D01*
X44844430Y-138052381D01*
X44739814Y-138101165D01*
X44556993Y-138229178D01*
X44556989Y-138229181D01*
X44399181Y-138386989D01*
X44271164Y-138569816D01*
X44176844Y-138772085D01*
X44119079Y-138987668D01*
X44099627Y-139210000D01*
X44119079Y-139432331D01*
X44119080Y-139432334D01*
X44176844Y-139647913D01*
X44271165Y-139850186D01*
X44399178Y-140033007D01*
X44556993Y-140190822D01*
X44739814Y-140318835D01*
X44844430Y-140367618D01*
X44896606Y-140413375D01*
X44916025Y-140480000D01*
X44896606Y-140546625D01*
X44844430Y-140592381D01*
X44739814Y-140641165D01*
X44556993Y-140769178D01*
X44556989Y-140769181D01*
X44399181Y-140926989D01*
X44271164Y-141109816D01*
X44176844Y-141312085D01*
X44119079Y-141527668D01*
X44099627Y-141750000D01*
X44119079Y-141972331D01*
X44176844Y-142187914D01*
X44227677Y-142296925D01*
X44271165Y-142390186D01*
X44399178Y-142573007D01*
X44556993Y-142730822D01*
X44739814Y-142858835D01*
X44844430Y-142907618D01*
X44896606Y-142953375D01*
X44916025Y-143020000D01*
X44896606Y-143086625D01*
X44844430Y-143132381D01*
X44739814Y-143181165D01*
X44556993Y-143309178D01*
X44556989Y-143309181D01*
X44399181Y-143466989D01*
X44271164Y-143649816D01*
X44176844Y-143852085D01*
X44119079Y-144067668D01*
X44099627Y-144290000D01*
X44119079Y-144512331D01*
X44119080Y-144512334D01*
X44176844Y-144727913D01*
X44271165Y-144930186D01*
X44399178Y-145113007D01*
X44556993Y-145270822D01*
X44739814Y-145398835D01*
X44844430Y-145447618D01*
X44896606Y-145493375D01*
X44916025Y-145560000D01*
X44896606Y-145626625D01*
X44844430Y-145672381D01*
X44739814Y-145721165D01*
X44556993Y-145849178D01*
X44556989Y-145849181D01*
X44399181Y-146006989D01*
X44271164Y-146189816D01*
X44176844Y-146392085D01*
X44119079Y-146607668D01*
X44099627Y-146829999D01*
X44119079Y-147052331D01*
X44119080Y-147052334D01*
X44176844Y-147267913D01*
X44271165Y-147470186D01*
X44399178Y-147653007D01*
X44556993Y-147810822D01*
X44739814Y-147938835D01*
X44844430Y-147987618D01*
X44896606Y-148033375D01*
X44916025Y-148100000D01*
X44896606Y-148166625D01*
X44844430Y-148212381D01*
X44739814Y-148261165D01*
X44575325Y-148376342D01*
X44556989Y-148389181D01*
X44399181Y-148546989D01*
X44399178Y-148546992D01*
X44399178Y-148546993D01*
X44297502Y-148692202D01*
X44271164Y-148729816D01*
X44176844Y-148932085D01*
X44119079Y-149147668D01*
X44099627Y-149369999D01*
X41575500Y-149369999D01*
X41575500Y-148794990D01*
X41564999Y-148692202D01*
X41509814Y-148525665D01*
X41417712Y-148376344D01*
X41417711Y-148376342D01*
X41293657Y-148252288D01*
X41144335Y-148160186D01*
X41025558Y-148120827D01*
X40969572Y-148082826D01*
X40941871Y-148021092D01*
X40950703Y-147954007D01*
X40993437Y-147901547D01*
X41123007Y-147810822D01*
X41280822Y-147653007D01*
X41408835Y-147470186D01*
X41503156Y-147267913D01*
X41560920Y-147052334D01*
X41580372Y-146830000D01*
X41560920Y-146607666D01*
X41503156Y-146392087D01*
X41408835Y-146189814D01*
X41280822Y-146006993D01*
X41123007Y-145849178D01*
X40940186Y-145721165D01*
X40940182Y-145721162D01*
X40835570Y-145672382D01*
X40783394Y-145626625D01*
X40763974Y-145560000D01*
X40783394Y-145493375D01*
X40835570Y-145447618D01*
X40940182Y-145398837D01*
X40940182Y-145398836D01*
X40940186Y-145398835D01*
X41123007Y-145270822D01*
X41280822Y-145113007D01*
X41408835Y-144930186D01*
X41503156Y-144727913D01*
X41560920Y-144512334D01*
X41580372Y-144290000D01*
X41560920Y-144067666D01*
X41503156Y-143852087D01*
X41408835Y-143649814D01*
X41280822Y-143466993D01*
X41123007Y-143309178D01*
X40940186Y-143181165D01*
X40940182Y-143181162D01*
X40835570Y-143132382D01*
X40783394Y-143086625D01*
X40763974Y-143020000D01*
X40783394Y-142953375D01*
X40835570Y-142907618D01*
X40940182Y-142858837D01*
X40940182Y-142858836D01*
X40940186Y-142858835D01*
X41123007Y-142730822D01*
X41280822Y-142573007D01*
X41408835Y-142390186D01*
X41503156Y-142187913D01*
X41560920Y-141972334D01*
X41580372Y-141750000D01*
X41560920Y-141527666D01*
X41503156Y-141312087D01*
X41408835Y-141109814D01*
X41280822Y-140926993D01*
X41123007Y-140769178D01*
X40940186Y-140641165D01*
X40940182Y-140641162D01*
X40835570Y-140592382D01*
X40783394Y-140546625D01*
X40763974Y-140480000D01*
X40783394Y-140413375D01*
X40835570Y-140367618D01*
X40940182Y-140318837D01*
X40940182Y-140318836D01*
X40940186Y-140318835D01*
X41123007Y-140190822D01*
X41280822Y-140033007D01*
X41408835Y-139850186D01*
X41503156Y-139647913D01*
X41560920Y-139432334D01*
X41580372Y-139210000D01*
X41560920Y-138987666D01*
X41503156Y-138772087D01*
X41408835Y-138569814D01*
X41280822Y-138386993D01*
X41123007Y-138229178D01*
X40940186Y-138101165D01*
X40940182Y-138101162D01*
X40835570Y-138052382D01*
X40783394Y-138006625D01*
X40763974Y-137940000D01*
X40783394Y-137873375D01*
X40835570Y-137827618D01*
X40940182Y-137778837D01*
X40940182Y-137778836D01*
X40940186Y-137778835D01*
X41123007Y-137650822D01*
X41280822Y-137493007D01*
X41408835Y-137310186D01*
X41503156Y-137107913D01*
X41560920Y-136892334D01*
X41580372Y-136670000D01*
X41560920Y-136447666D01*
X41503156Y-136232087D01*
X41408835Y-136029814D01*
X41280822Y-135846993D01*
X41123007Y-135689178D01*
X40940186Y-135561165D01*
X40894961Y-135540076D01*
X40835569Y-135512381D01*
X40783393Y-135466624D01*
X40763974Y-135399998D01*
X40783394Y-135333373D01*
X40835567Y-135287619D01*
X40940186Y-135238835D01*
X41123007Y-135110822D01*
X41280822Y-134953007D01*
X41408835Y-134770186D01*
X41503156Y-134567913D01*
X41560920Y-134352334D01*
X41580372Y-134130000D01*
X41560920Y-133907666D01*
X41503156Y-133692087D01*
X41408835Y-133489814D01*
X41280822Y-133306993D01*
X41123007Y-133149178D01*
X40940186Y-133021165D01*
X40940182Y-133021162D01*
X40835570Y-132972382D01*
X40783394Y-132926625D01*
X40763974Y-132860000D01*
X40783394Y-132793375D01*
X40835570Y-132747618D01*
X40940182Y-132698837D01*
X40940182Y-132698836D01*
X40940186Y-132698835D01*
X41123007Y-132570822D01*
X41280822Y-132413007D01*
X41408835Y-132230186D01*
X41503156Y-132027913D01*
X41560920Y-131812334D01*
X41580372Y-131590000D01*
X41560920Y-131367666D01*
X41503156Y-131152087D01*
X41408835Y-130949814D01*
X41280822Y-130766993D01*
X41123007Y-130609178D01*
X40940186Y-130481165D01*
X40894961Y-130460076D01*
X40835569Y-130432381D01*
X40783393Y-130386624D01*
X40763974Y-130319998D01*
X40783394Y-130253373D01*
X40835567Y-130207619D01*
X40940186Y-130158835D01*
X41123007Y-130030822D01*
X41280822Y-129873007D01*
X41408835Y-129690186D01*
X41503156Y-129487913D01*
X41560920Y-129272334D01*
X41580372Y-129050000D01*
X41560920Y-128827666D01*
X41503156Y-128612087D01*
X41408835Y-128409814D01*
X41280822Y-128226993D01*
X41123007Y-128069178D01*
X40940186Y-127941165D01*
X40940182Y-127941162D01*
X40835570Y-127892382D01*
X40783394Y-127846625D01*
X40763974Y-127780000D01*
X40783394Y-127713375D01*
X40835570Y-127667618D01*
X40940182Y-127618837D01*
X40940182Y-127618836D01*
X40940186Y-127618835D01*
X41123007Y-127490822D01*
X41280822Y-127333007D01*
X41408835Y-127150186D01*
X41503156Y-126947913D01*
X41560920Y-126732334D01*
X41580372Y-126510000D01*
X41560920Y-126287666D01*
X41503156Y-126072087D01*
X41408835Y-125869814D01*
X41280822Y-125686993D01*
X41123007Y-125529178D01*
X40940186Y-125401165D01*
X40894961Y-125380076D01*
X40835569Y-125352381D01*
X40783393Y-125306624D01*
X40763974Y-125239998D01*
X40783394Y-125173373D01*
X40835567Y-125127619D01*
X40940186Y-125078835D01*
X41123007Y-124950822D01*
X41280822Y-124793007D01*
X41408835Y-124610186D01*
X41503156Y-124407913D01*
X41560920Y-124192334D01*
X41580372Y-123970000D01*
X41560920Y-123747666D01*
X41503156Y-123532087D01*
X41408835Y-123329814D01*
X41280822Y-123146993D01*
X41123007Y-122989178D01*
X40940186Y-122861165D01*
X40940182Y-122861162D01*
X40835570Y-122812382D01*
X40783394Y-122766625D01*
X40763974Y-122700000D01*
X40783394Y-122633375D01*
X40835570Y-122587618D01*
X40940182Y-122538837D01*
X40940182Y-122538836D01*
X40940186Y-122538835D01*
X41123007Y-122410822D01*
X41280822Y-122253007D01*
X41408835Y-122070186D01*
X41503156Y-121867913D01*
X41560920Y-121652334D01*
X41580372Y-121430000D01*
X41560920Y-121207666D01*
X41503156Y-120992087D01*
X41408835Y-120789814D01*
X41280822Y-120606993D01*
X41123007Y-120449178D01*
X40940186Y-120321165D01*
X40940182Y-120321162D01*
X40835570Y-120272382D01*
X40783394Y-120226625D01*
X40763974Y-120160000D01*
X40783394Y-120093375D01*
X40835570Y-120047618D01*
X40940182Y-119998837D01*
X40940182Y-119998836D01*
X40940186Y-119998835D01*
X41123007Y-119870822D01*
X41280822Y-119713007D01*
X41408835Y-119530186D01*
X41503156Y-119327913D01*
X41560920Y-119112334D01*
X41580372Y-118890000D01*
X41560920Y-118667666D01*
X41503156Y-118452087D01*
X41408835Y-118249814D01*
X41280822Y-118066993D01*
X41123007Y-117909178D01*
X40940186Y-117781165D01*
X40940182Y-117781162D01*
X40835570Y-117732382D01*
X40783394Y-117686625D01*
X40763974Y-117620000D01*
X40783394Y-117553375D01*
X40835570Y-117507618D01*
X40940182Y-117458837D01*
X40940182Y-117458836D01*
X40940186Y-117458835D01*
X41123007Y-117330822D01*
X41280822Y-117173007D01*
X41408835Y-116990186D01*
X41503156Y-116787913D01*
X41560920Y-116572334D01*
X41580372Y-116350000D01*
X41560920Y-116127666D01*
X41503156Y-115912087D01*
X41408835Y-115709814D01*
X41280822Y-115526993D01*
X41123007Y-115369178D01*
X40940186Y-115241165D01*
X40891944Y-115218669D01*
X40834977Y-115192105D01*
X40782801Y-115146348D01*
X40763382Y-115079722D01*
X40782802Y-115013097D01*
X40834979Y-114967340D01*
X40939936Y-114918398D01*
X41007522Y-114871074D01*
X40300000Y-114163553D01*
X39592476Y-114871074D01*
X39592477Y-114871075D01*
X39660066Y-114918401D01*
X39765021Y-114967342D01*
X39817197Y-115013099D01*
X39836617Y-115079724D01*
X39817198Y-115146349D01*
X39765022Y-115192105D01*
X39659814Y-115241165D01*
X39519525Y-115339397D01*
X39476989Y-115369181D01*
X39319181Y-115526989D01*
X39319178Y-115526992D01*
X39319178Y-115526993D01*
X39226517Y-115659327D01*
X39191164Y-115709816D01*
X39096844Y-115912085D01*
X39039079Y-116127668D01*
X39019627Y-116350000D01*
X39039079Y-116572331D01*
X39096844Y-116787914D01*
X39128318Y-116855410D01*
X39191165Y-116990186D01*
X39319178Y-117173007D01*
X39476993Y-117330822D01*
X39659814Y-117458835D01*
X39748093Y-117500000D01*
X39764430Y-117507618D01*
X39816606Y-117553375D01*
X39836025Y-117620000D01*
X39816606Y-117686625D01*
X39764430Y-117732381D01*
X39659814Y-117781165D01*
X39476993Y-117909178D01*
X39476989Y-117909181D01*
X39319181Y-118066989D01*
X39319178Y-118066992D01*
X39319178Y-118066993D01*
X39208881Y-118224514D01*
X39191164Y-118249816D01*
X39096844Y-118452085D01*
X39039079Y-118667668D01*
X39019627Y-118890000D01*
X39039079Y-119112331D01*
X39096844Y-119327914D01*
X39102794Y-119340673D01*
X39191165Y-119530186D01*
X39319178Y-119713007D01*
X39476993Y-119870822D01*
X39659814Y-119998835D01*
X39738149Y-120035363D01*
X39764430Y-120047618D01*
X39816606Y-120093375D01*
X39836025Y-120160000D01*
X39816606Y-120226625D01*
X39764430Y-120272381D01*
X39659814Y-120321165D01*
X39476993Y-120449178D01*
X39476989Y-120449181D01*
X39319181Y-120606989D01*
X39319178Y-120606992D01*
X39319178Y-120606993D01*
X39205408Y-120769474D01*
X39191164Y-120789816D01*
X39096844Y-120992085D01*
X39039079Y-121207668D01*
X39019627Y-121429999D01*
X39039079Y-121652331D01*
X39096844Y-121867914D01*
X39147677Y-121976925D01*
X39191165Y-122070186D01*
X39319178Y-122253007D01*
X39476993Y-122410822D01*
X39659814Y-122538835D01*
X39764430Y-122587618D01*
X39816606Y-122633375D01*
X39836025Y-122700000D01*
X39816606Y-122766625D01*
X39764430Y-122812381D01*
X39659814Y-122861165D01*
X39476993Y-122989178D01*
X39476989Y-122989181D01*
X39319181Y-123146989D01*
X39191164Y-123329816D01*
X39096844Y-123532085D01*
X39039079Y-123747668D01*
X39019627Y-123969999D01*
X39039079Y-124192331D01*
X39056022Y-124255565D01*
X39096844Y-124407913D01*
X39191165Y-124610186D01*
X39319178Y-124793007D01*
X39476993Y-124950822D01*
X39659814Y-125078835D01*
X39764432Y-125127619D01*
X39816605Y-125173373D01*
X39836025Y-125239998D01*
X39816606Y-125306623D01*
X39764430Y-125352381D01*
X39659816Y-125401163D01*
X39476989Y-125529181D01*
X39319181Y-125686989D01*
X39191164Y-125869816D01*
X39096844Y-126072085D01*
X39039079Y-126287668D01*
X39019627Y-126510000D01*
X39039079Y-126732331D01*
X39039080Y-126732334D01*
X39096844Y-126947913D01*
X39191165Y-127150186D01*
X39319178Y-127333007D01*
X39476993Y-127490822D01*
X39659814Y-127618835D01*
X39764430Y-127667618D01*
X39816606Y-127713375D01*
X39836025Y-127780000D01*
X39816606Y-127846625D01*
X39764430Y-127892381D01*
X39659814Y-127941165D01*
X39476993Y-128069178D01*
X39476989Y-128069181D01*
X39319181Y-128226989D01*
X39191164Y-128409816D01*
X39096844Y-128612085D01*
X39039079Y-128827668D01*
X39019627Y-129050000D01*
X39039079Y-129272331D01*
X39039080Y-129272334D01*
X39096844Y-129487913D01*
X39191165Y-129690186D01*
X39319178Y-129873007D01*
X39476993Y-130030822D01*
X39659814Y-130158835D01*
X39764432Y-130207619D01*
X39816605Y-130253373D01*
X39836025Y-130319998D01*
X39816606Y-130386623D01*
X39764430Y-130432381D01*
X39659816Y-130481163D01*
X39476989Y-130609181D01*
X39319181Y-130766989D01*
X39191164Y-130949816D01*
X39096844Y-131152085D01*
X39039079Y-131367668D01*
X39019627Y-131590000D01*
X39039079Y-131812331D01*
X39039080Y-131812334D01*
X39096844Y-132027913D01*
X39191165Y-132230186D01*
X39319178Y-132413007D01*
X39476993Y-132570822D01*
X39659814Y-132698835D01*
X39764430Y-132747618D01*
X39816606Y-132793375D01*
X39836025Y-132860000D01*
X39816606Y-132926625D01*
X39764430Y-132972381D01*
X39659814Y-133021165D01*
X39476993Y-133149178D01*
X39476989Y-133149181D01*
X39319181Y-133306989D01*
X39191164Y-133489816D01*
X39096844Y-133692085D01*
X39039079Y-133907668D01*
X39019627Y-134129999D01*
X39039079Y-134352331D01*
X39039080Y-134352334D01*
X39096844Y-134567913D01*
X39191165Y-134770186D01*
X39319178Y-134953007D01*
X39476993Y-135110822D01*
X39659814Y-135238835D01*
X39764432Y-135287619D01*
X39816605Y-135333373D01*
X39836025Y-135399998D01*
X39816606Y-135466623D01*
X39764430Y-135512381D01*
X39659816Y-135561163D01*
X39476989Y-135689181D01*
X39319181Y-135846989D01*
X39191164Y-136029816D01*
X39096844Y-136232085D01*
X39039079Y-136447668D01*
X39019627Y-136669999D01*
X39039079Y-136892331D01*
X39039080Y-136892334D01*
X39096844Y-137107913D01*
X39191165Y-137310186D01*
X39319178Y-137493007D01*
X39476993Y-137650822D01*
X39659814Y-137778835D01*
X39764430Y-137827618D01*
X39816606Y-137873375D01*
X39836025Y-137940000D01*
X39816606Y-138006625D01*
X39764430Y-138052381D01*
X39659814Y-138101165D01*
X39476993Y-138229178D01*
X39476989Y-138229181D01*
X39319181Y-138386989D01*
X39191164Y-138569816D01*
X39096844Y-138772085D01*
X39039079Y-138987668D01*
X39019627Y-139210000D01*
X39039079Y-139432331D01*
X39039080Y-139432334D01*
X39096844Y-139647913D01*
X39191165Y-139850186D01*
X39319178Y-140033007D01*
X39476993Y-140190822D01*
X39659814Y-140318835D01*
X39764430Y-140367618D01*
X39816606Y-140413375D01*
X39836025Y-140480000D01*
X39816606Y-140546625D01*
X39764430Y-140592381D01*
X39659814Y-140641165D01*
X39476993Y-140769178D01*
X39476989Y-140769181D01*
X39319181Y-140926989D01*
X39191164Y-141109816D01*
X39096844Y-141312085D01*
X39039079Y-141527668D01*
X39019627Y-141750000D01*
X39039079Y-141972331D01*
X39096844Y-142187914D01*
X39147677Y-142296925D01*
X39191165Y-142390186D01*
X39319178Y-142573007D01*
X39476993Y-142730822D01*
X39659814Y-142858835D01*
X39764430Y-142907618D01*
X39816606Y-142953375D01*
X39836025Y-143020000D01*
X39816606Y-143086625D01*
X39764430Y-143132381D01*
X39659814Y-143181165D01*
X39476993Y-143309178D01*
X39476989Y-143309181D01*
X39319181Y-143466989D01*
X39191164Y-143649816D01*
X39096844Y-143852085D01*
X39039079Y-144067668D01*
X39019627Y-144290000D01*
X39039079Y-144512331D01*
X39039080Y-144512334D01*
X39096844Y-144727913D01*
X39191165Y-144930186D01*
X39319178Y-145113007D01*
X39476993Y-145270822D01*
X39659814Y-145398835D01*
X39764430Y-145447618D01*
X39816606Y-145493375D01*
X39836025Y-145560000D01*
X39816606Y-145626625D01*
X39764430Y-145672381D01*
X39659814Y-145721165D01*
X39476993Y-145849178D01*
X39476989Y-145849181D01*
X39319181Y-146006989D01*
X39191164Y-146189816D01*
X39096844Y-146392085D01*
X39039079Y-146607668D01*
X39019627Y-146829999D01*
X35025500Y-146829999D01*
X35025500Y-113810000D01*
X39020129Y-113810000D01*
X39039573Y-114032244D01*
X39097317Y-114247744D01*
X39191598Y-114449933D01*
X39238924Y-114517522D01*
X39946447Y-113810001D01*
X39946447Y-113810000D01*
X40653553Y-113810000D01*
X41361074Y-114517522D01*
X41408400Y-114449934D01*
X41502682Y-114247744D01*
X41560426Y-114032244D01*
X41579870Y-113810000D01*
X44100129Y-113810000D01*
X44119573Y-114032244D01*
X44177317Y-114247744D01*
X44271598Y-114449933D01*
X44318924Y-114517522D01*
X45026447Y-113810001D01*
X45026447Y-113810000D01*
X45733553Y-113810000D01*
X46441074Y-114517522D01*
X46488400Y-114449934D01*
X46582682Y-114247744D01*
X46640426Y-114032244D01*
X46659870Y-113810000D01*
X46640426Y-113587755D01*
X46582682Y-113372255D01*
X46488401Y-113170066D01*
X46441075Y-113102477D01*
X46441074Y-113102476D01*
X45733553Y-113810000D01*
X45026447Y-113810000D01*
X44318924Y-113102477D01*
X44271598Y-113170067D01*
X44177317Y-113372255D01*
X44119573Y-113587755D01*
X44100129Y-113810000D01*
X41579870Y-113810000D01*
X41560426Y-113587755D01*
X41502682Y-113372255D01*
X41408401Y-113170066D01*
X41361075Y-113102477D01*
X41361074Y-113102476D01*
X40653553Y-113810000D01*
X39946447Y-113810000D01*
X39238924Y-113102477D01*
X39191598Y-113170067D01*
X39097317Y-113372255D01*
X39039573Y-113587755D01*
X39020129Y-113810000D01*
X35025500Y-113810000D01*
X35025500Y-112331074D01*
X39592476Y-112331074D01*
X39592477Y-112331075D01*
X39660064Y-112378400D01*
X39765613Y-112427618D01*
X39817789Y-112473375D01*
X39837208Y-112540000D01*
X39817789Y-112606625D01*
X39765613Y-112652382D01*
X39660065Y-112701599D01*
X39592477Y-112748924D01*
X40300000Y-113456447D01*
X40300001Y-113456447D01*
X41007522Y-112748924D01*
X40939935Y-112701599D01*
X40834385Y-112652381D01*
X40782209Y-112606624D01*
X40762790Y-112539998D01*
X40782210Y-112473373D01*
X40834387Y-112427616D01*
X40939936Y-112378398D01*
X41007522Y-112331074D01*
X44672476Y-112331074D01*
X44672477Y-112331075D01*
X44740064Y-112378400D01*
X44845613Y-112427618D01*
X44897789Y-112473375D01*
X44917208Y-112540000D01*
X44897789Y-112606625D01*
X44845613Y-112652382D01*
X44740065Y-112701599D01*
X44672477Y-112748924D01*
X45380000Y-113456447D01*
X45380001Y-113456447D01*
X46087522Y-112748924D01*
X46019935Y-112701599D01*
X45914385Y-112652381D01*
X45862209Y-112606624D01*
X45842790Y-112539998D01*
X45862210Y-112473373D01*
X45914387Y-112427616D01*
X46019936Y-112378398D01*
X46087522Y-112331074D01*
X45380000Y-111623553D01*
X44672476Y-112331074D01*
X41007522Y-112331074D01*
X40300000Y-111623553D01*
X39592476Y-112331074D01*
X35025500Y-112331074D01*
X35025500Y-111270000D01*
X39020129Y-111270000D01*
X39039573Y-111492244D01*
X39097317Y-111707744D01*
X39191598Y-111909933D01*
X39238924Y-111977522D01*
X39946447Y-111270001D01*
X39946447Y-111270000D01*
X40653553Y-111270000D01*
X41361074Y-111977522D01*
X41408400Y-111909934D01*
X41502682Y-111707744D01*
X41560426Y-111492244D01*
X41579870Y-111270000D01*
X44100129Y-111270000D01*
X44119573Y-111492244D01*
X44177317Y-111707744D01*
X44271598Y-111909933D01*
X44318924Y-111977522D01*
X45026447Y-111270001D01*
X45026447Y-111270000D01*
X45733553Y-111270000D01*
X46441074Y-111977522D01*
X46488400Y-111909934D01*
X46582682Y-111707744D01*
X46640426Y-111492244D01*
X46659870Y-111270000D01*
X46640426Y-111047755D01*
X46582682Y-110832255D01*
X46488401Y-110630066D01*
X46441075Y-110562477D01*
X46441074Y-110562476D01*
X45733553Y-111270000D01*
X45026447Y-111270000D01*
X44318924Y-110562477D01*
X44271598Y-110630067D01*
X44177317Y-110832255D01*
X44119573Y-111047755D01*
X44100129Y-111270000D01*
X41579870Y-111270000D01*
X41560426Y-111047755D01*
X41502682Y-110832255D01*
X41408401Y-110630066D01*
X41361075Y-110562477D01*
X41361074Y-110562476D01*
X40653553Y-111270000D01*
X39946447Y-111270000D01*
X39238924Y-110562477D01*
X39191598Y-110630067D01*
X39097317Y-110832255D01*
X39039573Y-111047755D01*
X39020129Y-111270000D01*
X35025500Y-111270000D01*
X35025500Y-109791074D01*
X39592476Y-109791074D01*
X39592477Y-109791075D01*
X39660064Y-109838400D01*
X39765613Y-109887618D01*
X39817789Y-109933375D01*
X39837208Y-110000000D01*
X39817789Y-110066625D01*
X39765613Y-110112382D01*
X39660065Y-110161599D01*
X39592477Y-110208924D01*
X40300000Y-110916447D01*
X40300001Y-110916447D01*
X41007522Y-110208924D01*
X40939935Y-110161599D01*
X40834385Y-110112381D01*
X40782209Y-110066624D01*
X40762790Y-109999998D01*
X40782210Y-109933373D01*
X40834387Y-109887616D01*
X40939936Y-109838398D01*
X41007522Y-109791074D01*
X44672476Y-109791074D01*
X44672477Y-109791075D01*
X44740064Y-109838400D01*
X44845613Y-109887618D01*
X44897789Y-109933375D01*
X44917208Y-110000000D01*
X44897789Y-110066625D01*
X44845613Y-110112382D01*
X44740065Y-110161599D01*
X44672477Y-110208924D01*
X45380000Y-110916447D01*
X45380001Y-110916447D01*
X46087522Y-110208924D01*
X46019935Y-110161599D01*
X45914385Y-110112381D01*
X45862209Y-110066624D01*
X45842790Y-109999998D01*
X45862210Y-109933373D01*
X45914387Y-109887616D01*
X46019936Y-109838398D01*
X46087522Y-109791074D01*
X45380000Y-109083553D01*
X44672476Y-109791074D01*
X41007522Y-109791074D01*
X40300000Y-109083553D01*
X39592476Y-109791074D01*
X35025500Y-109791074D01*
X35025500Y-108730000D01*
X39020129Y-108730000D01*
X39039573Y-108952244D01*
X39097317Y-109167744D01*
X39191598Y-109369933D01*
X39238924Y-109437522D01*
X39946447Y-108730001D01*
X39946447Y-108730000D01*
X40653553Y-108730000D01*
X41361074Y-109437522D01*
X41408400Y-109369934D01*
X41502682Y-109167744D01*
X41560426Y-108952244D01*
X41579870Y-108730000D01*
X44100129Y-108730000D01*
X44119573Y-108952244D01*
X44177317Y-109167744D01*
X44271598Y-109369933D01*
X44318924Y-109437522D01*
X45026447Y-108730001D01*
X45026447Y-108730000D01*
X45733553Y-108730000D01*
X46441074Y-109437522D01*
X46488400Y-109369934D01*
X46582682Y-109167744D01*
X46640426Y-108952244D01*
X46659870Y-108730000D01*
X46640426Y-108507755D01*
X46582682Y-108292255D01*
X46488401Y-108090066D01*
X46441075Y-108022477D01*
X46441074Y-108022476D01*
X45733553Y-108730000D01*
X45026447Y-108730000D01*
X44318924Y-108022477D01*
X44271598Y-108090067D01*
X44177317Y-108292255D01*
X44119573Y-108507755D01*
X44100129Y-108730000D01*
X41579870Y-108730000D01*
X41579870Y-108729999D01*
X41560426Y-108507755D01*
X41502682Y-108292255D01*
X41408401Y-108090066D01*
X41361075Y-108022477D01*
X41361074Y-108022476D01*
X40653553Y-108730000D01*
X39946447Y-108730000D01*
X39238924Y-108022477D01*
X39191598Y-108090067D01*
X39097317Y-108292255D01*
X39039573Y-108507755D01*
X39020129Y-108730000D01*
X35025500Y-108730000D01*
X35025500Y-107251074D01*
X39592476Y-107251074D01*
X39592477Y-107251075D01*
X39660064Y-107298400D01*
X39765613Y-107347618D01*
X39817789Y-107393375D01*
X39837208Y-107460000D01*
X39817789Y-107526625D01*
X39765613Y-107572382D01*
X39660065Y-107621599D01*
X39592477Y-107668924D01*
X40300000Y-108376447D01*
X40300001Y-108376447D01*
X41007522Y-107668924D01*
X40939935Y-107621599D01*
X40834385Y-107572381D01*
X40782209Y-107526624D01*
X40762790Y-107459998D01*
X40782210Y-107393373D01*
X40834387Y-107347616D01*
X40939936Y-107298398D01*
X41007522Y-107251074D01*
X44672476Y-107251074D01*
X44672477Y-107251075D01*
X44740064Y-107298400D01*
X44845613Y-107347618D01*
X44897789Y-107393375D01*
X44917208Y-107460000D01*
X44897789Y-107526625D01*
X44845613Y-107572382D01*
X44740065Y-107621599D01*
X44672477Y-107668924D01*
X45380000Y-108376447D01*
X45380001Y-108376447D01*
X46087522Y-107668924D01*
X46019935Y-107621599D01*
X45914385Y-107572381D01*
X45862209Y-107526624D01*
X45842790Y-107459998D01*
X45862210Y-107393373D01*
X45914387Y-107347616D01*
X46019936Y-107298398D01*
X46087522Y-107251074D01*
X45380000Y-106543553D01*
X44672476Y-107251074D01*
X41007522Y-107251074D01*
X40300000Y-106543553D01*
X39592476Y-107251074D01*
X35025500Y-107251074D01*
X35025500Y-106189999D01*
X39020129Y-106189999D01*
X39039573Y-106412244D01*
X39097317Y-106627744D01*
X39191598Y-106829933D01*
X39238924Y-106897522D01*
X39946447Y-106190001D01*
X39946447Y-106190000D01*
X40653553Y-106190000D01*
X41361074Y-106897522D01*
X41408400Y-106829934D01*
X41502682Y-106627744D01*
X41560426Y-106412244D01*
X41579870Y-106189999D01*
X44100129Y-106189999D01*
X44119573Y-106412244D01*
X44177317Y-106627744D01*
X44271598Y-106829933D01*
X44318924Y-106897522D01*
X45026447Y-106190001D01*
X45026447Y-106190000D01*
X45733553Y-106190000D01*
X46441074Y-106897522D01*
X46488400Y-106829934D01*
X46582682Y-106627744D01*
X46640426Y-106412244D01*
X46659870Y-106189999D01*
X46640426Y-105967755D01*
X46582682Y-105752255D01*
X46488401Y-105550066D01*
X46441075Y-105482477D01*
X46441074Y-105482476D01*
X45733553Y-106190000D01*
X45026447Y-106190000D01*
X44318924Y-105482477D01*
X44271598Y-105550067D01*
X44177317Y-105752255D01*
X44119573Y-105967755D01*
X44100129Y-106189999D01*
X41579870Y-106189999D01*
X41560426Y-105967755D01*
X41502682Y-105752255D01*
X41408401Y-105550066D01*
X41361075Y-105482477D01*
X41361074Y-105482476D01*
X40653553Y-106190000D01*
X39946447Y-106190000D01*
X39238924Y-105482477D01*
X39191598Y-105550067D01*
X39097317Y-105752255D01*
X39039573Y-105967755D01*
X39020129Y-106189999D01*
X35025500Y-106189999D01*
X35025500Y-103650000D01*
X39019627Y-103650000D01*
X39039079Y-103872331D01*
X39096844Y-104087914D01*
X39147677Y-104196925D01*
X39191165Y-104290186D01*
X39319178Y-104473007D01*
X39476993Y-104630822D01*
X39659814Y-104758835D01*
X39765024Y-104807895D01*
X39817197Y-104853649D01*
X39836617Y-104920274D01*
X39817198Y-104986900D01*
X39765022Y-105032657D01*
X39660065Y-105081599D01*
X39592477Y-105128924D01*
X40300000Y-105836447D01*
X40300001Y-105836447D01*
X41007522Y-105128924D01*
X40939935Y-105081599D01*
X40834977Y-105032657D01*
X40782801Y-104986900D01*
X40763382Y-104920274D01*
X40782802Y-104853649D01*
X40834975Y-104807895D01*
X40940186Y-104758835D01*
X41123007Y-104630822D01*
X41280822Y-104473007D01*
X41408835Y-104290186D01*
X41503156Y-104087913D01*
X41560920Y-103872334D01*
X41580372Y-103650000D01*
X44099627Y-103650000D01*
X44119079Y-103872331D01*
X44176844Y-104087914D01*
X44227677Y-104196925D01*
X44271165Y-104290186D01*
X44399178Y-104473007D01*
X44556993Y-104630822D01*
X44739814Y-104758835D01*
X44845024Y-104807895D01*
X44897197Y-104853649D01*
X44916617Y-104920274D01*
X44897198Y-104986900D01*
X44845022Y-105032657D01*
X44740065Y-105081599D01*
X44672477Y-105128924D01*
X45380000Y-105836447D01*
X45380001Y-105836447D01*
X46087522Y-105128924D01*
X46019935Y-105081599D01*
X45914977Y-105032657D01*
X45862801Y-104986900D01*
X45843382Y-104920274D01*
X45862802Y-104853649D01*
X45914975Y-104807895D01*
X46020186Y-104758835D01*
X46203007Y-104630822D01*
X46360822Y-104473007D01*
X46488835Y-104290186D01*
X46583156Y-104087913D01*
X46640920Y-103872334D01*
X46660372Y-103650000D01*
X46640920Y-103427666D01*
X46583156Y-103212087D01*
X46488835Y-103009814D01*
X46360822Y-102826993D01*
X46203007Y-102669178D01*
X46020186Y-102541165D01*
X45950946Y-102508878D01*
X45915569Y-102492381D01*
X45863393Y-102446624D01*
X45843974Y-102379998D01*
X45863394Y-102313373D01*
X45915567Y-102267619D01*
X46020186Y-102218835D01*
X46203007Y-102090822D01*
X46360822Y-101933007D01*
X46488835Y-101750186D01*
X46583156Y-101547913D01*
X46640920Y-101332334D01*
X46660372Y-101110000D01*
X46640920Y-100887666D01*
X46583156Y-100672087D01*
X46488835Y-100469814D01*
X46360822Y-100286993D01*
X46203007Y-100129178D01*
X46020186Y-100001165D01*
X46020182Y-100001162D01*
X45915570Y-99952382D01*
X45863394Y-99906625D01*
X45843974Y-99840000D01*
X45863394Y-99773375D01*
X45915570Y-99727618D01*
X46020182Y-99678837D01*
X46020182Y-99678836D01*
X46020186Y-99678835D01*
X46203007Y-99550822D01*
X46360822Y-99393007D01*
X46488835Y-99210186D01*
X46583156Y-99007913D01*
X46640920Y-98792334D01*
X46660372Y-98570000D01*
X46654392Y-98501655D01*
X46640920Y-98347668D01*
X46640920Y-98347666D01*
X46583156Y-98132087D01*
X46488835Y-97929814D01*
X46360822Y-97746993D01*
X46203007Y-97589178D01*
X46020186Y-97461165D01*
X46020182Y-97461162D01*
X45915570Y-97412382D01*
X45863394Y-97366625D01*
X45843974Y-97300000D01*
X45863394Y-97233375D01*
X45915570Y-97187618D01*
X46020182Y-97138837D01*
X46020182Y-97138836D01*
X46020186Y-97138835D01*
X46203007Y-97010822D01*
X46360822Y-96853007D01*
X46488835Y-96670186D01*
X46583156Y-96467913D01*
X46640920Y-96252334D01*
X46660372Y-96030000D01*
X46640920Y-95807666D01*
X46583156Y-95592087D01*
X46488835Y-95389814D01*
X46360822Y-95206993D01*
X46203007Y-95049178D01*
X46020186Y-94921165D01*
X46020182Y-94921162D01*
X45915570Y-94872382D01*
X45863394Y-94826625D01*
X45843974Y-94760000D01*
X45863394Y-94693375D01*
X45915570Y-94647618D01*
X46020182Y-94598837D01*
X46020182Y-94598836D01*
X46020186Y-94598835D01*
X46203007Y-94470822D01*
X46360822Y-94313007D01*
X46488835Y-94130186D01*
X46583156Y-93927913D01*
X46640920Y-93712334D01*
X46660372Y-93490000D01*
X46640920Y-93267666D01*
X46583156Y-93052087D01*
X46488835Y-92849814D01*
X46360822Y-92666993D01*
X46203007Y-92509178D01*
X46020186Y-92381165D01*
X46020182Y-92381162D01*
X45915570Y-92332382D01*
X45863394Y-92286625D01*
X45843974Y-92220000D01*
X45863394Y-92153375D01*
X45915570Y-92107618D01*
X46020182Y-92058837D01*
X46020182Y-92058836D01*
X46020186Y-92058835D01*
X46203007Y-91930822D01*
X46360822Y-91773007D01*
X46488835Y-91590186D01*
X46583156Y-91387913D01*
X46640920Y-91172334D01*
X46660372Y-90950000D01*
X46640920Y-90727666D01*
X46583156Y-90512087D01*
X46488835Y-90309814D01*
X46360822Y-90126993D01*
X46203007Y-89969178D01*
X46020186Y-89841165D01*
X46020182Y-89841162D01*
X45915570Y-89792382D01*
X45863394Y-89746625D01*
X45843974Y-89680000D01*
X45863394Y-89613375D01*
X45915570Y-89567618D01*
X46020182Y-89518837D01*
X46020182Y-89518836D01*
X46020186Y-89518835D01*
X46203007Y-89390822D01*
X46360822Y-89233007D01*
X46488835Y-89050186D01*
X46583156Y-88847913D01*
X46640920Y-88632334D01*
X46660372Y-88410000D01*
X46640920Y-88187666D01*
X46583156Y-87972087D01*
X46488835Y-87769814D01*
X46360822Y-87586993D01*
X46203007Y-87429178D01*
X46020186Y-87301165D01*
X46020182Y-87301162D01*
X45915570Y-87252382D01*
X45863394Y-87206625D01*
X45843974Y-87140000D01*
X45863394Y-87073375D01*
X45915570Y-87027618D01*
X46020182Y-86978837D01*
X46020182Y-86978836D01*
X46020186Y-86978835D01*
X46203007Y-86850822D01*
X46360822Y-86693007D01*
X46488835Y-86510186D01*
X46583156Y-86307913D01*
X46640920Y-86092334D01*
X46660372Y-85870000D01*
X46640920Y-85647666D01*
X46583156Y-85432087D01*
X46488835Y-85229814D01*
X46360822Y-85046993D01*
X46203007Y-84889178D01*
X46020186Y-84761165D01*
X46020182Y-84761162D01*
X45915570Y-84712382D01*
X45863394Y-84666625D01*
X45843974Y-84600000D01*
X45863394Y-84533375D01*
X45915570Y-84487618D01*
X46020182Y-84438837D01*
X46020182Y-84438836D01*
X46020186Y-84438835D01*
X46203007Y-84310822D01*
X46360822Y-84153007D01*
X46488835Y-83970186D01*
X46583156Y-83767913D01*
X46640920Y-83552334D01*
X46660372Y-83330000D01*
X46640920Y-83107666D01*
X46583156Y-82892087D01*
X46488835Y-82689814D01*
X46360822Y-82506993D01*
X46203007Y-82349178D01*
X46020186Y-82221165D01*
X46020182Y-82221162D01*
X45915570Y-82172382D01*
X45863394Y-82126625D01*
X45843974Y-82060000D01*
X45863394Y-81993375D01*
X45915570Y-81947618D01*
X46020182Y-81898837D01*
X46020182Y-81898836D01*
X46020186Y-81898835D01*
X46203007Y-81770822D01*
X46360822Y-81613007D01*
X46488835Y-81430186D01*
X46583156Y-81227913D01*
X46640920Y-81012334D01*
X46660372Y-80790000D01*
X46640920Y-80567666D01*
X46583156Y-80352087D01*
X46488835Y-80149814D01*
X46360822Y-79966993D01*
X46203007Y-79809178D01*
X46053328Y-79704371D01*
X46020182Y-79681162D01*
X45915570Y-79632382D01*
X45863394Y-79586625D01*
X45843974Y-79520000D01*
X45863394Y-79453375D01*
X45915570Y-79407618D01*
X46020182Y-79358837D01*
X46020182Y-79358836D01*
X46020186Y-79358835D01*
X46203007Y-79230822D01*
X46360822Y-79073007D01*
X46488835Y-78890186D01*
X46583156Y-78687913D01*
X46640920Y-78472334D01*
X46660372Y-78250000D01*
X46640920Y-78027666D01*
X46583156Y-77812087D01*
X46488835Y-77609814D01*
X46360822Y-77426993D01*
X46203007Y-77269178D01*
X46020186Y-77141165D01*
X46020182Y-77141162D01*
X45915570Y-77092382D01*
X45863394Y-77046625D01*
X45843974Y-76980000D01*
X45863394Y-76913375D01*
X45915570Y-76867618D01*
X46020182Y-76818837D01*
X46020182Y-76818836D01*
X46020186Y-76818835D01*
X46203007Y-76690822D01*
X46360822Y-76533007D01*
X46488835Y-76350186D01*
X46583156Y-76147913D01*
X46640920Y-75932334D01*
X46660372Y-75710000D01*
X46640920Y-75487666D01*
X46583156Y-75272087D01*
X46488835Y-75069814D01*
X46360822Y-74886993D01*
X46203007Y-74729178D01*
X46020186Y-74601165D01*
X46020182Y-74601162D01*
X45915570Y-74552382D01*
X45863394Y-74506625D01*
X45843974Y-74440000D01*
X45863394Y-74373375D01*
X45915570Y-74327618D01*
X46020182Y-74278837D01*
X46020182Y-74278836D01*
X46020186Y-74278835D01*
X46203007Y-74150822D01*
X46360822Y-73993007D01*
X46488835Y-73810186D01*
X46583156Y-73607913D01*
X46640920Y-73392334D01*
X46660372Y-73170000D01*
X46658578Y-73149500D01*
X46645518Y-73000223D01*
X46640920Y-72947666D01*
X46583156Y-72732087D01*
X46488835Y-72529814D01*
X46360822Y-72346993D01*
X46203007Y-72189178D01*
X46020186Y-72061165D01*
X46020182Y-72061162D01*
X45915570Y-72012382D01*
X45863394Y-71966625D01*
X45843974Y-71900000D01*
X45863394Y-71833375D01*
X45915570Y-71787618D01*
X46020182Y-71738837D01*
X46020182Y-71738836D01*
X46020186Y-71738835D01*
X46203007Y-71610822D01*
X46360822Y-71453007D01*
X46488835Y-71270186D01*
X46583156Y-71067913D01*
X46640920Y-70852334D01*
X46660372Y-70630000D01*
X46640920Y-70407666D01*
X46583156Y-70192087D01*
X46488835Y-69989814D01*
X46360822Y-69806993D01*
X46203007Y-69649178D01*
X46020186Y-69521165D01*
X45926925Y-69477677D01*
X45817914Y-69426844D01*
X45602331Y-69369079D01*
X45379999Y-69349627D01*
X45157668Y-69369079D01*
X44942085Y-69426844D01*
X44765578Y-69509151D01*
X44739814Y-69521165D01*
X44600043Y-69619034D01*
X44556989Y-69649181D01*
X44399181Y-69806989D01*
X44399178Y-69806992D01*
X44399178Y-69806993D01*
X44303388Y-69943796D01*
X44271164Y-69989816D01*
X44176844Y-70192085D01*
X44119079Y-70407668D01*
X44099627Y-70630000D01*
X44119079Y-70852331D01*
X44176844Y-71067914D01*
X44200162Y-71117919D01*
X44271165Y-71270186D01*
X44399178Y-71453007D01*
X44556993Y-71610822D01*
X44739814Y-71738835D01*
X44844430Y-71787618D01*
X44896606Y-71833375D01*
X44916025Y-71900000D01*
X44896606Y-71966625D01*
X44844430Y-72012382D01*
X44740758Y-72060725D01*
X44739814Y-72061165D01*
X44556993Y-72189178D01*
X44556989Y-72189181D01*
X44399181Y-72346989D01*
X44271164Y-72529816D01*
X44176844Y-72732085D01*
X44119079Y-72947668D01*
X44099627Y-73169999D01*
X44119079Y-73392331D01*
X44171967Y-73589714D01*
X44176844Y-73607913D01*
X44271165Y-73810186D01*
X44399178Y-73993007D01*
X44556993Y-74150822D01*
X44739814Y-74278835D01*
X44810609Y-74311847D01*
X44844430Y-74327618D01*
X44896606Y-74373375D01*
X44916025Y-74440000D01*
X44896606Y-74506625D01*
X44844430Y-74552382D01*
X44743355Y-74599514D01*
X44739814Y-74601165D01*
X44561709Y-74725876D01*
X44556989Y-74729181D01*
X44399181Y-74886989D01*
X44399178Y-74886992D01*
X44399178Y-74886993D01*
X44296180Y-75034090D01*
X44271164Y-75069816D01*
X44176844Y-75272085D01*
X44119079Y-75487668D01*
X44099627Y-75710000D01*
X44119079Y-75932331D01*
X44176844Y-76147914D01*
X44192891Y-76182327D01*
X44271165Y-76350186D01*
X44399178Y-76533007D01*
X44556993Y-76690822D01*
X44739814Y-76818835D01*
X44844430Y-76867618D01*
X44896606Y-76913375D01*
X44916025Y-76980000D01*
X44896606Y-77046625D01*
X44844430Y-77092381D01*
X44739814Y-77141165D01*
X44556993Y-77269178D01*
X44556989Y-77269181D01*
X44399181Y-77426989D01*
X44399178Y-77426992D01*
X44399178Y-77426993D01*
X44296958Y-77572979D01*
X44271164Y-77609816D01*
X44176844Y-77812085D01*
X44119079Y-78027668D01*
X44099627Y-78250000D01*
X44119079Y-78472331D01*
X44176844Y-78687914D01*
X44206018Y-78750478D01*
X44271165Y-78890186D01*
X44399178Y-79073007D01*
X44556993Y-79230822D01*
X44739814Y-79358835D01*
X44844430Y-79407618D01*
X44896606Y-79453375D01*
X44916025Y-79520000D01*
X44896606Y-79586625D01*
X44844430Y-79632382D01*
X44781313Y-79661814D01*
X44739814Y-79681165D01*
X44573104Y-79797897D01*
X44556989Y-79809181D01*
X44399181Y-79966989D01*
X44399178Y-79966992D01*
X44399178Y-79966993D01*
X44330829Y-80064606D01*
X44271164Y-80149816D01*
X44176844Y-80352085D01*
X44119079Y-80567668D01*
X44099627Y-80790000D01*
X44119079Y-81012331D01*
X44119080Y-81012334D01*
X44176844Y-81227913D01*
X44271165Y-81430186D01*
X44399178Y-81613007D01*
X44556993Y-81770822D01*
X44739814Y-81898835D01*
X44806065Y-81929728D01*
X44844430Y-81947618D01*
X44896606Y-81993375D01*
X44916025Y-82060000D01*
X44896606Y-82126625D01*
X44844430Y-82172381D01*
X44739814Y-82221165D01*
X44664034Y-82274227D01*
X44556989Y-82349181D01*
X44399181Y-82506989D01*
X44399178Y-82506992D01*
X44399178Y-82506993D01*
X44291798Y-82660348D01*
X44271164Y-82689816D01*
X44176844Y-82892085D01*
X44119079Y-83107668D01*
X44099627Y-83329999D01*
X44119079Y-83552331D01*
X44176844Y-83767914D01*
X44209611Y-83838183D01*
X44271165Y-83970186D01*
X44399178Y-84153007D01*
X44556993Y-84310822D01*
X44739814Y-84438835D01*
X44844430Y-84487618D01*
X44896606Y-84533375D01*
X44916025Y-84600000D01*
X44896606Y-84666625D01*
X44844430Y-84712381D01*
X44739814Y-84761165D01*
X44556993Y-84889178D01*
X44556989Y-84889181D01*
X44399181Y-85046989D01*
X44399178Y-85046992D01*
X44399178Y-85046993D01*
X44292106Y-85199908D01*
X44271164Y-85229816D01*
X44176844Y-85432085D01*
X44119079Y-85647668D01*
X44099627Y-85869999D01*
X44119079Y-86092331D01*
X44176844Y-86307914D01*
X44201318Y-86360398D01*
X44271165Y-86510186D01*
X44399178Y-86693007D01*
X44556993Y-86850822D01*
X44739814Y-86978835D01*
X44844430Y-87027618D01*
X44896606Y-87073375D01*
X44916025Y-87140000D01*
X44896606Y-87206625D01*
X44844430Y-87252381D01*
X44739814Y-87301165D01*
X44578364Y-87414214D01*
X44556989Y-87429181D01*
X44399181Y-87586989D01*
X44399178Y-87586992D01*
X44399178Y-87586993D01*
X44375508Y-87620798D01*
X44271164Y-87769816D01*
X44176844Y-87972085D01*
X44119079Y-88187668D01*
X44099627Y-88410000D01*
X44119079Y-88632331D01*
X44168079Y-88815204D01*
X44176844Y-88847913D01*
X44271165Y-89050186D01*
X44399178Y-89233007D01*
X44556993Y-89390822D01*
X44739814Y-89518835D01*
X44844430Y-89567618D01*
X44896606Y-89613375D01*
X44916025Y-89680000D01*
X44896606Y-89746625D01*
X44844430Y-89792381D01*
X44739814Y-89841165D01*
X44556993Y-89969178D01*
X44556989Y-89969181D01*
X44399181Y-90126989D01*
X44399178Y-90126992D01*
X44399178Y-90126993D01*
X44279197Y-90298344D01*
X44271164Y-90309816D01*
X44176844Y-90512085D01*
X44119079Y-90727668D01*
X44099627Y-90950000D01*
X44119079Y-91172331D01*
X44119080Y-91172334D01*
X44176844Y-91387913D01*
X44271165Y-91590186D01*
X44399178Y-91773007D01*
X44556993Y-91930822D01*
X44739814Y-92058835D01*
X44814379Y-92093605D01*
X44844430Y-92107618D01*
X44896606Y-92153375D01*
X44916025Y-92220000D01*
X44896606Y-92286625D01*
X44844430Y-92332381D01*
X44739814Y-92381165D01*
X44556993Y-92509178D01*
X44556989Y-92509181D01*
X44399181Y-92666989D01*
X44271164Y-92849816D01*
X44176844Y-93052085D01*
X44119079Y-93267668D01*
X44099627Y-93490000D01*
X44119079Y-93712331D01*
X44119080Y-93712334D01*
X44176844Y-93927913D01*
X44271165Y-94130186D01*
X44399178Y-94313007D01*
X44556993Y-94470822D01*
X44739814Y-94598835D01*
X44844430Y-94647618D01*
X44896606Y-94693375D01*
X44916025Y-94760000D01*
X44896606Y-94826625D01*
X44844430Y-94872381D01*
X44739814Y-94921165D01*
X44556993Y-95049178D01*
X44556989Y-95049181D01*
X44399181Y-95206989D01*
X44271164Y-95389816D01*
X44176844Y-95592085D01*
X44119079Y-95807668D01*
X44099627Y-96029999D01*
X44119079Y-96252331D01*
X44125019Y-96274501D01*
X44176844Y-96467913D01*
X44271165Y-96670186D01*
X44399178Y-96853007D01*
X44556993Y-97010822D01*
X44739814Y-97138835D01*
X44844430Y-97187618D01*
X44896606Y-97233375D01*
X44916025Y-97300000D01*
X44896606Y-97366625D01*
X44844430Y-97412381D01*
X44739814Y-97461165D01*
X44556993Y-97589178D01*
X44556989Y-97589181D01*
X44399181Y-97746989D01*
X44399178Y-97746992D01*
X44399178Y-97746993D01*
X44275257Y-97923971D01*
X44271164Y-97929816D01*
X44176844Y-98132085D01*
X44119079Y-98347668D01*
X44099627Y-98569999D01*
X44119079Y-98792331D01*
X44176844Y-99007914D01*
X44222830Y-99106530D01*
X44271165Y-99210186D01*
X44399178Y-99393007D01*
X44556993Y-99550822D01*
X44739814Y-99678835D01*
X44831057Y-99721382D01*
X44844430Y-99727618D01*
X44896606Y-99773375D01*
X44916025Y-99840000D01*
X44896606Y-99906625D01*
X44844430Y-99952381D01*
X44739814Y-100001165D01*
X44556993Y-100129178D01*
X44556989Y-100129181D01*
X44399181Y-100286989D01*
X44399178Y-100286992D01*
X44399178Y-100286993D01*
X44274292Y-100465349D01*
X44271164Y-100469816D01*
X44176844Y-100672085D01*
X44119079Y-100887668D01*
X44099627Y-101110000D01*
X44119079Y-101332331D01*
X44170570Y-101524500D01*
X44176844Y-101547913D01*
X44271165Y-101750186D01*
X44399178Y-101933007D01*
X44556993Y-102090822D01*
X44739814Y-102218835D01*
X44844432Y-102267619D01*
X44896605Y-102313373D01*
X44916025Y-102379998D01*
X44896606Y-102446623D01*
X44844430Y-102492381D01*
X44739816Y-102541163D01*
X44556989Y-102669181D01*
X44399181Y-102826989D01*
X44271164Y-103009816D01*
X44176844Y-103212085D01*
X44119079Y-103427668D01*
X44099627Y-103650000D01*
X41580372Y-103650000D01*
X41560920Y-103427666D01*
X41503156Y-103212087D01*
X41408835Y-103009814D01*
X41280822Y-102826993D01*
X41123007Y-102669178D01*
X40940186Y-102541165D01*
X40870946Y-102508878D01*
X40835569Y-102492381D01*
X40783393Y-102446624D01*
X40763974Y-102379998D01*
X40783394Y-102313373D01*
X40835567Y-102267619D01*
X40940186Y-102218835D01*
X41123007Y-102090822D01*
X41280822Y-101933007D01*
X41408835Y-101750186D01*
X41503156Y-101547913D01*
X41560920Y-101332334D01*
X41580372Y-101110000D01*
X41560920Y-100887666D01*
X41503156Y-100672087D01*
X41408835Y-100469814D01*
X41280822Y-100286993D01*
X41123007Y-100129178D01*
X40940186Y-100001165D01*
X40940182Y-100001162D01*
X40835570Y-99952382D01*
X40783394Y-99906625D01*
X40763974Y-99840000D01*
X40783394Y-99773375D01*
X40835570Y-99727618D01*
X40940182Y-99678837D01*
X40940182Y-99678836D01*
X40940186Y-99678835D01*
X41123007Y-99550822D01*
X41280822Y-99393007D01*
X41408835Y-99210186D01*
X41503156Y-99007913D01*
X41560920Y-98792334D01*
X41580372Y-98570000D01*
X41574392Y-98501655D01*
X41560920Y-98347668D01*
X41560920Y-98347666D01*
X41503156Y-98132087D01*
X41408835Y-97929814D01*
X41280822Y-97746993D01*
X41123007Y-97589178D01*
X40940186Y-97461165D01*
X40940182Y-97461162D01*
X40835570Y-97412382D01*
X40783394Y-97366625D01*
X40763974Y-97300000D01*
X40783394Y-97233375D01*
X40835570Y-97187618D01*
X40940182Y-97138837D01*
X40940182Y-97138836D01*
X40940186Y-97138835D01*
X41123007Y-97010822D01*
X41280822Y-96853007D01*
X41408835Y-96670186D01*
X41503156Y-96467913D01*
X41560920Y-96252334D01*
X41580372Y-96030000D01*
X41560920Y-95807666D01*
X41503156Y-95592087D01*
X41408835Y-95389814D01*
X41280822Y-95206993D01*
X41123007Y-95049178D01*
X40940186Y-94921165D01*
X40940182Y-94921162D01*
X40835570Y-94872382D01*
X40783394Y-94826625D01*
X40763974Y-94760000D01*
X40783394Y-94693375D01*
X40835570Y-94647618D01*
X40940182Y-94598837D01*
X40940182Y-94598836D01*
X40940186Y-94598835D01*
X41123007Y-94470822D01*
X41280822Y-94313007D01*
X41408835Y-94130186D01*
X41503156Y-93927913D01*
X41560920Y-93712334D01*
X41580372Y-93490000D01*
X41560920Y-93267666D01*
X41503156Y-93052087D01*
X41408835Y-92849814D01*
X41280822Y-92666993D01*
X41123007Y-92509178D01*
X40940186Y-92381165D01*
X40940182Y-92381162D01*
X40835570Y-92332382D01*
X40783394Y-92286625D01*
X40763974Y-92220000D01*
X40783394Y-92153375D01*
X40835570Y-92107618D01*
X40940182Y-92058837D01*
X40940182Y-92058836D01*
X40940186Y-92058835D01*
X41123007Y-91930822D01*
X41280822Y-91773007D01*
X41408835Y-91590186D01*
X41503156Y-91387913D01*
X41560920Y-91172334D01*
X41580372Y-90950000D01*
X41560920Y-90727666D01*
X41503156Y-90512087D01*
X41408835Y-90309814D01*
X41280822Y-90126993D01*
X41123007Y-89969178D01*
X40940186Y-89841165D01*
X40940182Y-89841162D01*
X40835570Y-89792382D01*
X40783394Y-89746625D01*
X40763974Y-89680000D01*
X40783394Y-89613375D01*
X40835570Y-89567618D01*
X40940182Y-89518837D01*
X40940182Y-89518836D01*
X40940186Y-89518835D01*
X41123007Y-89390822D01*
X41280822Y-89233007D01*
X41408835Y-89050186D01*
X41503156Y-88847913D01*
X41560920Y-88632334D01*
X41580372Y-88410000D01*
X41560920Y-88187666D01*
X41503156Y-87972087D01*
X41408835Y-87769814D01*
X41280822Y-87586993D01*
X41123007Y-87429178D01*
X40940186Y-87301165D01*
X40940182Y-87301162D01*
X40835570Y-87252382D01*
X40783394Y-87206625D01*
X40763974Y-87140000D01*
X40783394Y-87073375D01*
X40835570Y-87027618D01*
X40940182Y-86978837D01*
X40940182Y-86978836D01*
X40940186Y-86978835D01*
X41123007Y-86850822D01*
X41280822Y-86693007D01*
X41408835Y-86510186D01*
X41503156Y-86307913D01*
X41560920Y-86092334D01*
X41580372Y-85870000D01*
X41560920Y-85647666D01*
X41503156Y-85432087D01*
X41408835Y-85229814D01*
X41280822Y-85046993D01*
X41123007Y-84889178D01*
X40940186Y-84761165D01*
X40940182Y-84761162D01*
X40835570Y-84712382D01*
X40783394Y-84666625D01*
X40763974Y-84600000D01*
X40783394Y-84533375D01*
X40835570Y-84487618D01*
X40940182Y-84438837D01*
X40940182Y-84438836D01*
X40940186Y-84438835D01*
X41123007Y-84310822D01*
X41280822Y-84153007D01*
X41408835Y-83970186D01*
X41503156Y-83767913D01*
X41560920Y-83552334D01*
X41580372Y-83330000D01*
X41560920Y-83107666D01*
X41503156Y-82892087D01*
X41408835Y-82689814D01*
X41280822Y-82506993D01*
X41123007Y-82349178D01*
X40940186Y-82221165D01*
X40940182Y-82221162D01*
X40835570Y-82172382D01*
X40783394Y-82126625D01*
X40763974Y-82060000D01*
X40783394Y-81993375D01*
X40835570Y-81947618D01*
X40940182Y-81898837D01*
X40940182Y-81898836D01*
X40940186Y-81898835D01*
X41123007Y-81770822D01*
X41280822Y-81613007D01*
X41408835Y-81430186D01*
X41503156Y-81227913D01*
X41560920Y-81012334D01*
X41580372Y-80790000D01*
X41560920Y-80567666D01*
X41503156Y-80352087D01*
X41408835Y-80149814D01*
X41280822Y-79966993D01*
X41123007Y-79809178D01*
X40973328Y-79704371D01*
X40940182Y-79681162D01*
X40835570Y-79632382D01*
X40783394Y-79586625D01*
X40763974Y-79520000D01*
X40783394Y-79453375D01*
X40835570Y-79407618D01*
X40940182Y-79358837D01*
X40940182Y-79358836D01*
X40940186Y-79358835D01*
X41123007Y-79230822D01*
X41280822Y-79073007D01*
X41408835Y-78890186D01*
X41503156Y-78687913D01*
X41560920Y-78472334D01*
X41580372Y-78250000D01*
X41560920Y-78027666D01*
X41503156Y-77812087D01*
X41408835Y-77609814D01*
X41280822Y-77426993D01*
X41123007Y-77269178D01*
X40940186Y-77141165D01*
X40940182Y-77141162D01*
X40835570Y-77092382D01*
X40783394Y-77046625D01*
X40763974Y-76980000D01*
X40783394Y-76913375D01*
X40835570Y-76867618D01*
X40940182Y-76818837D01*
X40940182Y-76818836D01*
X40940186Y-76818835D01*
X41123007Y-76690822D01*
X41280822Y-76533007D01*
X41408835Y-76350186D01*
X41503156Y-76147913D01*
X41560920Y-75932334D01*
X41580372Y-75710000D01*
X41560920Y-75487666D01*
X41503156Y-75272087D01*
X41408835Y-75069814D01*
X41280822Y-74886993D01*
X41123007Y-74729178D01*
X40940186Y-74601165D01*
X40940182Y-74601162D01*
X40835570Y-74552382D01*
X40783394Y-74506625D01*
X40763974Y-74440000D01*
X40783394Y-74373375D01*
X40835570Y-74327618D01*
X40940182Y-74278837D01*
X40940182Y-74278836D01*
X40940186Y-74278835D01*
X41123007Y-74150822D01*
X41280822Y-73993007D01*
X41408835Y-73810186D01*
X41503156Y-73607913D01*
X41560920Y-73392334D01*
X41580372Y-73170000D01*
X41578578Y-73149500D01*
X41565518Y-73000223D01*
X41560920Y-72947666D01*
X41503156Y-72732087D01*
X41408835Y-72529814D01*
X41280822Y-72346993D01*
X41123007Y-72189178D01*
X40940186Y-72061165D01*
X40940182Y-72061162D01*
X40835570Y-72012382D01*
X40783394Y-71966625D01*
X40763974Y-71900000D01*
X40783394Y-71833375D01*
X40835570Y-71787618D01*
X40940182Y-71738837D01*
X40940182Y-71738836D01*
X40940186Y-71738835D01*
X41123007Y-71610822D01*
X41280822Y-71453007D01*
X41408835Y-71270186D01*
X41503156Y-71067913D01*
X41560920Y-70852334D01*
X41580372Y-70630000D01*
X41560920Y-70407666D01*
X41503156Y-70192087D01*
X41408835Y-69989814D01*
X41280822Y-69806993D01*
X41123007Y-69649178D01*
X40940186Y-69521165D01*
X40846925Y-69477677D01*
X40737914Y-69426844D01*
X40522331Y-69369079D01*
X40299999Y-69349627D01*
X40077668Y-69369079D01*
X39862085Y-69426844D01*
X39685578Y-69509151D01*
X39659814Y-69521165D01*
X39520043Y-69619034D01*
X39476989Y-69649181D01*
X39319181Y-69806989D01*
X39319178Y-69806992D01*
X39319178Y-69806993D01*
X39223388Y-69943796D01*
X39191164Y-69989816D01*
X39096844Y-70192085D01*
X39039079Y-70407668D01*
X39019627Y-70630000D01*
X39039079Y-70852331D01*
X39096844Y-71067914D01*
X39120162Y-71117919D01*
X39191165Y-71270186D01*
X39319178Y-71453007D01*
X39476993Y-71610822D01*
X39659814Y-71738835D01*
X39764430Y-71787618D01*
X39816606Y-71833375D01*
X39836025Y-71900000D01*
X39816606Y-71966625D01*
X39764430Y-72012382D01*
X39660758Y-72060725D01*
X39659814Y-72061165D01*
X39476993Y-72189178D01*
X39476989Y-72189181D01*
X39319181Y-72346989D01*
X39191164Y-72529816D01*
X39096844Y-72732085D01*
X39039079Y-72947668D01*
X39019627Y-73169999D01*
X39039079Y-73392331D01*
X39091967Y-73589714D01*
X39096844Y-73607913D01*
X39191165Y-73810186D01*
X39319178Y-73993007D01*
X39476993Y-74150822D01*
X39659814Y-74278835D01*
X39730609Y-74311847D01*
X39764430Y-74327618D01*
X39816606Y-74373375D01*
X39836025Y-74440000D01*
X39816606Y-74506625D01*
X39764430Y-74552382D01*
X39663355Y-74599514D01*
X39659814Y-74601165D01*
X39481709Y-74725876D01*
X39476989Y-74729181D01*
X39319181Y-74886989D01*
X39319178Y-74886992D01*
X39319178Y-74886993D01*
X39216180Y-75034090D01*
X39191164Y-75069816D01*
X39096844Y-75272085D01*
X39039079Y-75487668D01*
X39019627Y-75710000D01*
X39039079Y-75932331D01*
X39096844Y-76147914D01*
X39112891Y-76182327D01*
X39191165Y-76350186D01*
X39319178Y-76533007D01*
X39476993Y-76690822D01*
X39659814Y-76818835D01*
X39764430Y-76867618D01*
X39816606Y-76913375D01*
X39836025Y-76980000D01*
X39816606Y-77046625D01*
X39764430Y-77092381D01*
X39659814Y-77141165D01*
X39476993Y-77269178D01*
X39476989Y-77269181D01*
X39319181Y-77426989D01*
X39319178Y-77426992D01*
X39319178Y-77426993D01*
X39216958Y-77572979D01*
X39191164Y-77609816D01*
X39096844Y-77812085D01*
X39039079Y-78027668D01*
X39019627Y-78250000D01*
X39039079Y-78472331D01*
X39096844Y-78687914D01*
X39126018Y-78750478D01*
X39191165Y-78890186D01*
X39319178Y-79073007D01*
X39476993Y-79230822D01*
X39659814Y-79358835D01*
X39764430Y-79407618D01*
X39816606Y-79453375D01*
X39836025Y-79520000D01*
X39816606Y-79586625D01*
X39764430Y-79632382D01*
X39701313Y-79661814D01*
X39659814Y-79681165D01*
X39493104Y-79797897D01*
X39476989Y-79809181D01*
X39319181Y-79966989D01*
X39319178Y-79966992D01*
X39319178Y-79966993D01*
X39250829Y-80064606D01*
X39191164Y-80149816D01*
X39096844Y-80352085D01*
X39039079Y-80567668D01*
X39019627Y-80790000D01*
X39039079Y-81012331D01*
X39039080Y-81012334D01*
X39096844Y-81227913D01*
X39191165Y-81430186D01*
X39319178Y-81613007D01*
X39476993Y-81770822D01*
X39659814Y-81898835D01*
X39726065Y-81929728D01*
X39764430Y-81947618D01*
X39816606Y-81993375D01*
X39836025Y-82060000D01*
X39816606Y-82126625D01*
X39764430Y-82172381D01*
X39659814Y-82221165D01*
X39584034Y-82274227D01*
X39476989Y-82349181D01*
X39319181Y-82506989D01*
X39319178Y-82506992D01*
X39319178Y-82506993D01*
X39211798Y-82660348D01*
X39191164Y-82689816D01*
X39096844Y-82892085D01*
X39039079Y-83107668D01*
X39019627Y-83329999D01*
X39039079Y-83552331D01*
X39096844Y-83767914D01*
X39129611Y-83838183D01*
X39191165Y-83970186D01*
X39319178Y-84153007D01*
X39476993Y-84310822D01*
X39659814Y-84438835D01*
X39764430Y-84487618D01*
X39816606Y-84533375D01*
X39836025Y-84600000D01*
X39816606Y-84666625D01*
X39764430Y-84712381D01*
X39659814Y-84761165D01*
X39476993Y-84889178D01*
X39476989Y-84889181D01*
X39319181Y-85046989D01*
X39319178Y-85046992D01*
X39319178Y-85046993D01*
X39212106Y-85199908D01*
X39191164Y-85229816D01*
X39096844Y-85432085D01*
X39039079Y-85647668D01*
X39019627Y-85869999D01*
X39039079Y-86092331D01*
X39096844Y-86307914D01*
X39121318Y-86360398D01*
X39191165Y-86510186D01*
X39319178Y-86693007D01*
X39476993Y-86850822D01*
X39659814Y-86978835D01*
X39764430Y-87027618D01*
X39816606Y-87073375D01*
X39836025Y-87140000D01*
X39816606Y-87206625D01*
X39764430Y-87252381D01*
X39659814Y-87301165D01*
X39498364Y-87414214D01*
X39476989Y-87429181D01*
X39319181Y-87586989D01*
X39319178Y-87586992D01*
X39319178Y-87586993D01*
X39295508Y-87620798D01*
X39191164Y-87769816D01*
X39096844Y-87972085D01*
X39039079Y-88187668D01*
X39019627Y-88410000D01*
X39039079Y-88632331D01*
X39088079Y-88815204D01*
X39096844Y-88847913D01*
X39191165Y-89050186D01*
X39319178Y-89233007D01*
X39476993Y-89390822D01*
X39659814Y-89518835D01*
X39764430Y-89567618D01*
X39816606Y-89613375D01*
X39836025Y-89680000D01*
X39816606Y-89746625D01*
X39764430Y-89792381D01*
X39659814Y-89841165D01*
X39476993Y-89969178D01*
X39476989Y-89969181D01*
X39319181Y-90126989D01*
X39319178Y-90126992D01*
X39319178Y-90126993D01*
X39199197Y-90298344D01*
X39191164Y-90309816D01*
X39096844Y-90512085D01*
X39039079Y-90727668D01*
X39019627Y-90950000D01*
X39039079Y-91172331D01*
X39039080Y-91172334D01*
X39096844Y-91387913D01*
X39191165Y-91590186D01*
X39319178Y-91773007D01*
X39476993Y-91930822D01*
X39659814Y-92058835D01*
X39734379Y-92093605D01*
X39764430Y-92107618D01*
X39816606Y-92153375D01*
X39836025Y-92220000D01*
X39816606Y-92286625D01*
X39764430Y-92332381D01*
X39659814Y-92381165D01*
X39476993Y-92509178D01*
X39476989Y-92509181D01*
X39319181Y-92666989D01*
X39191164Y-92849816D01*
X39096844Y-93052085D01*
X39039079Y-93267668D01*
X39019627Y-93490000D01*
X39039079Y-93712331D01*
X39039080Y-93712334D01*
X39096844Y-93927913D01*
X39191165Y-94130186D01*
X39319178Y-94313007D01*
X39476993Y-94470822D01*
X39659814Y-94598835D01*
X39764430Y-94647618D01*
X39816606Y-94693375D01*
X39836025Y-94760000D01*
X39816606Y-94826625D01*
X39764430Y-94872381D01*
X39659814Y-94921165D01*
X39476993Y-95049178D01*
X39476989Y-95049181D01*
X39319181Y-95206989D01*
X39191164Y-95389816D01*
X39096844Y-95592085D01*
X39039079Y-95807668D01*
X39019627Y-96029999D01*
X39039079Y-96252331D01*
X39045019Y-96274501D01*
X39096844Y-96467913D01*
X39191165Y-96670186D01*
X39319178Y-96853007D01*
X39476993Y-97010822D01*
X39659814Y-97138835D01*
X39764430Y-97187618D01*
X39816606Y-97233375D01*
X39836025Y-97300000D01*
X39816606Y-97366625D01*
X39764430Y-97412381D01*
X39659814Y-97461165D01*
X39476993Y-97589178D01*
X39476989Y-97589181D01*
X39319181Y-97746989D01*
X39319178Y-97746992D01*
X39319178Y-97746993D01*
X39195257Y-97923971D01*
X39191164Y-97929816D01*
X39096844Y-98132085D01*
X39039079Y-98347668D01*
X39019627Y-98569999D01*
X39039079Y-98792331D01*
X39096844Y-99007914D01*
X39142830Y-99106530D01*
X39191165Y-99210186D01*
X39319178Y-99393007D01*
X39476993Y-99550822D01*
X39659814Y-99678835D01*
X39751057Y-99721382D01*
X39764430Y-99727618D01*
X39816606Y-99773375D01*
X39836025Y-99840000D01*
X39816606Y-99906625D01*
X39764430Y-99952381D01*
X39659814Y-100001165D01*
X39476993Y-100129178D01*
X39476989Y-100129181D01*
X39319181Y-100286989D01*
X39319178Y-100286992D01*
X39319178Y-100286993D01*
X39194292Y-100465349D01*
X39191164Y-100469816D01*
X39096844Y-100672085D01*
X39039079Y-100887668D01*
X39019627Y-101110000D01*
X39039079Y-101332331D01*
X39090570Y-101524500D01*
X39096844Y-101547913D01*
X39191165Y-101750186D01*
X39319178Y-101933007D01*
X39476993Y-102090822D01*
X39659814Y-102218835D01*
X39764432Y-102267619D01*
X39816605Y-102313373D01*
X39836025Y-102379998D01*
X39816606Y-102446623D01*
X39764430Y-102492381D01*
X39659816Y-102541163D01*
X39476989Y-102669181D01*
X39319181Y-102826989D01*
X39191164Y-103009816D01*
X39096844Y-103212085D01*
X39039079Y-103427668D01*
X39019627Y-103650000D01*
X35025500Y-103650000D01*
X35025500Y-65485635D01*
X36080801Y-65485635D01*
X36085736Y-65614364D01*
X36090656Y-65742718D01*
X36139639Y-65995283D01*
X36176426Y-66097708D01*
X36226601Y-66237413D01*
X36349505Y-66463430D01*
X36505465Y-66668030D01*
X36505468Y-66668033D01*
X36505469Y-66668034D01*
X36690838Y-66846434D01*
X36901268Y-66994447D01*
X37131826Y-67108604D01*
X37377108Y-67186228D01*
X37631364Y-67225500D01*
X37824227Y-67225500D01*
X37824229Y-67225500D01*
X37848227Y-67223657D01*
X38016517Y-67210737D01*
X38267021Y-67152117D01*
X38505641Y-67055944D01*
X38726783Y-66924474D01*
X38925265Y-66760787D01*
X39096435Y-66568720D01*
X39120349Y-66531792D01*
X39236278Y-66352777D01*
X39249641Y-66322968D01*
X39341521Y-66118014D01*
X39409693Y-65869939D01*
X39439198Y-65614365D01*
X39429344Y-65357282D01*
X39380361Y-65104717D01*
X39293399Y-64862588D01*
X39170496Y-64636572D01*
X39090237Y-64531282D01*
X39014534Y-64431969D01*
X39014531Y-64431966D01*
X38829162Y-64253566D01*
X38618732Y-64105553D01*
X38618730Y-64105552D01*
X38388173Y-63991395D01*
X38142894Y-63913772D01*
X37973387Y-63887590D01*
X37888636Y-63874500D01*
X37695773Y-63874500D01*
X37695771Y-63874500D01*
X37503483Y-63889263D01*
X37252979Y-63947882D01*
X37014360Y-64044055D01*
X36793217Y-64175525D01*
X36594733Y-64339213D01*
X36423562Y-64531282D01*
X36283721Y-64747222D01*
X36178478Y-64981987D01*
X36110307Y-65230057D01*
X36080801Y-65485635D01*
X35025500Y-65485635D01*
X35025500Y-60275862D01*
X35034939Y-60228409D01*
X35061819Y-60188181D01*
X35188181Y-60061819D01*
X35228409Y-60034939D01*
X35275862Y-60025500D01*
X64724138Y-60025500D01*
X64771591Y-60034939D01*
G37*
%TD.AperFunction*%
%TD*%
M02*
