M48
; DRILL file {KiCad 7.0.1} date 2023-05-26T22:56:09 CEST
; FORMAT={-:-/ absolute / metric / decimal}
; #@! TF.CreationDate,2023-05-26T22:56:09+02:00
; #@! TF.GenerationSoftware,Kicad,Pcbnew,7.0.1
; #@! TF.FileFunction,Plated,1,4,PTH
FMAT,2
METRIC
; #@! TA.AperFunction,Plated,PTH,ViaDrill
T1C0.300
; #@! TA.AperFunction,Plated,PTH,ComponentDrill
T2C0.800
; #@! TA.AperFunction,Plated,PTH,ComponentDrill
T3C1.000
; #@! TA.AperFunction,Plated,PTH,ComponentDrill
T4C1.100
; #@! TA.AperFunction,Plated,PTH,ComponentDrill
T5C3.100
%
G90
G05
T1
X71.7Y-76.95
X71.7Y-91.95
X71.7Y-108.45
X71.7Y-123.45
X79.9Y-73.9
X79.9Y-105.4
X80.1Y-147.9
X81.175Y-113.5
X81.2Y-82.0
X85.6Y-77.9
X85.6Y-109.4
X85.9Y-79.1
X85.9Y-110.6
X87.325Y-84.325
X87.375Y-115.775
X91.5Y-78.0
X91.5Y-79.0
X91.5Y-109.5
X91.5Y-110.5
X91.7Y-91.95
X91.7Y-123.45
X92.0Y-77.2
X92.0Y-108.7
X92.5Y-79.0
X92.5Y-110.5
X92.5Y-110.5
X104.0Y-112.5
X104.25Y-81.0
X109.4Y-102.4
X109.4Y-103.6
X111.7Y-76.95
X111.7Y-91.95
X111.7Y-108.45
X111.7Y-123.45
X111.7Y-139.95
X111.7Y-154.95
X117.1Y-103.5
X121.175Y-74.9
X121.175Y-82.0
X121.175Y-138.0
X121.175Y-145.0
X121.4Y-113.5
X125.6Y-77.9
X125.6Y-109.4
X125.6Y-140.9
X125.9Y-79.1
X125.9Y-110.6
X125.9Y-142.1
X127.375Y-84.275
X127.375Y-115.775
X127.375Y-147.275
X131.5Y-78.0
X131.5Y-79.0
X131.5Y-109.5
X131.5Y-110.5
X131.5Y-141.0
X131.5Y-142.0
X131.7Y-91.95
X131.7Y-123.45
X131.7Y-154.95
X132.0Y-77.2
X132.0Y-108.7
X132.0Y-140.2
X132.5Y-79.0
X132.5Y-79.0
X132.5Y-110.5
X132.5Y-110.5
X132.5Y-142.0
X132.5Y-142.0
X143.8Y-112.5
X143.8Y-144.0
X144.0Y-79.5
X173.075Y-69.225
X173.075Y-82.225
X173.1Y-88.7
X173.225Y-75.725
X173.375Y-134.225
X173.8Y-126.7
X174.0Y-108.225
X174.2Y-100.5
X174.3Y-95.225
X174.7Y-121.2
X174.8Y-114.2
X175.0Y-106.2
X175.6Y-116.9
X176.4Y-96.4
X176.6Y-124.0
X177.0Y-110.9
X177.5Y-125.2
X178.1Y-118.0
X178.5Y-101.72
T2
X80.5Y-71.0
X80.5Y-86.0
X80.5Y-102.5
X80.5Y-117.5
X81.914Y-69.586
X81.914Y-72.414
X81.914Y-84.586
X81.914Y-87.414
X81.914Y-101.086
X81.914Y-103.914
X81.914Y-116.086
X81.914Y-118.914
X83.328Y-71.0
X83.328Y-86.0
X83.328Y-102.5
X83.328Y-117.5
X100.5Y-71.0
X100.5Y-86.0
X100.5Y-102.5
X100.5Y-117.5
X101.914Y-69.586
X101.914Y-72.414
X101.914Y-84.586
X101.914Y-87.414
X101.914Y-101.086
X101.914Y-103.914
X101.914Y-116.086
X101.914Y-118.914
X103.328Y-71.0
X103.328Y-86.0
X103.328Y-102.5
X103.328Y-117.5
X120.5Y-71.0
X120.5Y-86.0
X120.5Y-102.5
X120.5Y-117.5
X120.5Y-134.0
X120.5Y-149.0
X121.914Y-69.586
X121.914Y-72.414
X121.914Y-84.586
X121.914Y-87.414
X121.914Y-101.086
X121.914Y-103.914
X121.914Y-116.086
X121.914Y-118.914
X121.914Y-132.586
X121.914Y-135.414
X121.914Y-147.586
X121.914Y-150.414
X123.328Y-71.0
X123.328Y-86.0
X123.328Y-102.5
X123.328Y-117.5
X123.328Y-134.0
X123.328Y-149.0
X140.5Y-71.0
X140.5Y-86.0
X140.5Y-102.5
X140.5Y-117.5
X140.5Y-134.0
X140.5Y-149.0
X141.914Y-69.586
X141.914Y-72.414
X141.914Y-84.586
X141.914Y-87.414
X141.914Y-101.086
X141.914Y-103.914
X141.914Y-116.086
X141.914Y-118.914
X141.914Y-132.586
X141.914Y-135.414
X141.914Y-147.586
X141.914Y-150.414
X143.328Y-71.0
X143.328Y-86.0
X143.328Y-102.5
X143.328Y-117.5
X143.328Y-134.0
X143.328Y-149.0
T3
X40.3Y-70.63
X40.3Y-73.17
X40.3Y-75.71
X40.3Y-78.25
X40.3Y-80.79
X40.3Y-83.33
X40.3Y-85.87
X40.3Y-88.41
X40.3Y-90.95
X40.3Y-93.49
X40.3Y-96.03
X40.3Y-98.57
X40.3Y-101.11
X40.3Y-103.65
X40.3Y-106.19
X40.3Y-108.73
X40.3Y-111.27
X40.3Y-113.81
X40.3Y-116.35
X40.3Y-118.89
X40.3Y-121.43
X40.3Y-123.97
X40.3Y-126.51
X40.3Y-129.05
X40.3Y-131.59
X40.3Y-134.13
X40.3Y-136.67
X40.3Y-139.21
X40.3Y-141.75
X40.3Y-144.29
X40.3Y-146.83
X40.3Y-149.37
X45.38Y-70.63
X45.38Y-73.17
X45.38Y-75.71
X45.38Y-78.25
X45.38Y-80.79
X45.38Y-83.33
X45.38Y-85.87
X45.38Y-88.41
X45.38Y-90.95
X45.38Y-93.49
X45.38Y-96.03
X45.38Y-98.57
X45.38Y-101.11
X45.38Y-103.65
X45.38Y-106.19
X45.38Y-108.73
X45.38Y-111.27
X45.38Y-113.81
X45.38Y-116.35
X45.38Y-118.89
X45.38Y-121.43
X45.38Y-123.97
X45.38Y-126.51
X45.38Y-129.05
X45.38Y-131.59
X45.38Y-134.13
X45.38Y-136.67
X45.38Y-139.21
X45.38Y-141.75
X45.38Y-144.29
X45.38Y-146.83
X45.38Y-149.37
X59.5Y-141.5
X59.5Y-146.5
X72.5Y-141.5
X72.5Y-146.5
X181.3Y-87.9
X181.3Y-90.67
X181.3Y-93.44
X181.3Y-96.18
X181.3Y-98.95
X181.3Y-101.72
X181.3Y-104.46
X181.3Y-107.23
X181.3Y-110.0
X181.3Y-112.74
X181.3Y-115.49
X181.3Y-118.28
X181.3Y-121.05
X181.3Y-123.82
X181.3Y-126.56
X181.3Y-129.33
X181.3Y-132.1
X184.14Y-89.3
X184.14Y-92.04
X184.14Y-94.81
X184.14Y-97.58
X184.14Y-100.32
X184.14Y-103.09
X184.14Y-105.86
X184.14Y-108.6
X184.14Y-111.4
X184.14Y-114.11
X184.14Y-116.91
X184.14Y-119.68
X184.14Y-122.42
X184.14Y-125.19
X184.14Y-127.96
X184.14Y-130.7
X186.98Y-87.9
X186.98Y-90.67
X186.98Y-93.44
X186.98Y-96.18
X186.98Y-98.95
X186.98Y-101.72
X186.98Y-104.46
X186.98Y-107.23
X186.98Y-110.0
X186.98Y-112.74
X186.98Y-115.49
X186.98Y-118.28
X186.98Y-121.05
X186.98Y-123.82
X186.98Y-126.56
X186.98Y-129.33
X186.98Y-132.1
T4
X71.32Y-156.0
X73.86Y-156.0
X76.4Y-156.0
T5
X184.14Y-79.445
X184.14Y-140.555
T0
M30
